<mxfile host="Electron" agent="Mozilla/5.0 (Windows NT 10.0; Win64; x64) AppleWebKit/537.36 (KHTML, like Gecko) draw.io/26.2.15 Chrome/134.0.6998.205 Electron/35.2.1 Safari/537.36" version="26.2.15">
  <diagram name="Page-1" id="4SR_Qaod4OLlK-iM1zTB">
    <mxGraphModel dx="1042" dy="1834" grid="1" gridSize="10" guides="1" tooltips="1" connect="1" arrows="1" fold="1" page="1" pageScale="1" pageWidth="1920" pageHeight="1200" math="0" shadow="0">
      <root>
        <mxCell id="0" />
        <mxCell id="1" parent="0" />
        <mxCell id="tEL66eHu9HameOeRS7J7-1" value="" style="rounded=0;whiteSpace=wrap;html=1;fillColor=none;strokeColor=light-dark(#787878, #ededed);dashed=1;dashPattern=1 2;" parent="1" vertex="1">
          <mxGeometry x="10" y="50" width="120" height="490" as="geometry" />
        </mxCell>
        <mxCell id="tEL66eHu9HameOeRS7J7-2" value="Sources" style="rounded=0;whiteSpace=wrap;html=1;textShadow=0;fontSize=16;strokeColor=none;fontStyle=0" parent="1" vertex="1">
          <mxGeometry x="38.120000000000005" y="40" width="60" height="20" as="geometry" />
        </mxCell>
        <mxCell id="tEL66eHu9HameOeRS7J7-3" value="" style="rounded=0;whiteSpace=wrap;html=1;fillColor=none;strokeColor=light-dark(#787878, #ededed);dashed=1;dashPattern=1 2;" parent="1" vertex="1">
          <mxGeometry x="190" y="50" width="520" height="490" as="geometry" />
        </mxCell>
        <mxCell id="tEL66eHu9HameOeRS7J7-4" value="Data warehouse" style="rounded=0;whiteSpace=wrap;html=1;textShadow=0;fontSize=16;strokeColor=none;fontStyle=0;shadow=0;" parent="1" vertex="1">
          <mxGeometry x="350" y="40" width="130" height="20" as="geometry" />
        </mxCell>
        <mxCell id="tEL66eHu9HameOeRS7J7-6" value="" style="rounded=0;whiteSpace=wrap;html=1;fillColor=none;strokeColor=light-dark(#787878, #ededed);fontSize=15;dashed=1;dashPattern=1 2;" parent="1" vertex="1">
          <mxGeometry x="770" y="50" width="120" height="490" as="geometry" />
        </mxCell>
        <mxCell id="tEL66eHu9HameOeRS7J7-7" value="Use Cases" style="rounded=0;whiteSpace=wrap;html=1;textShadow=0;fontSize=16;strokeColor=none;fontStyle=0" parent="1" vertex="1">
          <mxGeometry x="785" y="40" width="90" height="20" as="geometry" />
        </mxCell>
        <mxCell id="tEL66eHu9HameOeRS7J7-9" value="1st Layer" style="rounded=0;whiteSpace=wrap;html=1;fillColor=#FFB570;strokeColor=#d6b656;textShadow=0;fontSize=15;fontStyle=1" parent="1" vertex="1">
          <mxGeometry x="230" y="70" width="110" height="20" as="geometry" />
        </mxCell>
        <mxCell id="tEL66eHu9HameOeRS7J7-10" value="" style="rounded=0;whiteSpace=wrap;html=1;fillColor=none;strokeColor=#FFB570;textShadow=1;fontSize=16;" parent="1" vertex="1">
          <mxGeometry x="200" y="100" width="140" height="430" as="geometry" />
        </mxCell>
        <mxCell id="tEL66eHu9HameOeRS7J7-12" value="" style="rounded=0;whiteSpace=wrap;html=1;fillColor=none;strokeColor=#CCCCCC;textShadow=1;fontSize=16;fontColor=#333333;" parent="1" vertex="1">
          <mxGeometry x="360" y="100" width="150" height="430" as="geometry" />
        </mxCell>
        <mxCell id="tEL66eHu9HameOeRS7J7-13" value="" style="rounded=0;whiteSpace=wrap;html=1;fillColor=none;strokeColor=#FFFF00;textShadow=1;fontSize=16;" parent="1" vertex="1">
          <mxGeometry x="530" y="100" width="160" height="430" as="geometry" />
        </mxCell>
        <mxCell id="tEL66eHu9HameOeRS7J7-14" value="2nd Layer" style="rounded=0;whiteSpace=wrap;html=1;fillColor=#f5f5f5;strokeColor=#CCCCCC;textShadow=0;fontSize=15;fontColor=#333333;fontStyle=1" parent="1" vertex="1">
          <mxGeometry x="385" y="70" width="110" height="20" as="geometry" />
        </mxCell>
        <mxCell id="tEL66eHu9HameOeRS7J7-15" value="3rd Layer" style="rounded=0;whiteSpace=wrap;html=1;fillColor=#FFFF00;strokeColor=#B09500;textShadow=0;fontSize=15;fontColor=#000000;fontStyle=1" parent="1" vertex="1">
          <mxGeometry x="530" y="70" width="110" height="20" as="geometry" />
        </mxCell>
        <mxCell id="tEL66eHu9HameOeRS7J7-21" value="CRM" style="image;aspect=fixed;html=1;points=[];align=center;fontSize=12;image=img/lib/azure2/general/Folder_Blank.svg;fontStyle=1;fontFamily=Helvetica;" parent="1" vertex="1">
          <mxGeometry x="58.480000000000004" y="150" width="36.96" height="30" as="geometry" />
        </mxCell>
        <mxCell id="tEL66eHu9HameOeRS7J7-28" value="ERP" style="image;aspect=fixed;html=1;points=[];align=center;fontSize=12;image=img/lib/azure2/general/Folder_Blank.svg;fontStyle=1;fontFamily=Helvetica;" parent="1" vertex="1">
          <mxGeometry x="58.48" y="240" width="36.96" height="30" as="geometry" />
        </mxCell>
        <mxCell id="tEL66eHu9HameOeRS7J7-27" value="" style="image;aspect=fixed;html=1;points=[];align=center;fontSize=12;image=img/lib/azure2/general/File.svg;fontStyle=0" parent="1" vertex="1">
          <mxGeometry x="81.88999999999999" y="260" width="16.23" height="20" as="geometry" />
        </mxCell>
        <mxCell id="tEL66eHu9HameOeRS7J7-30" value="" style="endArrow=none;html=1;rounded=0;fillColor=#f5f5f5;strokeColor=#CCCCCC;" parent="1" edge="1">
          <mxGeometry width="50" height="50" relative="1" as="geometry">
            <mxPoint x="43.120000000000005" y="322" as="sourcePoint" />
            <mxPoint x="93.12" y="322" as="targetPoint" />
            <Array as="points">
              <mxPoint x="13.120000000000001" y="322" />
              <mxPoint x="113.12" y="322" />
            </Array>
          </mxGeometry>
        </mxCell>
        <mxCell id="tEL66eHu9HameOeRS7J7-32" value="&lt;span&gt;Object Type:&lt;/span&gt; CSV File&lt;div&gt;&lt;span&gt;Interface:&lt;/span&gt; Files in Folder&lt;/div&gt;" style="text;html=1;align=center;verticalAlign=middle;whiteSpace=wrap;rounded=0;fontSize=9;fontStyle=1" parent="1" vertex="1">
          <mxGeometry x="13.119999999999997" y="337.5" width="110" height="30" as="geometry" />
        </mxCell>
        <mxCell id="tEL66eHu9HameOeRS7J7-17" value="" style="image;aspect=fixed;html=1;points=[];align=center;fontSize=12;image=img/lib/azure2/general/File.svg;fontStyle=0" parent="1" vertex="1">
          <mxGeometry x="81.88999999999999" y="170" width="16.23" height="20" as="geometry" />
        </mxCell>
        <mxCell id="tEL66eHu9HameOeRS7J7-40" value="" style="html=1;verticalLabelPosition=bottom;align=center;labelBackgroundColor=#ffffff;verticalAlign=top;strokeWidth=2;strokeColor=light-dark(#FFB570,#FFB570);shadow=0;dashed=0;shape=mxgraph.ios7.icons.data;" parent="1" vertex="1">
          <mxGeometry x="253.5" y="160" width="37" height="40" as="geometry" />
        </mxCell>
        <mxCell id="tEL66eHu9HameOeRS7J7-42" value="" style="html=1;verticalLabelPosition=bottom;align=center;labelBackgroundColor=#ffffff;verticalAlign=top;strokeWidth=2;strokeColor=#CCCCCC;shadow=0;dashed=0;shape=mxgraph.ios7.icons.data;" parent="1" vertex="1">
          <mxGeometry x="421.5" y="150" width="37" height="40" as="geometry" />
        </mxCell>
        <mxCell id="tEL66eHu9HameOeRS7J7-43" value="" style="html=1;verticalLabelPosition=bottom;align=center;labelBackgroundColor=#ffffff;verticalAlign=top;strokeWidth=2;strokeColor=#FFFF00;shadow=0;dashed=0;shape=mxgraph.ios7.icons.data;" parent="1" vertex="1">
          <mxGeometry x="580" y="150" width="37" height="40" as="geometry" />
        </mxCell>
        <mxCell id="tEL66eHu9HameOeRS7J7-44" value="" style="shape=singleArrow;whiteSpace=wrap;html=1;fillColor=#dae8fc;strokeColor=#6c8ebf;" parent="1" vertex="1">
          <mxGeometry x="128.48" y="240" width="61.52" height="15" as="geometry" />
        </mxCell>
        <mxCell id="tEL66eHu9HameOeRS7J7-45" value="" style="shape=singleArrow;whiteSpace=wrap;html=1;fillColor=#dae8fc;strokeColor=#6c8ebf;" parent="1" vertex="1">
          <mxGeometry x="708.48" y="240" width="61.52" height="20" as="geometry" />
        </mxCell>
        <mxCell id="tEL66eHu9HameOeRS7J7-46" value="" style="shape=singleArrow;whiteSpace=wrap;html=1;fillColor=#dae8fc;strokeColor=#6c8ebf;" parent="1" vertex="1">
          <mxGeometry x="334" y="242.5" width="61.52" height="15" as="geometry" />
        </mxCell>
        <mxCell id="tEL66eHu9HameOeRS7J7-49" value="" style="shape=singleArrow;whiteSpace=wrap;html=1;fillColor=#dae8fc;strokeColor=#6c8ebf;" parent="1" vertex="1">
          <mxGeometry x="490" y="240" width="61.52" height="20" as="geometry" />
        </mxCell>
        <mxCell id="tEL66eHu9HameOeRS7J7-50" value="&lt;span style=&quot;font-weight: normal;&quot;&gt;Raw Data&lt;/span&gt;" style="text;html=1;align=center;verticalAlign=middle;whiteSpace=wrap;rounded=0;fontStyle=1;fontSize=10;" parent="1" vertex="1">
          <mxGeometry x="240" y="205" width="60" height="30" as="geometry" />
        </mxCell>
        <mxCell id="tEL66eHu9HameOeRS7J7-51" value="Business-Ready Plan" style="text;html=1;align=center;verticalAlign=middle;whiteSpace=wrap;rounded=0;fontSize=10;" parent="1" vertex="1">
          <mxGeometry x="550" y="200" width="100" height="30" as="geometry" />
        </mxCell>
        <mxCell id="tEL66eHu9HameOeRS7J7-52" value="Clean, Standardized Data" style="text;html=1;align=center;verticalAlign=middle;whiteSpace=wrap;rounded=0;fontSize=10;" parent="1" vertex="1">
          <mxGeometry x="390" y="205" width="100" height="30" as="geometry" />
        </mxCell>
        <mxCell id="tEL66eHu9HameOeRS7J7-58" value="" style="endArrow=none;html=1;rounded=0;fillColor=#f5f5f5;strokeColor=light-dark(#FFB570,#FFB570);" parent="1" edge="1">
          <mxGeometry width="50" height="50" relative="1" as="geometry">
            <mxPoint x="245" y="254.5" as="sourcePoint" />
            <mxPoint x="295" y="254.5" as="targetPoint" />
            <Array as="points">
              <mxPoint x="235" y="254.5" />
              <mxPoint x="225" y="254.5" />
              <mxPoint x="315" y="254.5" />
            </Array>
          </mxGeometry>
        </mxCell>
        <mxCell id="tEL66eHu9HameOeRS7J7-61" value="" style="endArrow=none;html=1;rounded=0;fillColor=#f5f5f5;strokeColor=#FFFF00;" parent="1" edge="1">
          <mxGeometry width="50" height="50" relative="1" as="geometry">
            <mxPoint x="580" y="254.5" as="sourcePoint" />
            <mxPoint x="630" y="254.5" as="targetPoint" />
            <Array as="points">
              <mxPoint x="570" y="254.5" />
              <mxPoint x="560" y="254.5" />
              <mxPoint x="650" y="254.5" />
            </Array>
          </mxGeometry>
        </mxCell>
        <mxCell id="tEL66eHu9HameOeRS7J7-63" value="&lt;b&gt;Object Type:&lt;/b&gt;&amp;nbsp;Table&lt;div&gt;&lt;b style=&quot;background-color: transparent; color: light-dark(rgb(0, 0, 0), rgb(255, 255, 255));&quot;&gt;Load:&lt;/b&gt;&lt;span style=&quot;background-color: transparent; color: light-dark(rgb(0, 0, 0), rgb(255, 255, 255));&quot;&gt;&amp;nbsp;&lt;/span&gt;&lt;div&gt;&lt;ul&gt;&lt;li&gt;Batch Processing&lt;/li&gt;&lt;li&gt;Full Load&lt;/li&gt;&lt;li&gt;Truncate &amp;amp; Insert&lt;/li&gt;&lt;/ul&gt;&lt;div&gt;No &lt;b&gt;Transformation&lt;/b&gt;&lt;/div&gt;&lt;/div&gt;&lt;/div&gt;&lt;div&gt;&lt;b&gt;&lt;br&gt;&lt;/b&gt;&lt;/div&gt;&lt;div&gt;&lt;b&gt;Data Model: &lt;/b&gt;None (as-is)&lt;/div&gt;" style="text;html=1;align=left;verticalAlign=middle;whiteSpace=wrap;rounded=0;fontSize=9;" parent="1" vertex="1">
          <mxGeometry x="210" y="270" width="124" height="140" as="geometry" />
        </mxCell>
        <mxCell id="tEL66eHu9HameOeRS7J7-66" value="&lt;b&gt;Object Type:&lt;/b&gt;&amp;nbsp;Table&lt;div&gt;&lt;b style=&quot;background-color: transparent; color: light-dark(rgb(0, 0, 0), rgb(255, 255, 255));&quot;&gt;Load:&lt;/b&gt;&lt;span style=&quot;background-color: transparent; color: light-dark(rgb(0, 0, 0), rgb(255, 255, 255));&quot;&gt;&amp;nbsp;&lt;/span&gt;&lt;div&gt;&lt;ul&gt;&lt;li&gt;Batch Processing&lt;/li&gt;&lt;li&gt;Full Load&lt;/li&gt;&lt;li&gt;Truncate &amp;amp; Insert&lt;/li&gt;&lt;/ul&gt;&lt;div&gt;&lt;b&gt;Transformations:&lt;/b&gt;&lt;/div&gt;&lt;/div&gt;&lt;/div&gt;&lt;div&gt;&lt;ul&gt;&lt;li&gt;Data Cleaning&lt;/li&gt;&lt;li&gt;Data Standardization&lt;/li&gt;&lt;li&gt;Data Normalization&lt;/li&gt;&lt;li&gt;Derived Columns&lt;/li&gt;&lt;li&gt;Data Enrichment&lt;/li&gt;&lt;/ul&gt;&lt;/div&gt;&lt;div&gt;&lt;b&gt;&lt;br&gt;&lt;/b&gt;&lt;/div&gt;&lt;div&gt;&lt;b&gt;Data Model: &lt;/b&gt;None (as-is)&lt;/div&gt;" style="text;html=1;align=left;verticalAlign=middle;whiteSpace=wrap;rounded=0;fontSize=9;" parent="1" vertex="1">
          <mxGeometry x="370" y="275" width="140" height="205" as="geometry" />
        </mxCell>
        <mxCell id="tEL66eHu9HameOeRS7J7-67" value="&lt;b&gt;Object Type:&lt;/b&gt;&amp;nbsp;Table&lt;div&gt;&lt;b style=&quot;background-color: transparent; color: light-dark(rgb(0, 0, 0), rgb(255, 255, 255));&quot;&gt;Load:&lt;/b&gt;&lt;span style=&quot;background-color: transparent; color: light-dark(rgb(0, 0, 0), rgb(255, 255, 255));&quot;&gt;&amp;nbsp;&lt;/span&gt;&lt;div&gt;&lt;ul&gt;&lt;li&gt;Batch Processing&lt;/li&gt;&lt;li&gt;Full Load&lt;/li&gt;&lt;li&gt;Truncate &amp;amp; Insert&lt;/li&gt;&lt;/ul&gt;&lt;div&gt;&lt;b&gt;Transformations:&lt;/b&gt;&lt;/div&gt;&lt;/div&gt;&lt;/div&gt;&lt;div&gt;&lt;ul&gt;&lt;li&gt;Data Integrations&lt;/li&gt;&lt;li&gt;Aggregations&lt;/li&gt;&lt;li&gt;Business Logics&lt;/li&gt;&lt;/ul&gt;&lt;/div&gt;&lt;div&gt;&lt;b&gt;&lt;br&gt;&lt;/b&gt;&lt;/div&gt;&lt;div&gt;&lt;b&gt;Data Model:&amp;nbsp;&lt;/b&gt;&lt;/div&gt;&lt;div&gt;&lt;ul&gt;&lt;li&gt;Start Schema&lt;/li&gt;&lt;li&gt;Flat Table&lt;/li&gt;&lt;li&gt;Aggregated Table&lt;/li&gt;&lt;/ul&gt;&lt;/div&gt;" style="text;html=1;align=left;verticalAlign=middle;whiteSpace=wrap;rounded=0;fontSize=9;" parent="1" vertex="1">
          <mxGeometry x="537.24" y="270" width="135.52" height="240" as="geometry" />
        </mxCell>
        <mxCell id="tEL66eHu9HameOeRS7J7-139" value="" style="image;aspect=fixed;html=1;points=[];align=center;fontSize=12;image=img/lib/azure2/databases/SQL_Database.svg;" parent="1" vertex="1">
          <mxGeometry x="810" y="260" width="35.63" height="47.5" as="geometry" />
        </mxCell>
        <mxCell id="tEL66eHu9HameOeRS7J7-140" value="" style="image;sketch=0;aspect=fixed;html=1;points=[];align=center;fontSize=12;image=img/lib/mscae/Cognitive_Services.svg;" parent="1" vertex="1">
          <mxGeometry x="810" y="390" width="50" height="30" as="geometry" />
        </mxCell>
        <mxCell id="tEL66eHu9HameOeRS7J7-141" value="Visualization" style="text;html=1;align=center;verticalAlign=middle;whiteSpace=wrap;rounded=0;fontSize=10;" parent="1" vertex="1">
          <mxGeometry x="785" y="190" width="90" height="30" as="geometry" />
        </mxCell>
        <mxCell id="tEL66eHu9HameOeRS7J7-142" value="Machine learning" style="text;html=1;align=center;verticalAlign=middle;whiteSpace=wrap;rounded=0;fontSize=10;" parent="1" vertex="1">
          <mxGeometry x="782.82" y="440" width="90" height="30" as="geometry" />
        </mxCell>
        <mxCell id="tEL66eHu9HameOeRS7J7-143" value="SQL Queries" style="text;html=1;align=center;verticalAlign=middle;whiteSpace=wrap;rounded=0;fontSize=10;" parent="1" vertex="1">
          <mxGeometry x="781.4100000000001" y="307.5" width="90" height="30" as="geometry" />
        </mxCell>
        <mxCell id="tEL66eHu9HameOeRS7J7-146" value="" style="shape=image;aspect=fixed;image=data:image/png,iVBORw0KGgoAAAANSUhEUgAAAgAAAAIACAYAAAD0eNT6AAAABHNCSVQICAgIfAhkiAAAAAlwSFlzAAAOxAAADsQBlSsOGwAAABl0RVh0U29mdHdhcmUAd3d3Lmlua3NjYXBlLm9yZ5vuPBoAACAASURBVHic7N15YFTV2Qbw5zl3JgnIFggJq+wgRFBkTcgyQAg7shh3bV2pba12tf2qLa1dbGs3bbXWutQVCYKAskMCJOybQgANi4iKohRBhSwz9/3+mCUzk5mQhISwvL+W5M6de889d9rMee9ZAaWUUkoppZRSSimllFJKKaWUUkoppZRSSimllFJKKaWUUkoppZRSSimllFJKKaWUUkoppZRSSimllFJKKaWUUkoppZRSSimllFJKKaWUUkoppZRSSimllFJKKaWUUkoppZRSSimllFJKKaWUUkoppZRSSimllFJKKaWUUkoppZRSSimllFJKKaWUUkoppZRSSimllFJKKaWUUkoppZRSSimllFJKKaWUUkoppZRSSimllFJKKaWUUkoppZRSSimllFJKKaWUUkoppZRSSimllFJKKaWUUkoppZRSSimllFJKKaWUUkopdZ44dOhQo08//fSeL774Ir6h86KUqszR0BlQSl1YPv744wSPyB0WeZ9tS9vS0tKvALzY0PlSSoXSAEApVSfef//9LqR1v8fjuZM0jQUAKRDhFGgAoNQ5hw2dAaXU+a24uPgqy3LebwxuIOkgDWgIQ4I0MIanALRu06bN1w2dV6VUBa0BUErVmIiwuLh4JMn7SDNBYEPEAPA+9UMIIUAIRNjIGI4GMKdhc62UCqYBgFKq2oqKimJIXv/ee+/9BGAy6KtGFEAoIAiRiEHAFGgAoNQ5RZsAlFKnVVxc3KykpOQ2GvMjQ9OBpK+aP7S6P9q2MTx+9GhSYnIyyxr6XpRSXloDoJSKauvWrZ0sy7r/5KlTdxqaJsFP+oFtIfwd/oKf+sNqAJq3bv1ZFoCFDX1PSikvDQCUUpVs2LC9p8Ph+RnAm2yB0wAQCECCkYIAX9U/KIDNTWJkISm/gJD+IMC25WZoAKDUOUObAJRSARs3bkwW4QPG8AYaOgwNQqr7w7aNCVT37zJkLoBXunXr9h4AHDp0qJBkKiuOPWlZVpvWrVt/2cC3qZSC1gAopQCsX7++n23jR7YtN5KwBBVP+kC0p37ssm3mGmPP7Nm9154Iyc4UQSq8x0KEjW3bngLghbN7d0qpSLQGQKmLWH5+YYpx4EFDjjUkaYyv4x4RcdvwS8uYl0XkX5dffvnbVaV94MCBNg6H40PSWEEdApe2aZM0+mzdn1IqOg0AlLoIrVq1qq8IH6JhToRC3ttzP6i63xjugTHPG+Df/fr1O1bd6xw6dGg5yZFBowJsh8NxaUJCwkf1eX9KqdPTJgClLiIrV65MFsGvPbZMIf0d9+kbyy/ebQEAgZAlBsgl8a8rr7xybS0v+aoIRnovBAhoPB7PdQD+Ulf3pJSqHa0BUOoisHDhim6WQ2YY8kYaGuN74id9VfOh20cMzd8B+6khQ4YcPZPr7vnss6aXlJR8RJqmQc0AO9u0SepbV/emlKodDQCUuoAtXLiwg9D6sUVMpzGxwQV+hKr/9w2tv8XEOJ4eOHDgybrKwwcfHPqHMfxO6ORAHJaUlFTbWgWlVB3QJgClLkALFy5s5rbxf7bgPgOJ81bte8fxe4fre6v7AcBADgL4dXlZ+QvDhw9313VeROwnRKxvk96ZgbyTBmE6AA0AlGpAWgOg1AVk1qxZVmxso7tA/MrQJHo79EWdsvcwLfPbxISEp5OTk+t1it5Dhw6tJM3woDyciouLbd+iRYtqdyhUStUt09AZUErVjdmz3xjtcMS8bYv9JASJAoF3ej7fLH4iEO/2KYj9cHl5WY/hmZn/rO/C3+efvl6A8OWoUVlZ2S1n4bpKqSi0BkCp89zs2bOTRfgoDcf4n/SjPPULwZmWxZ+OGjXqg7OZRxGxPvzww3eMMX2CaiCKkpKSLj+b+VBKVdAAQKnz1HPPzW3RqFHZb2nM3aRxmLCCP2z7PcvwW2PGjMlrqPweOnRoKmle9+fTt0pgemJiYkFD5Umpi5k2ASh1HnrllVduiI0r3S3AtyFwAAIRfxV7SNV/GQQPN24Ud0VDFv4A0KFDh7mAbJKKZgCI4P6GzJNSFzOtAVDqPPLsyy93ddryTxozxvcEXdVTv3/7sGVYIMYUOsiC7OzsraR3up+z7YMPPs62LFkS1AzgAdArKSlpX0PkR6mLmQYASp0HnnrqKWdcXOMfg3iQNI2iTdlbRRAQvH3EMtwo5CaHMZvLy8s3jx49+sjZupePPvpoMcnRQasEPpaYmHjf2bq+UspLAwClznHPPPNMGo31L5LJp3/qNzDkcRo2P11AEDwk0DL8AOTbNKbIIneQ3HX8+PHd48aNK63r+zl48GBXh8O5g4aNfXn4KibG2TE+Pv6Lur6WUio6DQCUOkf95S+zGjVt+uUjNLyXNAx56q/6Sf9tiOMm45R0IxxtLDOSZNPTTP8bPkcAaIybNAcNsRfG2mdR9hpj9oo4PgLKD+/fv//Itdde66nNvX388cffA/h3/7UA64GkpIQ/1vFHqJSqggYASp2DnnzyP/2NZb9EWn181eQh1f1B22WkiakcEOCFaVOnfgMAnnpqs7Nt2yOplsXRJEbTmP4kGT0IiDpVsDf9im2b5BEafkqYj4zBEdL6iDSfGiNHHA7HlyJyCsAJkl+KxJ1yOt1fXXrppScA2IcPH55Lmqt9QcCHrVu37kqyvGE/eaUuHhoAKHUOmTVrlnX06LEfg/gVaWIqP/UHCuPFhviNMSYWNEtJY4Ufa2junzLl6r+HX2PJkiWJts1sY5nRhhhOY9pXXStQ9VLBrGLbn+cIsxCWkqbcGDbxDwm0LPPNhISE/zbE567UxUgDAKXOEX/965OdY2LkBdCkV/HU/xksfuu2W2+d4z/v1Vdf+yWIGRGaBDykdc2UKRPfqOq6eXl5nT0epFmWGUYijcb0IStWDDxdrUAdBQQgTXHr1gm96R0ZoJSqZxoAKHUO+NvfHrvVWNbjJJsFCslKQYDZTNhTb7/99kPB586YMcP06NVnqWUwMkIQcBIww6dMmbixunlZs2ZNvIik0pg0Q6bRmIGkiatcyFermSB6EBAhIDDG3JKQkPBS3X/CSqlwGgAo1YBmzHgurnnzE/+iMd/wFogROul5C/PCRnGx426++eYTkdJ55ZVXkmg5NhuyQ4Qg4KjDYVwTJkzYWZs8Lly4MDY+Pn6gMY5UEgNo2J803Y23Z2LVBX7kJ/2qagX2JCQkXK61AErVPw0AlGogf/7znzsC1us0HBTxqbhie1eM0xp22223VTlMbubMmYNAs9rQxEUYLfCJw2Eyx48f/15d5L2goKBpXFyTK4xBf2PxCkOTTPIyGraoRdU/gqcHJnFj69atX62LfCqlotMAQKkG8Oijj2bYMLMMmRT9qd+A5JeG0n/69OnVminvtddeuxk0L0YZ93/I4bCGjxs3rt5m3duzZ087j8fT2xjTm2QPkp2MsS4lzaU0aFXNgGBXQkKrviTt+sqnUkoDAKXOukce+eN3aMxfjTFO+trQ/UFApWYAmjvuuefuZ2uS/mu5uX8i+KMocwR87LDMqHHjxu2qr/uL5uOPP25cXl7eGUBLAPGWZcWLmHhjcJsxvCKsL8D1rVq1eu1s51Gpi4kGAEqdJY899ljsVydP/ZPgHabyk36k7fXfvmd6ak3n7Z8xY4bp3bvvy8bC9VGCgGOGGDt+/PgN9XWv1bF37yeJsXHuJww5LbwZwLLM/pYtW/YmWdaQeVTqQqarASp1FghAZ/G7NzU+/sVYAN6V++BdtC94O7BOngA25Ue1WbRnxowZNun5BkQWSeRVAuMFXLJo0aKRdXJztXDw4MGcmJiynRBMC1oZMLBKoG1L16NHj97dUPlT6mKgNQBKnUVLXcMGfhV3ycPHOnfud6xTl3bijI1c9W9M4b3f/XbamVxr4cKFsSdPnsqlMROjTBtcboh7xo4d+0xd3d/pFBcXd7Acjj8bmmsj9AWwSWMq+gLwM5LdW7VqFXHkg1LqzGgAoNRZNisnx2r+0YGfgvj5V4lt5ItLuzb+sl172DFxFQUi+LllWQVCbjIwKxMSmm+qzbz7Tz31lDMhIfEZGt4Sde0A8JENG9b9fMaMGfXW6a64uLgZyAcMeT9pGkcYEviuiH29w+H4L2n6BfUF+G3Lli0frK98KXUx0wBAqQayNPXKKw2sl0QkWUiUtGqNL9u2x9dt26O0VSJgTHBA8Jmx8JzT4Xjq9ttv31/Ta70+d97PDPEb7wx/EUcILLQsc2tWVtbRurzHzZs3O5s2bXo3yF8amtYRnvqFtP7TuHHcj1q1anXi8OHDg40xa0lavn4BJ0WkZ0JCwkd1mS+llAYASjWohWO7xzpPNP8NBT9AUJ8ccTpxqlUCShKSUNI6EaWt28DTqDGMoU2a1x0Wf3Lbbbe9X5Nrvf7GG1kWzPM0bB9l3v+DlmWuHTlyZLVnDYwmLy/PkZiYeB2N+YWh6RlpoiDC7DAG3+/UqdOK4HM/+eTI32hwn6noEPhsfHz8HWeaJ6VUKA0AlDoHLE/tnyIwL5DoHvpHycAfqbtxY5S2ao3SpLYoTWxbWp6Y+Gipbf9u+vTpJ8PTmzVrViMALW2HI94p0lLEtDQOxlPYwxjzAxrGhtUA+AOCMkP8X0FBwV9r0yRQVFTUxO227zCG36dhp4r0QyYHOkjiF126dHkp0lj/I0eONBHBFhr29AUBHssyg1u0aLG1pvlRSkWnAYBS54hlAwY0Z5w8Q3AaEFT0B/2VBv/BitOBsviEUnfz+EOlbdq5y9t2MO6WLZvQWC0NWTEbYNjUvNH6AoRNyFPocFi3ZWZmFlcn7+t37EiKddv3kriHhi2jTA/8maH1O8B+skePHqVVpXfkyJErAawjTZxveOCG+Pj4VJ0cSKm6owGAUueYlWmD7obI4yBi/Psq/aEyuG6ggsQ4Ud4qEe7WiShPbAtPYht4WiWAxopc4AeaASIFBOYkgIeaNWvy+MCBA8srXUuEmzZtyqBl3WHAHJJxURYFescy5vHGjRu/3LFjx1PV/RyOHDnyHZL/CCxvbMxdLVq0+E/1P0mlVFU0AFDqHLQybcAQgK8B6BTyR0ocJWgBaBGyO8JfMn0/JS4O5YlJ8LRuA7fvN1olAA4HIvUFCOsXAJJ7LMv8OD09/U0AKCgoaGeM4xvG4m2k6RFllUAPyXmA9Xjfvr3za/s5HPn881wDXOMLAj63LOuyZs2a1WlHRaUuVhoAKHWOWpyS0jLWKn8ZwBjvXypB4GMSORmrN61fm5qa4HaUd6ewj1B6ARgMYAiBWF8VQUD4H7pYFuyE1vAktoGd2BZ2YltImzZgo8ZRAwJjzDLSlJAYS2MckZcCtjaT8iqA16688soz7rl/9OjRZrbIRkP2Ig1g+O+WLVpMP9N0lVIaACh1TpuVk2MlfHLgTwb8ftDuMgi+7yrY9ET48WtTUhqVOz0pMBhBwTUEeoUcENKtILy7IWC3aAFpnQS7dRLQOgmS2AZIbAPGxFRVQ3DYGD5pWdbM/v37V6vPQE0cPXq0jwg2GMMmJG1jzNDmzZtvquvrKHWx0QBAqfNAftqg20A8CSDWX90vxH+afGV/e+CWLZXa5/1Wpw+9CvTcQMNbACRFLPijfAv4dwstIL4FkNQWSEwCEtsBSW1hktqATqdvBj/ON4bPiMiSSP0FztTRo0dzAL5mDElya/PmzYeQdNf1dZS6mGgAoNR5YnX6wGFCzgGQ6N9HcGlMKXOGbthQ5XS5hZmDU4QsRNDffPR+A76tKpoQAACGQKvWMEltgaS2YJt2sNq0PWYlJs6CM/alK6+8sqDaN1cNR48efZQ0PzSGAPDzFi1a/K4u01fqYqMBgFLnkTVpg7rahksIdAfg+wuWHR6accPzN3xY1bkFrqHPA/KNKgt+Vm4WiHRw5f1BoYNlga0TYeJbHbPf3/cUSk5us0X2tIpp+W6PRYuqHP5XFRFxHDt2bBlJF40ptYwZ0LRp06LapqfUxU4DAKXOM4WpqYlup/stAgOBwB/xQVs4KnP1hqht8AWjhrWj270XQCP/PgIg5AGbPAwiETbbkWwNIImQtvDWNiSCkSoMGLpVxbeJ7y0PnDGfOrr1aGHatCl3tO0oVtv24mzb4YQjvsWXpCk1hscBuC3LOg5jygzwtX+hJN9iSYkkJ/s6H25q1rRpqjYFKFU7GgAodR5akt3vksaljXIBGRvYSXwKYnR63sa3o51XOHzwnwH+IPSJn4+mrlz342jnFOUkx5w81riDG1ZXwnQl7K4CdoWNdjRoC6Br+DmR5i0Ifyf4GDa+BFbrRDjadYSzfUc4k5LgaH8pnO07wLKs4AmK4J8XwLeK4s+aNWv2SLS8K6Wi0wBAqfNUUXJyzP8SGv8X5PWBzn2C/xH2mGGrNkXsJV+YnZrIcvsgiDj/PgIfDc1YfylnoFaz7BVmpyY6RfrCZjJoXw5wAIi+AJzRCvyIIvQ5YEwsnO3aw9m2vTcwaN8Rse07IqZdR1ixMSBZSvKqpk2b7qpN3pW6mGkAoNR5bFZOjtXus4P/BXiTfx+JL2wgKz1vw5ZI56wdPvR5EN8IeQKnjBi6YkNeXeVrbUpKI0dT9KeNwaTJEIgLQHzFBUN+VUOlI8XRrPkXjpatjjKu0e6S3TvnENxpx5XsGrhgS6W1EZRSlWkAoNR5blZOjtX+8w+eg+CWoL/o/9FjslJXr9sWfnzhyNRBRuyKFf8IUPD00JXr766vPMoMmK1r0/oDMkIgEwGkArBCj4pSW1CzbykbwAEBdhrBLhjugGBXbLNju5Nzi8pqmX2lLkgaACh1AZAZMOtWDX1WIN8AAn/YR41BxtAVGypVj68bMXQDiMFBfQGONY0/0eZsFZJbx6a39njsSQQeJtAWQZmuiRqc4gZYDKKItr1TgCIbsvPLsti9w/PztROhuihpAKDUBUJmwKxdNeQlAjcEjdX7wLaslLRlhR8HH7shK+VWEflvaMM7Jw9dvnbe2cjrltEp3UHzTwiyox1T7S+n2nyLSWCrDMBuQHaR3CFAEeF5p//i9e/XIlWlzisaACh1ASnKSY45frTZAkCyAd8wP8p2xCBz6KKKyYLyXK64RlbpYQAtgobwvThk+bpb6zN/eS5XXLM4908h8gAQ0hERAMoFfJ6QuwL7iVkCfkLYcQI0BYwTkBYg4iFoJWArAzStaT6kilc+/wNkm4DbjHCb7XFv2xff8b1rc3M9Nb2WUucqDQCUusDkuVxN4kzJCngXB/JWBpBLHcfKJgRPG7xhZOpLoNwUdOrRg/EdkuqrkNsyJmU0xPwjMIlRMHKtZdvT/1cWs7d5XLlvyWCC4G39F695vqp0Nw8Y4ERC4wRj2e1hox3BDgK0NUAnAbqB6AZBUk3zK5W3vgbwjtiyDcRmC9x4RUrh7tqOnlCqoWkAoNQFaLNrQEK5ca4BcVlgTn/wv0NXrLuNvhJtfVbqNEJmA0Hz/lsmY8iSwjV1mZeN41xtnJ7yvwtwbWBnRaa+APCz/imF//YXpNvGpB0H0Mz3/m/7Lyl48EzzUORyNSmNdXcj0RMGyRAkA0gG0AMCR03SkqCfAE4AskmEG0hscJa7N/RdseHTM82vUmeDBgBKXaDWulK6G0s2AGwZ2Gnw8NBl634BAG9n97uk1L7kM/hnBiRB4I+Dlq19oK7ysHV06jSA/wKRULGXIAARvua2rPsHL8z/JPicbWPSiwHp7p3WgK9dtWjN9XWVn3BFOckx7hMtL7cNBpAygIIBAvQDEBMo4iO2EFSQ8IMEBwGsF2C9wKze36zN29p0oM5FGgAodQFblzU0i8JFBByBsfeU2wYvW/88AGzMSp0HyiR/oQxg96Bla/uc6XU3Zw1obqy4x0D4+hQw6KEfh0CZftWiwkWRzt0+Jq0QRKrv5ZYrFxUMPNP81ERRTnJM+ZfxgwG4aJApglQAjYGgYr6KoCAkIPD+OgFBAcjVFM8az9GyTVWt4KjU2aIBgFIXuI0jU78nlL/7XxMosY2dNnTphi0bRg27k5Cng78IjJEeA5as21vb620bk+YSyPMEO4W9JQSedbvjfjhw+fLj0c7fPjZtLoDJvpfHr1xU0KK2eakLRTnJMWVftRwEiItAJrxzGFwCnD4giBAMAMBJIdbDltUE8o6XxazVoYiqIWgAoNRFYENWyjMEbgfgmzGYB63ymIF0lLS2aQLzBPhW/PnewKVrH6/pNfJcrrjmjdy/oeD7AEzIm8RhCm+7cvGaJadLZ/vYjKdICUxK5BEkXrVozWc1zU992TxggNPRutEPQTwMhPYfkMCPyiS0mSB48wQgK0EudtjW0iuWrj5Q55lWKoIadX5RSp2frEZl99olMUMAJAOEATrZzrKX3m/RcXyXLz46BiI+6GlgBIAaBQBbRqd0N3TPhuCKwE7/VATEW7bwtv6Lq1mI0z4S/GzisEx3AOdEALBtQprL8vCXArjCinQAoasihgcD/kYQAQBW1AoQaAZwsggmu+nB5tHD3jPCxR6RJYwrydepjVV90RoApS4Sm7JTLxfBRgYtByyUH1vACAErVhUEv9jfvF1CdTuubRubPhkizwNo7j098MVSRuIn/RYWPMbTdqWrsGNc2vcEDGqykFv7Lix4sbrn14cdE9Jcts1fAciIeIC3tN8skIMAp0V+O9JplZoHwg8roWClB5hjWWb+uVQTos5/5vSHKKUuBIOWrt1pwB/4X5OAAX8L0tchjd7/EC26nPhwwOnSkxkw28ek/R4ic0A0J71p+gr/TyEYecXCgr/XpPAHAJs84p3ByPvPNqZbTc6vSzsnpF3xzvj0RWIzj0BGULYCBLIMgqwrFhUMAs0J/5M+wZ8L8SsIFhM4xvATEfjEQxINOyxOiHGG+I/tsQ9vHjUsb3N26r0bszM61ttNq4uGNgEodREZuKzwX5tGp46lYJJvV4wIJwRXXQMAxRoBYGPlFLzezs6+ZPv6ky+CmBKhGnGL5TFT+i5dfahWmbR5hEYCGaJEmDionm0b4+rssORhEftGAkbCb1IgBOaB8psr3ioIrLpogCFCb8FuyLlXvLVmt/dw8J0xw3rCcDCBdAEyRNDLf16geSC0acC/6T2GsAC4BHQZuP++OTt1EyBzScw+k06b6uKlAYBSFxnL5j02JRNAc3if+ENqAn3TB48E8Eik87dPSGnv8Zycb4Crwt8z5FtfXeLOSc0tOFXrDBpzBEGT60mkmQPrSfHYIc1KrLgHIfZ9AGICQUhQbgRYTNgP9V1YuDn43M1ZWc2B0sv8r8tt+dy/TUCwuPBdAO8CeBEAisa52pSjPENsZkAwAkTvaIGABCVE7wEU70yPg0Xw+03ZqetIvhDj4Gv93io4VpefibpwaR8ApS5CW7LT7gbkqcpV0oGNr+3PSuLDx6tvH5fWk4JlAlwaeh5ByqyyT0/dfKZj3N+ekppolTuCZ9M7evmbqxOinlAHZAbMzk0Z3yTxOyB02uCK9nvJN8Z6KHlBfkGkNN4Zn5YF4TLfS0/fwWtiajJN8NZxqZ2MzTEiHANipHftg9A+AiFtKVJ5EiIBSiBcYGi/cKIsdrEOL1RV0QBAqYuQANyanZoHMhMIKfh9vwhjMPSKhQUb/G9tH5vRH7AXA0isOJy+x1s8994lbe6qixnvZuXkWH1OfVqGoD5Kttgt6+vJdsf4jFRDPiaQaP0e9gjtH/ddUPBmlelMyJghIr/0vpJP+71V0Ka2eSrKSY5xf9UqzRbPGAHHANI3YhAAQMJ6GAa9/BQir3jEfn7oig3v1DYv6sKlAYBSF6lNY4b1MoIdBJwAAmPYKoIB+XH/RYWPAsC28RmptO2F8PX0D3RcA0Dh3D1NknLqcrrbogkZRwC09r8WcvDlC1Ztqqv0AeCd8WnxDsv6gwjuREgtf6AwPQrIjFOHTz5VnVqNHePT8wC6AICw11z+VkHkEQO18PZYVwcbZWNFOAaCLADNTlsbEBoprBXyMXO0ZI7OQqj8dBSAUhepQYsL3yXxL3+3cwYX/gAAkw4AW8cNG+gv/L1V/RWFvwBrv2pSflOdz3VPHkFgWAGBOu4HsHtixo0OY+2G4C6GPwiRbiH+VuYw3ZPfXPOP6hSYB1yuOJBDK/aY3XWZ3ysW5X/Yf9Hap69aXDitqWmWKMJJRvASAO8Sz4GbqLiVsFEHqRSZabeMfX9jduqDhdmpiVAXPe0EqNRFzHY6f23Kym8hGTLdrrfMlbSto9OusISLBdI8+KkfAAxQ7IiNmXRl7prad/iL7giAZP/lyLoJAHZPdnUWkadEkA0g8MAcdFvrxcN7Ll+4antN0j3V2B5MIC4oMNpV9Rm112PRolIACwAsyHO54lrElo0W8FohJhJoKlLRbZDwzr8cdJ/tRPCwE/LgpqyU12yax4csC+3MqC4eWgOg1EVs4IL8z2nw28COwAM3AKClMVgNoFXwU7/vwbJMKDf0nrviaH3ki+CRsH4JZxQACMA9k1zfgi3vUJAdGM9fMbD/mJD39B6waljywvwaFf4A4DEYEbLDsN4CgGDD8/NL+i9ZO++qJYU3lTazk0BOJTgT4Nf+YyoN8fT+jBXiVoq9aUNWytp1o4ZOkvCaEHXB0xoApS5yTdDs8a/w5f0k2oe/R7JZyOvAhvyiX9D497pGI0ck9Om81gHArnEjOu1x2P8BkBWpjCNkthuO7/adv+JTzK/dNQwxJrSTnuOsd7pLzV13CsBcAHPX5qQ0ch7neANcL8BEAjFhNQEQEKCAghQjnLcxK2XbBsGvB69YN6+mkzep85NGfEopbB+T/n1Q/uJ/HV7dH/JFQazuO2jN8JoMcaupPZNcDwrk4Yqry5He81clVXlSxHSG3w7afwVCAxmfz0F+57I38madSV7fnehKcEM+RaBGVfYmL1jd40zSrEubXa4EiSm/hWLfKWSfytMOS1AnQgAib5P49aDl6+dqIHBh0wBAKYW3s7MvEevk+wASohb+sp74SQAAIABJREFUFU0ANsB1AiywLPN68vz8Op+FbvfVrukQ/AuoaJKwyho177Fo0YnqnL8vJ6u5u9TzpFBuiPQ+BW8KnNMvm7/s4zPNa9Ek180UeREIlJbPJS9YdfuZplsftmSnDbBh3w3BjQCaAP5hg+FjCAARFJH448H4Di/XeSdPdU7QPgBKKVyxdOnXAB8/feFPADQAhhF4RGz7vZ0TMjbsHJ/xwK4JGXX21GsgRyoGAHiVO0qr1Qzw7tWZ6eVl5e+AckPw3P3ef3ICgpt7zc+fWBeFvzevGBPaP4Jr6yLd+jBgacGWQUvXTi9txHYgpsM/3TPDxxAAJJJF8N+ORz/cvnZkypizn1tV37QGQCkFACgandLSbTk+AhAXVuUfeYhZGG9nM+4AOceGZ07f+Wtq3Q6+Z9LwYaAEZtzz9mbndVVV10tOjvVe+dGHAHkQgBXhkI0GvLHHGyv31TZf4YpykmOs0oRPBWjhf3q2hL17LcjfU1fXqG9bRg7p5zGOuwGZDhEHUKkmwIuy0Db8YerSdefNvamqaQCglArYPj79JSO4CUBIr/+qCn+G/gg+ei8Ec8Qyc/rMy9tYk/bkXRMyeliWeS/k0sKf95qX97tIxxfnpLeWcutlgKMivC0A/nQi8cSDA/9dt5Pg7Jo0fDwhb1ZcBh9fNn9Vh/Oh7bzI5WrytaM8m5QJACYI0LpSfwAgfJKhcht8wlNq/Sq9QNccON/pKAClVICx8TSImyIW/pVmzAk89Ye+rnjRHcRPjNg/2TMp88PdNHMp9txesYmreZo25dhGMUfc5e6QFGkijwQonjIyRcrtWQA6RMjI5xTe1OONlUurul5tWZRrBP6nZIKChedy4b8xO6OjgXuCgJNOocxFIC7KyICQBYgggQ2ngdzHGPfN60cO+eUpT6OndL2B85fWACilAgTgjgnpuyHoFTIvYFjhX9E3IELhz7DX4QGE4DMA80nOMWVxK3wT21Ty3uThJQBig3K3pucb+SHT6743dcS9EHmUQEyEJLZY5LSuc1YejHy3Z6YoJyfGKvvsEwDx/n02ZGqfeavm1sf1amtTVlpXY9nXgMyBYGD4tMHBSwkEjQQIfY2gpgDvioj+N3cZ2PcOWblxZb3dgKo3WgOglAogIDuA/wIMVLVHrvKP+tRfueAPT4NoDeAOQO6wY08d3zM58y0DM6eJp8midgsWnAw68jMAHYIii0ANQFFOTkyM5/MnIHJHlFt5ztFcvt3l+byS6Hd7ZqzSz8eQiA8qJEuNuJfX1/VqYsvolO6kdQ0o18CWAQCD2vIR8oQfND1A2MM+dgE4CiA94nHeHX1smOXrRgz9D2PlR0MXbajWKA11btAaAKVUiLfHDOtlLGsPEFZwC58npRXIEQAuAU7/1B+9s2DYcd4Xp0BZTMEcB/BmObmCwFXBOTj5tbNp4+anGtPtfF18BVNYmmUU3Ndt7sp/1eima+HdycPfAORqf6loA8t7z8uP1AfhrNiRndHRY9k3CuQ6CPv790tQo37lJ/qQxYPKQK4mZIHY5s3SxvJZzEn7bQG6hJ4TSDUkQVtwiIZ3p65Yt7iu703VDw0AlFKV7BifsYtE7+B9BG9PfnPVc0U5yTE4lZhOY4+GYAyIvt73K34CVXUWjHQ0woOIMgBuAI1D9gpvoZGHAXSulGnimNBM7TF7eX41b7PWdk1Nb+uwHR9IoBZVQBv39JyfX++BR7DNWVnNHc6SaRTcLEQmfEO7g1cCDJ7sp+J1YNdnABYJZIHH8iwNfoLfNCrlSRF8K+icVQAGiaBxVc0HAnm+zC79/vD87V/U7d2quqZNAEqpSoyRuSIMBAAEAIM2AJCcW1QGFK0AsALAT4qnujqUl9ujQTOGQBaI0IWFQjZOW/D7xQCMAcKbD+SFyocCAPYZI+O75i5/t/p3WXtOj3WrEI6KanGWi8jss3HtzQMGOJ2JjcaQuFlQOgmgdxGioFKfrHgZVq0PADtJvEmxFxQ377Ah0iQ/m7KHjRKR6UFtBe+edMeOcTrLWzpFfiXAbYBYkZoPCH4zlrHZa0YM/Vb6yvUL6udTUHVBawCUUpUUjUsbIsasB4La/IV/T34z//6qzstzuRzt4jFUbIwBMIaQ/iB9E46xOgW/97gqvpkqvUUUumPsyb1ezf+8qrzVFZkxwxS/vXoPID2CHnvf6jkvb0J9XvftMcN6GYfjDoH9DQgSIz/RB1XpV7xZBjDfFnuBoefN/ovXv1/VddaPHdLMcls7AFzqmyVQYOgavHTtav8xG4cPS7aN/QdAxkfrROgLOl6KNe7vDly+5Xjt71zVF60BUEpVcuSkY0vrJvZXBJoESmN6awCq4hsSVuD79+DeKdmJbinLBjjWAKMAtPalVaOCP1Lg4OMWyDxnqbkEwFkJAPZuWz2eRnoAvo5wAEh5tT6utTYnpVHTkphrALkTNtIhwghP9L5MABT6g4CThCwS4RyPJ+6tgcuXV7sAttzmLwAuDdr1dHDhDwCD8wqLAExYP3LIcAgfA3B5aJYIQiCCm0s9jtS1I1JuSF25bmONPwBVr7QGQCkVUdGE9GWgyfK/JmRVnwWrXbVNT2bMMO+9s2YAYY8hMAaCIQCsaAV/eAfD4HcifXEJsNVQZrlt++Uec/I/rG0+T6d4yoh8AJlBS+t9XWZJm+Tc/K/q6hq7r87oKx5Mt4GbAG+TSminu9BOeL5fx4V4Ex57jttZsnjggi0nUUObR6eOF8EC74QAAICPHeUxyf3z86O2528eMMBZ3tz5AwC/ANC4Ui2AV7kI/m9Y/oY/n8vzJFxsNABQSkVUNDHzFwB+BQSe7PYkL1jVu+qzqu/g+LT4sjjnKNhmNCHXgGjmvxZCNrwvon5ZVe5saAskj4JnTppWryfn5pbVVZ73TR05SCAbgaBe9MQzPebk3Xmmaee5XI7EZjIFIt8BmAnfRSKPxQ+EACcofENsvGY1Pbrc2z+jdraOTW9tezw7ACT5ryPCaYOXF86pzvkbsgd3sd3mHwKMC85sWKfDt8TtvEVnETw3aACglIqoaGLGCIArggrko33mr0qo6+vsnTrimwCepr9JMmT+oehVA9X88vqEwNOwHU92nrPk8BllFMDeqcNnArzO/1oEMOTgbnNWbKptmkXjXG3okLsATIegPRA+FW+lIOAkgDdBzmzyFRd1yc+vk7kOtoweNk9EJvmvT+HcgcsKp9Y0nbUjUnIAeRxAUuQARvbZFqdmrNhQ67UiVN3QAEApFVHx2PTW5Q5zBID/m6K8z/xVkWbcq7V900b8VAS/Y1hZX6ngr1mhH3KcrwAqEeBZ2PLH2s4MWDxteLIRvg3ACirUtnafs3JAbdJ7d2LmIBu4H8Q18M1kWEWHujIAS0jMRJyZX5fNDQCwJTvtbkCeCiqujxthn6uWFdZqxcTV6emtHTHup2HbV0epwfhaRO5KX7WxXvpOqOrRAEApFdXuiZmfCpDo77QXd4KN6uKJU2bMMPveWf03AvcCCKn3J+ARQS6J6yN3FqzAqoYLRFYO4D+2Q37V9dUVn9bkxH3TRswFMNl7A4HC+u7uc1c+Xd00BGDxpOHjbMiP4R23X3lyHd+Bvl+bQL7gEMzstaB+RjlsG5XRwzaebQAuqWjW4D0DlxSe8ZwG61xD7xTKXwVoAl/SweMUbMrv0/M2/Vz7BTQMDQCUUlHtmpiZB8Ll/6JwWrFJ3ecuPXImaRaPHRtrGpe+CEEOgKCnewJAOcCbxcgNRnyFbYVyAM5aFPqRfAnBH6WJ+9Euz58+oDkwbfgQgVknAINK5/+VWHan6jyNF48dG+uJK7mJYv8Qwj7hpV3wrHwCHBIbL9kiL/Z9a/Xumt5YTeS5XI5mseUFAIYE8kEpGJCyNpMzYNfFNda6UroL7RcBDA1cA4A/4KEtr8d9bd86cEvNOy2qM2MaOgNKqXParopNQsTd9EwS25eT1ZxxJYshyAERmBzIV/iXkswxYq2xBCFj6gm6LUt6O8h+BO8HsBBAqT+JSv8Y9q/yMU1BPIyvHe+8n5M94rQZp/mdL9mK5gnKP05X+BePHdvs3cnDfyaxJQeM4BnA9IlSq1EC8GWKjOx91arOyW+u+r/6LvwBoEWsewZ9hT8AECiFyF11VfgDQGr+ur1l0ihdBI8i5Enf+ykIOe1UE2tVwbBh7erqmqp6tAZAKRXVrokZD5B8xPuKsAz693wjf3tt0tozaVQ7h8OziEC/sCp/ACgxlKmdZ69cdOCakT8DELQYEQHglc65y28KTq/4prHNYt1l40RwI8CxqOm8JsHT4BPPlzud9/d4eVGlxWz25wyfRDHzwua+P1ke4+kUbfKhopzRLWPcZfcB+J4ALSrPxe+tC7chu0g+7XHGvpCcu+R/Ncr/Gdo6Oi0LkCUATGA2P/KhqxYX/Ka+rrl2xOAc2+az8DUJhK1TcNBDz5jh+Vv21Nf1VSgNAJRSUe2e6PomKM/5vyosmMye81euPs1plRyY5rrMI2YxgU4RCv+vhebqbrOXrRCA708bWQyiW1BVv9i2XNn19RVRe40fyHG1cdB5qwDfQegkNhFI5QZn7479Arm5c+6Kdf7dH0+c2Lg09uQuAJ0Ch3mryR/vOnvl98KTKc5Jbw238wcEviOQQG1JWOe+U6CdC/DpXnPzC6rOa/3YMXJIUrnTuR2QNv4ymODG46WOYb7JnOrN6pFD+hgP5gDoFWE+g6M0Znx63voN9ZkH5aVNAEqpqAwk0FGOBDwGcTVNo3jKyBSPmAL6ClFfav7C/0uIjOs2e9kKAPjgmlEjwgp/AFhYVeEPAF1y8z/pOGvZHzseKe8G8gYQOyvV+4dc2/+fwC6A6Epw9fvXZv3Iv7s87tRDCMq3r8WiFDb+HJzi+1PT2+6bMvzPxuM8QOKnIJpGeL7aR8EPYiDtes1d9Y2GKvxlBozbGfMCUTGzI4GTHsqt9V34A0DGig27HI0wGIL5Ed5uJba9oiBz4Nj6zofSAEApVQU35ZPggszAY9Xk/OJpIyaSshxAKwDhw/m+oDC765yKGgUb9p3hnfwIPFLd6zE/333pa0tndrRbXAnhHRR8GN4vIDQgqBQIOCj40/vXZL1yMCd7gAA/qJQfwb/8Qwk/nDKy1f5pI//ooXMvyB/At0wyfNcDKBQsp81JPa7M7NljXt5fu7wRfVa9s2Hb+rSfAJIdslPkp4MWF56VhZQAYOiiDSeGDd8whZC/R3j7ElvMvPzMwTlnKz8XK20CUEpFtWdiRheh2Q94CzQxmNh7bv6b1Tl337Tht4vwKcC7al5Yb/+jtrFHd8/N2+I//sMpI1u5HfwIQKx/H4GCTrnL02ub/48nTmxsNyq9TygPAGge/n7E6XUr9rklqF+BeLuvn3Azprun9ERJbGzc98XGDwA0l6A6bG91Or4WyEtCPN7j9byi2ua/rm0bn5EKj70KvvsS70yGy/ovKhzdUEPxVmcO/j6BRxHUF8G3sJEbwDczV296uSHydTHQGgClVFQURxmAivWAPKzWd8Z7k0c8KML/oFLHPALAEQAjggt/ACg3vBWhhT+kBk//kbRbsOBkh1lLf++wHT0oqLRcb3BgguC6AO8vR/ATEkkI8A8nym6Ji4nbL4JfIRBUBI78lJD/c5SWdew+J+9b51Lh/874tHhj26+CQf+bCL+w4L69IcfhZ6za+FcA1wMIH47pAPDf/MxBt539XF0cNABQSkVlOR3lwa9Ju8omAMnJsYqnjnjCGDyM4PK1olw9bGy6IrXp0yAwn76v8H+nU+7yhWd6DwDQNnfRZx1mLcsBzU0kQnrb+5sHKl5Hn3bQgPeI4M8CJITd1wFQvhNjnerSbU7e7zu9dW7NdS8AbRvPSlgHSRr57hWLNtTbwknVlb5qYy7JUQDCm0csCv6Tlz74jNdaUJVpAKCUiupk2cmQAMCmifqdUTx2bOxe9+evQHBP5CPkkMBkdp67vNL49oPXjhoGoA9QUe4a8pG6fjLtOHPJK07afUgzv1L5zgib4WP2ifjQc2QnyG8cPOrp2W123hMdc9edqsv81pW3x6Z/F75ZDIPuZ27/RYXnTPV6Wv6GAhF7BICjYZ+7MZSn8tIH3dxgmbtAaQCglIoqxpKQXuG07YjfGQfHp8Uz7tQyANdGTkkOWMaZ2e31ZcWR37ZDn/AM9neUFrNqkeXTEof1FQVHwNAVB8KbA6KpGJwoj3TJXdmv6+zlL5yN3vO1tX1sRn8CfwrbfbisvOyuBslQFTJXb95mUbIAhM+vYAg8tzJ94LSGyNeFSgMApVRUtsM0CSkLxVRabrZ4qqtDaYxzjYDROusVi9uZ2Tl36YFIb+7LyWouYEjgQOGfmJvrqX3OIzt04+jBnnJsE4o34IgUBJxmu6JDBH988JoRv9589wBnXeezruyZNKwpKTMR1LcC3i52dw5ZsfFoQ+WrKsPyN20XsUbA21ckmMOAr6xMHzy+IfJ1IdIAQCkVFSWmaWjhJ6XBL4snDk8W4VoCyYFDQh+ed1soz+w+b+mhaNcwwI0AGgOBgvYTT+Py588w6yEkJ8f6+PrsBy2RAgA9wqr1Q4XXAkSvDLAEfLDl/1oU7Js2qkedZbYOlXjMkwB6huwk/t1/cWGd9K2oL5mr1+0wHkQKAmIMJHdFxqDUhsjXhUYDAKVUdGKHzP0vpqKn9rtTXGliYQ2AjlHOfgficHWes+ZwVZcgEFr9T/6tOgv0VNcnt2R3OWx9uQrEwwI4qyjQ99fyEoMJe+u+a7Km1vL8evHOuIzpFNwUtvs950nHjyKecI5JK9xURLHHAgifnrmRJbJgVcZVvRsiXxcSDQCUUlWQkADA4asBeHeyazKFS4GwTnF+xJZy4YjTrRx4MGf4AABXBe06XuZ0PHlmea5w+MbRt9oebgdlWFXZAHgzwDPpcNiEIrP3Tx35a5kxo8G/V3eMGzYQlSfZKRHa1yXnn371wnNFxpotW4VmMoCQmicBWoptFq9ISWnfQFm7IDT4/1GVUucwj7QNe13y3hTXtwDOBtAo8klcb3nsrN5zV5y2jdkW686Qfv7kE5EW5KmpgzeOj//ohtGvieC/EDQLGUxQsekG+ZcYT/nlEJkMSLczvCyF8tC+navnFt80ttkZplVrRaNTWgpMLkLb/SGCH/ZfuLZWCzk1JNeqDXkUuQlASJ8QAS61rPKFBcOGndEKlRczDQCUUtEZdgoun21YPxbBkwCs0FnbAla73SXZ1Znu9pNbsi8B5Mag+fdOeSw70tSwNXL4xtHDnVL+NiHXenMmvp8VBLKJsAd3eHXJD0uN4zYQ1wS9GdggZC6k0tj0KlEwyTpVmr9/0sikM72XmpIZMB6H4wUAnUMzxdz+iwueONv5qSsZaza/TsG3w/cL0K+Mpa/Oysmp0RTVyksDAKVUVCLoFPLwTLmhipH5q8ocMv6y+YVfViftkpP2dQAqnpRFnu366opPo59Rtc13D3B+dGP2DFtkuQAd/YV+yPS+gq9t8KftPS1S2s9cvu2D60cNBPin4EMC28SLl85aMfVU6alLQf4UwDFfPkMvHOHzEKC/OOx1e3Nc3Wt7P7Wxc1PazwCE95LfX14Wc84N+aupzIJN/xbiDxHeGt/q8PuR9qvT0ABAKRWVEYmytG5oqUfIIkdzGZOcW/32ZaHcEfTSDVp/jnrwaRzOGdunzfFWG2HjlxAYBJf+FVHAXNvj7tVx5pI/MDfXc2CyqwUFs+CrKg9dFwAb7UbuuwHgsvmFX3aatewPHqCLCP4gQGAoZGitQsWG95LsAo9ZtXeK6/La3ldNFI3NGAHwV2G7Sw3s6wYuX378bOShvrlWb/o/AJXWoiDkh3nDBt4R4RRVBQ0AlFJRCXnadnGCb5Q5Wk+uSc/94mnDkwWoGMolMjPaPAFV5g/gR9dlfddjeTaDuDJSuS/AB4Bc3X7m0qkdc1d+5D/PEet4DkCX4MR8d/QJxTM1/H665S4/3mX28p/aYi4X4K2IuamsncDkFU8bnhzpzbqyfcKI9raFVwUIVIX7gpD7+i4s3Fyf1z6bCNgny8xNFNkFhH7iNvDEyrQBQxooa+clDQCUUhG9nZ19CSBVVmELMOt44vFrk3NzK00QVBVDK3jon7g9Vo2rcA/kuNp8eN2ot2zwcRFp5K2aD6n09wD4a4ynLLn9zGUha89/dF3WfQAnw39GRUlSZhv3NH+gEEm315cVd529YoLQvhqCw/40ELIRIgE2lu+bMrJnxHfP0OYBA5yWuF+DIDF4vwDPXblw9VP1cc2GNG7DhhMeG5NAVHQy9X7uMSJ4ZeGQIQ3WAfN8owGAUiqimJjSfvA9UQY3ewdVlb/Y05lw48B/bymvfHZ0B77piqPILYHOg8Sb3ecu3VmTND7IGTXJMs53AIwNzpeI/59sNsLBHWYu/UFiWLPEoeuzhwj4h7B7ASCwie90nrlybXXy0DU3b36Mjb4imBlc8oc0C1RcoI0H9oo9EzO6oI7FJTV+BMCwwJW9v7Y0P2lV6jR3PisYNqzp6vQhfVZkDMg2lkknsCHCYV3jHO7ztrPj2RZ9Sgyl1EVt16TMewg84f+aCF0xD//p2d81nTNm2DVNd9+0ETcQfMWfkIEM6zy7eoXuJ7dkX1JeZv9FhHcHZ6Yia/IlwIc62C3+EWkq4UM5o1vC2FsFoZ0bAYENPNF51vLv1PR+AGD/NSNyxMbTAJpHCQD8wcZe8UhKrwX54XPd18rOienTxGYuAPpHO8DGUQc9A/osXHuwLq5xthSmpiZKjKerx7a7UdDVNuhKQXsA7UXQEUBTwHeXIbEOgkaieH/akJRRhVvXn907OP84Tn+IUuoi1d/7SxBSxAL/7DUv/17Oy6/txDl3BVIUrO78evUK/w+uGzmopNR+iUBP7xA9BjLk+/J/wzid93Z4eVHE5W0F4CHaz0PQKXivr9Fg1ectjt1fy/tB19krc/fmuLaJx8wmcAUQsfAHgO60OLd47NisHosWlUZOrXp2j0vr6RY+i8BHCQDwkOaGPgvXnJOFf55rQEKMMX1sMZdR0AOCrkLpBkFXG+6mIgB9kSbDR1vUAIWpADQAOA0NAJRSkQnSJOjpWgSAkb9c9saqH9V2md69Oa7usOHyFryERXnktNnIybEO8osHbFtmEPAuvFPxvAsCh0Dce+lry+dVlc6ha7N+CGBixZk+xMFY25lT06aMcN1z8/ceyklJKfE0+icFt0X7iARIQ8ypZwS4pbaf4+aJAxp7xOR6JznypQqANh/ou2jVstrdQd1Z5xraWSxeRkgf2LhMRC4Toje8/SGClluIdvs1/lj+B8qnFPkIMBvtUnmmtnm/mGgTgFKqkqJxrja05GMwuOafAsoaA7MCBvN6zc17u6bpFk8Z8XtD/NS39u72rq+vuKqqQvDA9a7O9DheBJAWvN+XJw+M/OPUqZKHTjf3wAfXj0wXmysR/NDjvepJsZHW+fXl22p6L1UpnjL8+wAeBWCC+xkE9xSg4MGe8/J/W5v0d07MeB6Cb1Q8JAsEfLbfW6vP6lC4tSkpjawmJtn2eK40QD+hXAFBPwFbVGQtNOAK7U8SuTo/LEj7VAT7QNlLG/ttykcU86kN+4hlzMdfX3LsyLhFe8+oNuVipQGAUqqSnRMzbzBAoJ2e/g1U9AUQyC4L5qnyGHm2OuP/N989wNni8+YfAGhDAGJ4Q/fZK2ZGO37/tJE3k/gHgOYMbegHgK2EubtT7tItp7vu/htGJllubgXQLni/t7+g3NAld8Vrp0ujNvZOdk22DV+C4JLQQk78//VAZNRl81fl1STdnRMy7wLk3yEFqcgq65L/ZSfnFtVoNEZNrB87pBlsxwDLYw8UylUivAJATxH/0ENBxGCnegHAJwLsEshegvtg2/soZq/b8fW+4flF583aBecbDQCUUpXsmpT5bwi8s8eFlL2VOwQa4JhNPhLbQh6rai6AvVNHTAEwx/+ym9Xqskgd9Q5MdrWwHdaTBrg+/D0CXwn4UGfGPx7p3HCSk2MdxLFlAIZXepP4TedZyx86XRpnYs8010Dj4VsAEsMKf79PPOXon7ww/5PqpLdrYvpVtrAQQFzQ0/8+R0zMkOqsvVBdmycOaCwlzv4CDiQ4EIJBQvSAiPHdBYJuByE/qw4A/ic2dsJIkUB2ClAUa7hzyIqNdZZ3VX3aB0ApVYkIRgEVvcsq+gKEdggEABuIp8gfyr7A3e9OcX2z19z8gihp3lUROPDRSAV48TVZLhF5geKdyjcs+Jjvdpjvdp+59FB17+MDHPsNIhX+kLmd+qT/Elhe3aRq5bLX8zfvmTQ8gwbLEHnZ5DbGIS/LjBmjTjei4p3xafEinI2Qwh/HAU4808J/+7i0nm63pBBIESAFpZLs7aLhfV+CuhmGPM2Hb1fsKAewQ4CtJIqMzZ3lnvKijDVbqlwaWp1dWgOglAqxa2L6VQKzBQjurBX8q3ItQGAvxRaYGb3eyPtNcNv+vpysS223Zz8AizCHpSSmS3Av+KKcnJg4+fxhCH8EwDDoq0mAjywj93bOXTm3JvdxcNqIiULOk8rfc++cpGdYTaYtPlO7J7s6G2AZBN0jV4fLD3vPX/WXaOcLwKIJGfMATAwqaMshHN93Yc06/W2eOKCx8cQOhNukguIt8IHW3qf5oF4K4XM/VK69gHg/3FIBdgD2FtjYCmBL04SvdtRnc4SqGxoAKKVCFI3P+A2In/tL+OoGAaHHmZc+/sK+bXh+vhsA3p06YoYR+SUACPCTnnPzAgvwvDclq7eh/TL9ww4r0vQQ/GdZecmD1V1gyO/gtKyuNrEZkPjQd+QzOOzBXWbmv1+T9OrCrqnpbY3HWgngMiD4iVkA4JTYckWfN1cXRzq3aGLGT0XweyBQMAsgt/Z9a81Lp7vu5qys5pZVmgYjGRRk2JABEO9oitPMWYCQY7wHlNjEOxRugW1v9RhuiTlWtnNZthT1AAAgAElEQVTgljMbQaEahgYASqkQOydk7ALQ21u48xSALwnfNLOn6Q8QHAQI+EovZ8KtAFBc/vl+EJcS+MLjKbv0svmFXwrAvVOH30PwUQCNgtMgsE3A6d3mrNhU0/wf+KYrDl9bhRBc5d/nK8TKAGR1nb1iTU3TrCt7Jo1qR5avEqB7hAK3oPeAVZmcgZCmgJ3jM4eTskwAy/9UTvKBy99c9cdI19g80ZVguT1pBsgU2JkC9oOvo17wk3zFa/+uiE//e21gHYn1tGXdV+7YHf6gTp3/NABQSgUUXZ3eRzwsAvxV+lzYZ8CqiTu3uq6yYF8N4T0gWlUVBFScC0DwCGhWE7LQd+Bve85d+eD+SSOT3MZ+lsQ4hI41/ErIX3541PNYbQua/dNG/Btg5eVvBXd2nbOiwceHF03MutTQvQqQzkCltvPv9FmwKjCV7Z5Jw9q5bWsrgKTAccRjfd9cfZ//mOKxQ5qdNLEuCEYC9ggRJCPou/20w+4Cx9hfE9wskLUiZr3lMOuuWrTms7q6b3Xu0QBAKRWwc0LG74H/Z++846sssv//+cxz00MggAhIETEIhE7oLQlNAoiKZHVd2ypiQf26NnR/62arZXft4OJaUdc1iCggRXqvIi0UQVBQaVIEQtp95vz+uCXPvUmAJDcJhHn7ekFm7jwz57lqzpkzZ87BOH+HYFybL5b4C/Vsv6ZXDVtcD5B4gvAloTmjESAAdwNoTuC0Ylgz0e5uouRNv1fB/wCnK0uNbT553t6yyr/n+tTbhXwnuF+Al5tPmV/mTH+h5puhva+wLWuJAJcBcCrlo8rlatFq6vwjC5OTXZfE6gUA+gD+8/bJJ6ILbos7Hd5dIP1F0F8gSfAFdJfuHP9bCFZCuEqLvcLs7i8+jAFgMBgAAAuTk111Y/ReEg18fRrs2W7G4pXBY7el9W4hLusTAm09PWfxBAAg+DZE8kGO8TT9Y34UwUMtPls4pTzy7x7Zv51AVgKIDvroy71H9NDzTbltG9G3rQiXQFALKNyRU2R86xlLxm4e3vefFDwC+BW5DWC5QLoAiDqrGz/gQ2gR2SSQxUqsRQr2ivZfrjhUcW9nuBAwBoDBYAAAbBnWb7iITAP8ijw7d392fEkBXuuGd46OYey7AEZ5es5gBAAA5QSg4hx9mpAJyIv6fcKsWSfKI/u3owbUhK3XAkgI+ugbV15+96ZfLDtWnvkriqyh/fpQYY74YiA8d+bdAP4E4M8ISokvQVo/0I3vbMEGsEELFlvEIiosa3eefgeGqsMYAAaDAQCwaWifzwiO8LWVwheJ05cMO9Mz6+7uHBZzIHaaAFcH3Rk4ozcA4AaAY676bMGa8sotAL8dmfoJBNcHfXRcWdL9iskLd5R3jYok65p+oyDIDM6YBwS68EvMtOcZ6BZiPSGLta0W56n8pd1nrS6XUWWo/phEQAaDAeuv6dUQNoZ6SvR4tLQt+OhszyW98VXBxkGDbgiLyFsgRFcWOrI9Z9YOI8CrvLIVkPHjL/JSyqKFIXHJf3t9/99By/VB2xlbKDeer8p/36geUSdzIwYL5HoIhpdB+RdAsI6UxQIsjgiT5aW9KmkwGAPAYDDAVWA9CIrLV2WPYLYVpc5YXc9HWGRBMgSNissYWHhtzTdafjlx6amXUz7/KiTKf+d1/XuI6Gf8S/ogH02YsnBOKNYIFeuGd46Okdj+Qow6kYtrAakBoEiufG+Xs+VT/rshnAel5xXkRX6ZNG/eL5UjuaG6YgwAg+EiZ+OgQTHCnNH+bK8eI+Czs2XK+/ra5Frhtjwnou8GAtMGe9qB3gBPDgE2jD0Qey2AyeWVe/c1/S91Q0/2lwj2IsB7LT5d8FJ55w8Fm4b2jne51HBqDhMgTYiYINf9mZT/zwQWasg8l+g5rWeu+L4yZDZcPBgDwGC42HHl3gWgtldHe4wA0R+e6ZHNQ/sMpa3/A0ED3/Y+4HkAQtgU3gXK7wC0hXhMApIPoJwGwMLkZFeBZX9E4WVBCnRZQVjdu8szd3nJSkuub7lwrYaMBJAMDZegyJm956/AR3MhWC7AXFEyt13npRuCkwIZDKHEBAEaDBcxC5OTXbWj3d8AbObrI/BN265LWxWnfNYNGFAzIjLvRYJ3OMYHR/iBgAjlrsRpS97OGtGntRK1Fv7reYTS7HDVjIUbyyr3jhHJz4Ac5/wFJsD3FsO6Xjn1y0q/3rY1LbUpLH0dKCMB9ASgnNq9pF0/ic0iMpfamptjnVySNP2r05UmtOGix3gADIaLmPhI+0YRNAME9O3kBS8Vp/w3D+87CHb+mxA2RtHgPm/OH7834P8Spy15GwASP1+6Neuafi8TeBLwjLOVjAFwX1lk3n5NyjWgPBF4652nQIyoTOW/7br+LaDt6yEyErA7izP8wUsxu/5jAs4BZJYqkLmt5yw11fEMVYYxAAyGi5TMUaMsnNr//3xtEQHJo7CjJjnHrRveOTpMYp4RLQ/QayUUDe7zHgGIAMLfJ36x+BXnHMpy/Uvc7rEAanhjBK4V4H4W8YKfma3XpzaFrd8WCfA5iBB3tpxado/CuZI1PCWRkGGkHg7b3QsITMRTzI8AZDcEMyhqukQfXtLGVMkznCeYIwCD4SJl/dW97iT5ZsAvAeKvHWYu+4OvuWFovxQl+m0AlxdXDdD3o68l4DNtZyx+qrj1tl7T93UI7/E/ZqmkVp8t/Opc5d2TnByZWxMr/FUDfQj+0HLaor+e6zylQQB+c21qFxF9vYiMBHClt98/IGg8AORDsIRKZtgFrhltZy34tiJkMxjKi/EAGAwXIVmjEsPzT/IPvrzw3p38Sbflehnw3gwIy3mWou/3O/YLg/sAR74Af255Ja+2nb6kWOUPALZWHyvKPYDXYHDbwwCcswGQVwOvQtBRvBN4V//4qmmL/nauc5wLMmqUtS3vSC+KPXIHcZ1ouzEQ7M4PegY4BOALgfrCxfwvW043d/IN5z/GADAYLkJyT8SPVkRTX1sEoMLLSdMX/bzh6t69NU+/S43mzgh/wBHl788X4O0VeafN9KUP4Qy0SVq0ZOtX/Q4BqCcARHE4PClvz8q24cm3C+Uuf4fHCtlwSmr8trTHCMWx7u7OYTH7Y1JAjtyed2gEgUuFJe/0vV1fC+UL0prRuuPCtSZi33ChYY4ADIaLjHUDOtdUVuQ3IOr5a/IIjouWRFh8RBH/B0D5xtPp40fQLw3Pw5nboxv8On3yZPtsa28Z1m8yITd4nqWEu/WlCWcpObv9mj7tNNQq+PLle5Y9DMWurT5b9N3Z37h49iQnR+bF6UEaHAlgOIB4/4fFKHy6XLbr0gY78n/c+4rbrb5oP2vRD2Vd22A4HzAeAIPhIoOuyD9CUM8btec9AlAraGEBgKuKpvD1+PhZjDdABDMKDub8Jv2rsyt/z8N6uZAeA0CEeQqdAJSYsW/7Nb1qaFGZcCh/AAUQpreaVnrlnzUqORa5Oo3kyBxIGoSxZxrPqGip0bUna/Toi9hOXS0VGXkpyYmlXddgOB8xBoDBcBGxblCPlhCMDUjaQ0Cg0+jY2xdm7oOjTwK8AULMj8u2RjUroVpgcSjheu30JvDMBoAW10QBrgrqfqT1jEWLznXNTUN7x7uohhMcKbkyCGBkCcF7AAArJlZqdOvNGj37IrZjFzIsINFgbRGJJJl7rusbDOcrxgAwGC4iBOpFX+rcwvrz3s/o0fqFafsDAgS9XV5vANQq12l1bbNFi0qlCJXL3mXblt+4ELJjSWOzhvcdIyI3eYT0eh+ISW2mLX71bOtsu65/HSkoGApylACDBAg/U6CAVSMOsUndEdcrGbGdupCusJKGEsClAExaXsMFjzEADIaLhLUDe11DyNUidF6iLxAgrNAb4D0SOKM3QL7WEWpI4qwz1woojqumLd+/ZWjfbIg3J75Ip+LGZaUldxDRhfn8PdnzVkW6Y0pM87t5RN/GSvM6ACO1290LpFV0VGE5PVeteNTo0RdxPfshum0H0CpmePE0gDEADNUAYwAYDBcBy67pVYO58pqn5a33J4CAT5NyswBtgGBvgMMQ8F31I7YK1OBOny06XhY5CMgmyC4C7T0mBa/YOaRbXIKjdv3OId3i8pTOBBDpeHB/GO2RCTNm5Tnny7om+Uqx9UgQ18NGF/GXIioeV+06HqXfqx9iEtuDSp1peEk0LMtDBsP5hjEADIaLgIgc/XeBJ4WvL5RPgFW7azb8x5UnforyGQBFC/oE+AO+FbcM7DR32Rmj9s8GBbuEaO8zKXLDwi8HsMn3ea6KmABBguORAi38VZsvlv8EAFnDeyWKtoYBGC5a9zrbXSZXnUtQo3tv1OiVjOhWiaCy/AGNZaRBeR42GM4XjAFgMFRz1gzq0RNCT959b7leAjmieHv65Mn2moE9p1rk047NPgBnkKBAgH1E2IBOcxf9VF55BPg2IG1ugb4MXgNg49De9wnk5qBsg/cqYc6WYX2fgeB6rdHCOVlxuC6phxq9klGjRx9EJbQESI/S99c7kHM1AvIBhAf1GQPAUC0wBoDBUI3ZOWRIxDH38f8IoAKC+0Se6vLlih0A0HXuig3rBvXYA1HNAhLse4dTcNAiBrafXfY7904E8mNg5UDVCAA2Du/TiTZeAAqzDQI4KcAfSLtpoLIvqrxVjTjE9uiD2N6p3p2+AklnzkLP+mdW/ocArAGwDMA8ABEAlgeNMQaAoVpgDACDoRpzrODY/wPY2rOL9+6rBQuTeq98BfMcA8mpEPmdJzCP/sh/AkeFalD72Ut3hE4q/hjU0WjdgAE1YedlChDhPIIAUINADX+X04oBwIhIxHTtidheyYhu1wl0hXlkL6xsCNJ/sFF4xFHIjwAWAVgCYAnJ7c4PRSQKgBuBvytNDIChWmAMAIOhmrImtUdP8ZXgLazZe9ii+k2RtLW2mgqlf+dpCLw3BU7a1EO6zF6+CaFE9I+FSYQJgI3CIvLehKC5V8oiOPU+XWGIat8J0b36ISapO1REpMO9H6zsg1S+yH6QywDMI7mcZNaZRCWZIyLb4Y2R8FKn1O9sMJyHGAPAYKiGLOvVq4ZQvw/AAgrz/Yjwjk7zlhc5x+/ce9mKdSt6HSCkvqdHTtsiw7t+uXJNqGVTtvWjbXnsD/H8kw6NWMARbhi0TRcA4Vdehdg+KYjp0ReqRhwIBuQoKLK992z/d8Pjwl/mdrvnRkVF7SmDyOsRaADUKsMcBsN5hzEADIZqiCtSXhHgCjjS+grwUrd5K74o9oEMCAbqrwUcAiJfUUZ2/XLl4oqQza3c9QHl1NX+dLziuKcPAK669RDdOxkxvVMR1qAh6Avm8wYn+nf7ha5+AZApIlNFZElMTMz+EIi8AcCtjrYxAAzVAmMAGAzVjBWpPa4D9O2eFr3KkV/Fxv8yrrjxq/p3u3Stst4gMASALZq3dJ63YnYoZdo4qG8zsXQ6BLcL0NKfV8CHI9EQw8IR2TEJ0b2SEdkhyXttr3BokXP9wDZFcAOJBiQb5+TkTCnjrt/JzqC2MQAM1QJTDdBgqEYsT+3ZVEGvB1HbEWd/XNvo0nPRyl3B49cM6J4OcAKAOiA1gNu6zl3xQShk2TiobzOt7BtF8CsQ7Qs/YdFfPFSISGyLqF4piOrSHSo83BupT++u31eMiELyOxLNCj9HoWeA3qiCwrYQWKqUeicsLOwTkqXOXigirQBsDeqOJZld2rkMhvMJYwAYDNWEmUOGRMTnHVsKoIu/k3ATktZ9/uq5zrFLh/aOD8+zxwO4yTMMIpT7us1d9e/yyLB+YK+GopAO4EYA3QrFCMLboeLrILpPKqJ7p8Cqd6n/XL9QmRdpf1u7dvyVx48f7yzkrQq8kUS9EpR/QJvkSQDvhIWF/ZPkvnN9JxGJBJANR4lkAI3IIrcZDIYLCmMAGAzVhBUpPV4D5X7A4U4Xub/7wtUTnONW9e82EFBvE2jkHyjyRLf5q54vy7qSAbVuZfdUwrobgmvhqy1Qwm8XpRTCWiYiqt9ARHTqCuWySlL2RdpKcXJ8fHy6f22RsJMnTw6BUndTMISE8hsAwd4B+H/OJ/mhZVl/PFdDQET2Amjs6GpzthsEBsP5jjEADIZqwLKU7ukK8jEAZ/m+13ouWPWAr7GiR48oK0b+KILHACjf//4Uyei2YNWfSrvm+oG9GmrILSDuAXB50RGOfH4ErEvrI7Jbb0T0ToGrdl2/a79Q2Qe3izUGxtWuXfu54uTJyclp6na771JK3QmwQaDyL9YYyCH5olLqOZInipvTh4isBNDd0dWbZHCCIIPhgsIEARoMFzhL+3dtQS3/KczcJxDh3HxEPuwbszKlezdQJmmNFs56AABfLo3ylwyodcu6p4LW3TbkOgCuwNzBAVUDwbAwhLXrjMi+qYho1QZQyhEBUFiUyJd3WARfE+wYeJ2vcFIRWV+SbFFRUd8D+IOI/Dk7O/smpazHASQWHzToeQTAU1rrW0VkNMkzBT4eC2qbQEDDBY/xABgMFzDrBnSumeN2rVREK0f39nzJ65GyaMPxrFGJ4b8cjc2A8HF6cwL4IGVit/mr72WJGfWd6/RuomnfBcFvQVzmncHxZyBW42aI6NMPkV16QcXEFLvTdwT5HVWKH9q2/XajRo02HDhw8DiJmsUEAWrLsurWqlUrWBkXi4jwdF7eUCUyjmSvs8QJCMk3ATxcXHCfiHwI4NeOrhtJfnwuchgM5yvGA2AwXKBkjhpl5R7e+xGBViJ+V/t+bemhKfM2HF/Rt0fbX37WkwB0gEPLexX2B936rL6P88+s/Nf079lFE4/YsEdCPL8v6H/Cs6g/q190NCKSeiCidzKsJpd7lGzJewytgZUKnETigwYNGpwu/Eh+BFizmJx+W89V+QMepQ5gBoAZubm5AwD8AyIdirlT6PtaRgPoJiIjSH4XNF3wusEFggyGCw5jABgMFygNDn3/vBBDfPtwERxVWg3eX7fJ98tT+LjA/jPACMBzLOAZRggwNU9H3lEkHbAXyYBatbj7MCo+oiF9i2TTdYylAFbjpghPGYDwTt2hIiIK9avTte919VNhr4h+17b1O82aNfuuhFf7SYDWhXl9PAl9FbCiLN8TAERGRs4Tkc4FBQW3APgLgMbBRYG87XYAVonItSRXOaY4HjRlRFllMRjOF4wBYDBcgCzr2/U2AX7nL+8rchrkCFJOXnb4+/kC9mNxSlvL3F+iat+UNmuWO3jOmUOGRNTKPf6rVUtlHBVaOX0GfvvB94flQli7jgjvlQxXq0S/a7/Yc30wXwFfkpjUuHHjqSSLrB3EyYBzf3jsAIGUK+iOnjwH74nI5Pz8/KeVUo/Clyo50Bi4FMA8EUkjuaSE6YwHwHDBYwwAg+ECY1lyt95a5A1HgZwcoYwA2doWPQtgLAA4Nv0+lkTUcF+bNn1WnnO+Vf27Xaqh7mfesXtB1PVn6fMH9RXu+VkzHmG9+iG8VzJUzVqeMcUoa297s5BvRYSFfdCoUaMjpXhF52z+v7TWZfYABExOngYwLj8//zOl1JsiSCymOnAMgOkiMojkahT9XWkMAMMFjzEADIYLiKW9u7bQWqaCCPeq5RyCY0TwMEXSxLvrdobniQAiWEO3a1jS9NX+s/alA7pcoTSf1FpuASUiKEbA7wAQAFbzBIT1TUVYu86gywWSnr290KGuBRSeoMJHSvHtK664okyFhLQGlfK6/v1H9PJDvXr1imQyLA/h4eGrRKSzbdsvAbynmCFxAKaJSBKAsODHQymLwVAVGAPAYLhAWNKn4yWaMgNAXXo0fR7IjwXyAoC6AAqVdqAhsDncJWndFi8/CQDLBnRuQtv1CGwZAzDCs2sPiBHw/OhywerQBWHJA2E1buKIlfM7+n2iiUCWUfBmbI3YTxo2bOgI6Cs9pCif38ERBLioPHOWvBbzANzrdrtXkXxdRKIY6A6oB+ATeAoCOTExAIYLHmMAGAwXAAuTE2NFu2YCSAD8VfNOUHC702EO+I/ePX3EjjALA7vNX3NkeWrPplrs38ON2wUICwiA8z0rAtapC1evZLi69YKKifVuwX3BBgGxffupMElEv92qZatvQvi68YVHCT5PgCwK4fxFcLlc74nIRhGZBaB+0MddAWctAwDGA2CoBhgDwGA4z8kcNcrige8+FCAJCDjTv0S8B/YEg0/OAWCfUq7BeQUF4Uv7dXtZa/fdBCKdRwPO+Xh5c4T1TYXVrqO3Ap9vF16o/AFogSyg4I3TOac/S0pKKgj1+wpQzxFH4DFORBaGep1gSG4QkX4A5gNoFPRx8I4/+EjAYLjgMAaAwXAeIwAXH9zzBsBr/H1Fg/u85+8A4Nuly09QuEXb9uOKvBOQCJ8ed8YIMDwCKqk7XL2ToS6t7wjzd0jgPOcXPbZtm7avV9wbAxDULXRjEAT21bv00t0VuqYXkt94jYAFAJqeYaj53Wm44DH/ERsM5zELeyU9R43f+lzhAapZgo0Az58UaIDboTFHIJ48AIGDgJo1YfVMhtWjNxgdU7jbLzmi33fu/3RWVtbHiYmJRyvifbOyssIBxDuS/wBSMef/JUFyt4gMAbAKnkDA4rArUSSDoUIwBoDBcJ6yoE+XpyHyGACfH9y7GXcmr/H8HWQIKEBSAz0C3nH1G8DqmQyV1A0Mc6FIrr2gNsl1AJIcdkB9rfFPAL8N/RsDcXFxTX0uB58BQlXx7v9gSG4TkVsBTEXx2Y7PlsvAYDjvUWcfYjAYKpv5PTs/AJE/AUGJ+sWTtEaCMvh6r/ohaKhnnAjY9ApYt46G66FxYLeegMsKuOYH/+X/gPbanJyc/gIccH4O4vasrKz+IXxdP5ZlXeGXwfuH1npRRax1Nkh+DuCdEj42HgDDBY8xAAyG84z5vTrfBeJl8WhwAD5l7sCTGe/MhoBlgR27QD34BNSYB8FWbSB0RtYBAmSXoPw1ibHdu3c/IZC/BC1OEUxct25ddMhe2ovW+opC5Q8A+L5+/fp7Qr3O2RCR1iIyBcAdJQwxHgDDBY85AjAYziPm9066CSL/hi+Uz5dWFwh05QOOq37i7fMq9/BwoHNXoHcKWLuOf+7C63sCEMsBNZ5gS4g8XbT8Lt/p0KHDGgCwCwr+o8Ii/g9AgiP5T/PIyOjXAdwW0i9AqSud9wxJVanufxG5XGudISK/IWmdYajxABgueIwHwGA4T5jfo/Mo0TJJxFm217HPF2evo+ltSGQE0KMP+PCTwLDrwfjafneAd+xp0fKm1qpj9+7de8fGRk8R0aOd03jHHwP0k75+z1U//ZQ4PAUAAMqtWVnb7g7V+3uWlzYOaSrN/S8il7rd7le01jvgMWrOpPwB4wEwVAOMB8BgOA/4skfnUUL8F97/J4sG9/mMAAbc1BMAiIkFu/YEevUFIqMgLFKEdxfB17XtfqdPnz7+srYnT578Faka+OYpDAKUJzt16nzYOUH79u0/2bhp0+cARhSOBwB5eevWretat269PgRfAyho76wAiApOACQitfLz8x9zu90PkYwJrhDoGwagAIHJf4wHwHDBYwwAg6GK+bJHx5sIeV/gcTkHX/UDSjAE4mtD+qQAnZIAV1iw0tcQzKLC+F69es7xVsILgOTDnhkDkv0s7NSp0xvFyemyrHtsW/cWoI5jfKQIJ2/atCmpXbt2x4p77lzZvfvgpYD7Ur9Mgt0NGzb8vjxzloSIRObl5T2Qn58/jmRtb19weWAhOR1ABoB/w5MR0IfxABgueIwBYDBUIXO7d0oXYBIAy++up7OUj4cAQ6BWPKRPCqRTV0+gH+lMCnCUwNuKeL1Pn94lJs9ZsWJNfxHp6E8g6LECTgMymqQU90xiYuKBjRu3jCXlI2dyIFCucLnCP9+3b9/gxo0b55T1u7Asdztn3AMVFpV1rpIQEZWbm/ub3Ny8v5BoUtgfeJUSwAySGSS/8j4XnPEwDwbDBY4xAAyGKmJO9043C/EeACswuK8EQ+CSerD7pgBtOoKKgM/V7wnaWy/C8RERYR/17NnzHJSw/qO/nI9f+/H3SUmdvz3TU+3bt/nf5s2bRwC40bO0LyhQ+pw8mf2RiIwkWSb3OGm3Fyh/8iEJcfrfU6dODcrJyXkeYHs6Mhx5Xt/fnmnbKiM8nGuDHs8Pap8IpWwGQ1VgDACDoQqY3b1TOoB3RWAVOdNHoCGg612qpWc/Je07glRgYUGePAg+Edjj+/cfsPJc116+fHUqKX3gW8NjaKxMSur0yrk8r7W+SymrpUA6MNATMGL79u2vAyhTYCDJdoUtgdahOf/Pzs7uKCLPkRxYUsIjEcwBkBEWFraqhGmCDYCToZDNYKhKjAFgMFQys7p6zvwBWIXBboFp+AWA1K2Xp5MHREirREWlvOfTAgH3KXAiIW8OGND/YGnXJ+WPQYrwtFL8bXFxAsXRvn377K1bt15ri6yF4BLA77gHwNHbtu042bJli0dLOkooCQHaOzbmOxs1avRDaZ4P5tixY00ty/qL1vpmksoTVxDk6xeZoyzrz2FhYStKOb3xABgueIwBYDBUInO6dbxBAM9VP3/CW8BpCKBmzZM6eUAN3bZjBBR9gWkiWhYK1PjISNe0lJSUMgWhLVu2LEUgfemo6yvEY0lJSdtLM0/r1q2/37Rp6w1UMleAcEccAUj87ptvvokVkXvP1ajIysoKh6Cl40xjUenerJDjx4/HA3iKVGMBRPo/cHr9RWaIWH+Njg5fc47TBv+uNAaA4YLHGAAGQyUxu1vHkRr4iL7/73zX6n2GQGTUcXfKgBjdqWsNUvnS+J8kMMl2q/HDhg3cVp71RYTLVqx81nnuL8DM7l26lKm6X7t2rZds3rz5JlJ9DKHLWTQIwrt37NgZu3DhwtvOxViJiYlJBBDu8yWI5pLSyrNnz57I+Pj4sQCeAhgfqPEBUjTAz0TkrzExMV+Xcvrg35XmCMBwwWMMAIOhEpjVpf31Io9+PvsAACAASURBVPIRSFfAOT8AcbkOu5MH0U7qWpeW5XWlyzYC490FBZNGjBgREmWzdMWKXymwq0P5H1KQ35bWVe+kbdu2n27ZsuVWkO8DsByZAkHi1w0vu+ySrKysG89ePVB1DLgBQH2uO3OIiDp27NivAfxVRJoCRFCQnyYlUwR/i42N3VLGVzUeAEO1o7gqVwaDIYTM6tL+eiH/ByDMH9dPAFRH3F26/Wz3G3AVwlwgCYIgOX3YsLQR5VHMwcycOTOiRlytbYQ0Iz3HCiSu6dGjx/RQzL9ly7bbqOQtkpb3HbxGAEFwF4kRCQkJW0t6fu/eva8BuN9zs4FHGzW6rO65vP+RI0cGAngeQAfPmr7vECDpBvkRgb/HxcWV6ogjGBHZAKC9oyuaZJmvPBoM5wMmFbDBUIFM79r+OoFH+QP+BLe5iI79R84jT8a6UwdfJa7grLP67VAqfwCIqVFjLCDN/CuAE0Ol/AGgTZtW7xG4AYLTgD9dke+FrwSwcteuXb8q6XkR6ViY7phrz/b+hw4d6nDo0KE5WsuXItLB/6jnjwIAb4lIy5pxcbeWV/l7iXf8XGCUv6E6YAwAg6GC+KJr+2FK+D8BwgoL92Cem2yX88DDH8JyRQRU8/NU+MvPycmZF0o5lixZcgnB3zvqAuzIjol6JJRrAEDr1q0/A6Q/gMO+heD9QYA4Efxv165dk3bu3BnnfE5ELAHa+8aTUqL7/8CBA80OHjz4vgBfARzkqF8I0cgD5HUACbVq1bqrVq1aZ8xpUEqcBkC5Mh4aDOcLxgAwGCqAmZ3apUIwGZBwABDgqBaMSVu9YdDw1Rt2ilg1i1H+AGRTenr6qdBKw+cgEu9dpoCQWwa3b58d2jU8tG7depXWdk8INvv6ggoZ3UKlNu3evfsaX8f333/fAoIY32g3sDp43kOHDtXfv//AqwC2C/AbSMDvrhwIXgF089q1a98XHx8f0vTBIhImIrGOrgOhnN9gqCqMAWAwhJgvOrfrphU/E0GkAALK+1pbVw1bu+ENX0VfEanpf8CpIcldoZRl8eLFPUXkdv8KxJ969eoVnOUupCQmJu7Kzj7VncS7wRUEva/aVASf7969Z9r333/fGkAn36cCIMKy/B6APXv21Prhh5/+5nbbuwAZCyDc4Vk4BeCftm03q1u3zkN169b9sYJeKR6B8VKlzr1gMJyPmFsABkMI+aJz27aanEmgBgQ7lZZ70tZvWhA8TpQOC7iLD6+G0QiZAZCZmWmJYDzpz667bP+PPz4bqvnPRFJS0mkAd2z/5pslELwMoEZhsiAPAhluaz2U4D5Hbp49DRo0OPzTTz9F27b9AJV6goD/Sp/3PU6J6FdtW7/QsGHDnyvhdeKD2sYDYKgWGA+AwRAipnfokKChvoQgSsA/qV+y2xan/L348+U7jwJEEDL3dd169e4H0MHbPCHavjU9Pb1Sy9i2bNHiHa3tdiLak9ffERfg/UsBaFpY5VDW7927917btneBfBZSqHwFyIbwea3tZvXr13+qkpQ/YAwAQzXFeAAMhhDwWZc2jUXruYBsJ3Dv8HWbzxZ5bnvy5Th2xQKIkpCUmZ0/f35TCv7q9y4QD/Tr229PKOYuLa1atfpORPrv2rXrHgB/B6SW776/L/NfYZvXARjpLQfs+/w0wH8r8rn69S89VNny27ZdWynlLBdsjgAM1QLjATAYysmn7drVU7b6gMTTw7/anDr8q7Mqf1iAu/ggQATfCSw1njL2aiKAGp4VmNmvT59J5Z23PJCUhISE1y1LtRRgkvOeYGCQoChHOweQl/LDwpo3bNjwkfr161e68vfSUEScbeMBMFQLjAfAYCgHmZ0711SSfzMZPnL4uq/O2SXtdvOosvw60L/dVcJyG+ULFiy6jcRg7wb6B0vhnvLOGSq01kLPNboCAOFBO32fJyBfgImAfrZx4yY/VaW8ACBko6CMacYAMFQLjAFgMJSDmgUF7sGbNr9Y2ucsSx+UYoIAReSS8sizcOHC+lrLC+LJhqe1jdv6JPep8nvrWVlZsVZ4+P1a5CmCcZ6SxoFBgQ7ClIKcOHGyss74zwhFGgdUEDQGgKGaYI4ADIZyMHjTpjLdp7dt2+/ODjgKgFxVHnlsW78h3qA1Cl/o379fSUGIlcK6deuit2/f/oTL5fqeIs9C4E0C5Pd+nPT94HD9U0QerBEXt3Tv3r3NK13oojTy/eA9CihXmWKD4XzBGAAGQxWQnp6eQ+Dn4DgAAC3KOufcuXNHAxjubW7Mycn+f+UQsVxs3769xrZt28bFxMTuAfisALUd5/wiwGyIpJF41qH8C7yf+9pdSa7/4YcfbqmKd/AhIo28fwPAEZK/VKU8BkOoMAaAwVBFaEFhZTpvEKAArRcuXFjqo7n58+c3B/iCV8fmEnJzWlpaXsiEPUc2bdoUn5WV9bRt6+9E8AyAeo5kQCdJvGbbdquEK68ccuWVV84SkU6+nb8IniIxToA8h10UJ8CkH3748ct9+/YlVPb7AADJRo4YwCq5SWEwVATGADAYqghCPAZAYNmbuGPHTvYqzTyZmZmWbev3BIj1zvdEampqVojEPCc2btxYb/PmrL9Rqe9E8CcAtT2iCCD4EZAnXC6rcUJCwgMtW7bcAXhuKwjQ038aIGpR06ZNn1NkEsCvHccEADBQKbVp//79f9y5c2dEZb2XiMQJEOevOSCyu7LWNhgqGmMAGAxnQEQoIhVSNlsEW4IuwwECWBbTSjNPzZrx4wTo5Z10Tv/+Ka+GVNAzsGnTppYbNmyaSKrvBfIUAH+hH4FsIXCH1vYVLVu2fL558+YBrvM9e/a0BdDA2zy+d++3GwCgSZMmWw4fPthNRP4sKDwWABCpRTJiYmK37t+//1YRKfeVybORn5/fGIFXAI0BYKg2GAPAYCiBSZMmxQCeO+wVMb+IvRQIDgIERPQ152p0zJkzp69AMrzNn23bfUdFyetkw4YNKV9v2DBda9lK4m4BIuF39XMRiaGtW7Vq16pVq3cTExPzi5vDrfXgwt2/np2SkuJPgpSUlFTQtGnTPxJIArAKCCiZcAWA9w4cPLhl//5D6SJSYb/HLMtqEtRljgAM1QZjABgMxTBhwltXARWn/AEgPT19q4gU3nMvjANoOW3atMFne37OnDn1tOAjeK/zEnLP1Vdfvb+i5N25c2fE+vXrb/nqq6/Xa5EFEAyD9xo/IDaEkwHp0qZN65TWrVvPPOt3pzHK84MAwPTihjRu3HhTo0aX9dLkWIgv+M4fJNiSlI8PHTq04cChQ3fu27cvKiQv6hRRa78BICLQWhsPgKHaYPIAGAwOMjMzraNHj6aS7uW33nrn6QpfkFwAT3nbgLTAIupxALNLeiwjI0Nprd8HVUPvA58MHDRoSkWIuHr16mZKWWN++eXEb0FeQgog9NXHOw3R75DqhXbt2pyzcty1a9eVIugCAALkEPiipLEkNYDxe/funepyuV4W4AZn8iCAbSl4MyIi4rnDhw+/5XK5JoSqJLCINCEJEYAEXC6XMQAM1QbjATAYvLzzzjuRh48evaF27doLxowZU/HKHwChpwdVzPU2dMrnn39eYjBg165dnxRwkHf8EctSY0Mpl4io1atXD1u9eu0XpNoF4AkAlxTKh8MAM9zugqYdOnQY265du1IpRtuWWzxTCUTj0+D4gOJo0qTJTw0bNhwlmqmAbPQH5hUOqQPgcbdtf/vzz0fmHzlyZPSJEyfqlEauYEg2caziBrCvPPMZDOcTFRLcZDBcaLz44ou1wsMj73C51GtjxowpqKx1MzMzo5Ry7QdRkyQIegrOECC5Iz8vt2N6enqO85mZM2f2E3A+ScvjMeAtQ4YM+iAU8qxevbqZbcstSvEOkJd7RPHJRJD4FqJeAOx3vSV/S83ChQtdl13W6DsQl5GEIgc0b958fmnmEBFr//79d1GpvxC8xCOeV0ZPFkRfu4BQ85TCpyIyLz4+/rvSrJOfn78YQF9vEaAdYWFhLUvzvMFwPmMMAMNFz6uvvtpQKddDtl3w9IMPPljpd+c/+WTKmyDv9BkAXuUPr3J85Zprhj/kGztnzpx6Bbb9NcGG9OTTnZGWdvXwM81/NlatWhVXoPUNCuo2QvrQszgClb9aqyj/2L1796flLSm8Y8eO60h+Cs/7fde8efPmXjd/qdmz51it6Oj8JwGMBRkdpPyDjQEQ3EVinlJqvsvlWhMVFbX3TPPn5eXtIXm599/HFJfLdUOZXtpgOA8xMQCGi5rXXnuthUD9C9A3VYXyBwCt+a6ycGdx5YE15IHPP5+xdsSIYR9kZGSoggL3ByAbegoH4BSg7y3LmuvWrQvLzc0dIMJbCtz2tSSjAA2QcByvayrMsIkXe3TpvChErwsAj/qKAAn4blmVPwA0axZ/HMAThw8ffklr+b0Ao0lnkSH/2/iKLl0J8EoRuaegwI2TJ0/+THK9UuprrblJKdkjIt/FxMTsFxErPz//Mt9aIrKlGBEMhgsW4wEwXLS88NpriS7hVEUZNnbs2G+qUpZPPpmyHGRP384/wBOgWKCAMYC6DMRfCo8KZFxaWtpz57rG9OnromPisq9WwutIDCUZD/96jl0yeQyCtyyLE7p16xbSa2/bt29PBTnf61nQtu1q3qpVs+9CNf/+/fsvtywrg1Q3k3T5d/8OT8A5tnNJ7CXZwve5Ukx3uVyTQyWrwVDVGA+A4aLkX6+91sLSMpeUe8aOfaBKlb8H61lATwNQWBrQh0aYEG+DoukvHSjfnDp16qxVCBcuXFhXaw5RSq4TnhpMYbTvs8Kdvvh2/psV+Fp4mOuDsp7vnw0Bfu/blJOYFkrlDwANGjT4DsDt+/cfywgLs38H8E4Bop1fp2f5wi+5hHYkwBbOz21bGw+AoVphPACGi44XX3zxcirXUpLTH3pw7H1VLQ/gyTg45dOpGwi2cwQBBgcF+s+0lWJaWlrarOB55s2bV0dr3RdQyVRMIdmG3u0tHbt9RztHEVO0Vm/27dtzcUW+47Zt23qCXO57J6XYMyEhYWVFrnnixIm6BQUFY0neT7JuCXEBQe1CT4A3+A8k88LCwmJJus+8osFw4WA8AIaLimcmTIiXfPcXBMK0XfBUVcvjg6R8+umnD4tgvsARBwDPVbmANjE9LS1t1vTp06OVimhN6o602IFAb9vWbUgq/3DfBXYEtgl8JZC3tNv9Ud+UlOOV8Y5C+nf/Ilhc0cofAOLi4n4GkCEizxw7dux6gneD0s//pRQbJ+CQufDr22GUv6G6YTwAhouGjIyM8LiateeQSIbCbx5+8MEPq1qmYD759NOPCaYXdyPA0f6GZA2CDTzH0wzwDpTcxs8APwKst1JT+2yszPfaunVrd4Ar6AEk0q666qoiHozK4MSJE1dprX9LqhtIXHGOcQH/DQ8Pv7kq5DUYKgqTCMhw0RAbV+tlQJIFsuL/Hnjgv1UtT3G4lHoUYG5QeYCARPgAWkDQIKCKgPfzom3ZD8EEiO7/88+H66emJj9Y2crfU1AJL8J/uUA2tmjRosQshxVNXFzcjlq1aj1Rs2Zcc6VUBwB/EmA9IP4dfnCKISHN+b+h2mGOAAwXBf944YU7CNwDAND4Z2UUzDlXMjMzrwSsVCr2d9s6hWCkJyjP6/r3uc3hzH7rOBgo0uZ3AvmMxJTly5avyMjIKPM1u1CwdevWXwPs7hFVQMHz58v3HxsbuxHARniOCWJyc3OTNDCOIlc7j07EttdXmZAGQwVhDABDteef//xna4ia4PGgy7eXNWo4rSrlef/9KQ2scHd/BaSCKhVgU/j1oe9o+ixxAHCe38kPArVSQRYocv6gQQN2VsZ7nAvr1q2LFsGzLDRgtrZs2fLjqpYrmGPHjtXKzs6+XSl1DwRXBcYBiERERKytOukMhorBGACGas3EiRPDTpzKft9zrQuwoV4ubya70vLhhx/Gi6hkWkilsD/obuWJO6MnGU5Q8p9StL8npHdaWtoPlfk+pSEiIuJxAI08LYFo9RTJSv3+z8Tx48eTlFL3krwRQLTW4t34+4oyASR2kTxalXIaDBWBMQAM1ZpfTmY/SaATKBChDV3wUUWvOXHixOiIiJjeSqE/yFQt6EiKBU1vEb1Cn35hUT2U0D6jMdBUCwcDeKui36ksbN68uTHAxwC/6395YmLLz6taLhEJO3HixEgRPEyia2E/QMeNAF9bBGuqSlaDoSIxBoCh2vL88883h8iT8JVzBdY8+uijP4d6nYkTJ4a5XFHdaCGVkP4kuxMS7lHVwcq+xPZRIVYC0ohg+yLJgIpPawsQz8+ZM2f64MGDD4X6vULAeADRHuVPgBhXlcIcO3aslojcffz48bEgGxc9Uik+ORBJ4/43VEuMAWCotgjUSwQiRcR7lQshuXaWkZGhGjVq1F6EqVTsT6g+oI71b99L3Nn7lb0IZQeAlSCXK8jKUaNu2LZo0SLryJGjux3DziUIsHZBgX4BwG9C8W6hYtOmTb8WwXAUfg/TEhMTl1WFLIcOHbpSKddDWuvbScYG1wkIsq02CfCTMwhQa208AIZqiTEADNWSvz//fC8Aw5yZXEgpswEwYcJbV1mWO5VUqUKmaGEd+jfjPrd8ifvI0xSsJblcNFe67fCVt912/ZHgNT7+5JNhCmzMgDkBABsFyCMc7moUGhgkbp45c+aXaWlpk8r6fqFk48aN9UT4MnxGjyibCpWedOngwYM9lVKPAbwG0CpQ2Qco/3yB/hTg+Bo1aizLzs4e75imICoqakNly24wVAbGADBUSxT45yA1ap84cWLTuT7/yiv/aWRZdiqI/opMBe1GAv9RQqEC8dsXAdv0fRBZLsRKiqxo3LjxhpSUlLNmkaPIfQCLVgQU/B6wtlhh9noIahcXFwDw9S+++OLroUOHbj73b6liEMEroNT1XkmEQP6dmNgmq3LWFh48eHAYycdB9nae6xdTIfAHAhMtS70ZGxt7wDFNu8L5uJlkTmXIbjBUNiYToKHa8cwz/+pIpdcDATnd9zz26O+uKOmZ1157rY7WTAGYqhRSQVzlPf/1HR8guO3JzMcCkl8rYqUIV2jtWjF69G9KHZX/v//9r4VSru3wJMpzZv5bNvL66/oAwOeffz5UwOn+bHpFM/99A+guaWlpJ8r41ZWbr7/++lpSTYX3+yF50LbdLTt27Fih6YazsrLCa9eufRPAx0gkFmbyc+T597QFkAVKqQm1atWaFpzeV0SYnZ19jGRNgFCKr0dFRZ0X9SIMhlBjPACGagfpvl+ksJALAIiWXc4x48ePj83P130ApFJJf7ct7Uko/331ksPzf4bISoArbSXLabvXjRkzJgSV81wP+GvyOYIERdHvOh8xYsQXn02b9v8A/K2EZEAtQE7OzMwcnp6enl9+mUrH+vXrLwE4wbnJJvFYRSr/w4cP18jLyxtNqodF0Chgtw/AcQzzC8FJInpC3bp1t5c03/Hjx5uGhYXV9D0lgqUVJbvBUNUYD4ChWvHCCy9E5eYVHCIZ66zmBvIti9YkQPcHmUqyG8mwYqrjOdua5DZCVgqt5RRr5X333bkj1DJ/9NFHDZVyfQsiMrACIGfeMPK6ocHjP/98+lskfwuHpyDQE6AyV69ecVNlZgAUEa5fv2E6FYeycPe/uF27tikVkfVv9+7dl7pc4Q8qhXtBxp+hwt9mISdQ5IN69eqdOtu8J0+eHAnyE8/XSZBsFB0d/WOo5TcYzgeMB8BQrcjNLRgMItbfUVj97k6BvrOIxSsC8Sl94BQgazS4XAlWFhTkrnz44YcrvFIeaT0pkMigzH82RT9Z3PgDBxrcU7/h/iYEBxSOd1rzOr1r955HAdxbcVIH8tVXGx6kwlCHt6RARN8fauW/b9++K7WWR0jeTkqkgMXdjswHZSqpJtSrV29JaeYXke6+oksisjMmJsYof0O1xRgAhuqFQpqzkE5QytzghLrfCblCASsVZfnRo0c2Z2RkVGrJ1w8+mNJIYN8VnPxHgW/ccMMNxQYtjhmTVDBnzpxr8woK5kDQq2hQIEDIPbPnzJFVK1eOrWhPwNq1azuC8pxnffquML7YsUOHkAX+ffvtt0mWZT1u2/p6kpb/36XjbqSAPypgostlvXnJJZfsL9tK7O77r4bk4lDJbzCcjxgDwFC9EPbx13Lz3v/3ki8a66GwUoHL3QXWyieeeOCnKpPTCy33OACRgcmBeCw/P/zpMz03ePDg7JkzZ6bZtswD0AVAMcmCeG/Pnj3rZGZm3lJRMQFZWVmxp3Ny/gcgAoXn/ttPnz6dEYr5d+/ePQjA4yD7O29cOJS/ALJQU01o1KDB58FBfaVBRMJOnjzZuTAToBgDwFCtMTEAhmrDs88+W1MLj8F3U89xrg/hgCeeeGR+FYsYwPvvZ15pufQWkhHeGwUgAUX14KhRI189lzlmzJgRL+Bsgl2DbgQ44gIwNzcneuSIEb1Phvod1q5d9x7IWx1n5m5tqd5J7duvLuucCxcudF12WZNRloXHAXZw3CjwnvEDBE+QnKS1PeHyyy/fFop3+eWXX7qSXO2LI7CUahIdHb0vFHMbDOcjqqoFMBhChZtMQDFGrYhAKR1XBSKdEVr2S/DtnAF4PRdbjx79+d/nOsewYcOOhYe5Ukn5MvCwXRwnIRwYFZWzbt68ea3LLbSDtWvXjhXgVjhWEsHzZVX+O3fujNixY8etjRo1yiLlvyLo4Jzbu8IOAuO0tps2adL4gVApfwAQkYGAd0WR3Ub5G6o7xgAwVBuUjSZFOsV3HKBqVrY8Z+K///3vcAL+CH+vuhZN3D9mzJiC0sw1ePDg7Ojo6BEEPvNOFqg2RSBACy1Y+eWCBdeEQHysWbOmnxa84FxMgM1xcbF/Lu1cO3bsqLtjx44/aq1/APmeCFr4ZvR8KygAkAlI8uWXX96yadOmzzVr1qwigjMHepc15/+GiwJjABiqE0WUvE8RCnWtSpalRN55551ILXgJQKCyFrx906hRi8oyZ0pKSm529qkbCLzq3PsHbaDjaOvP5s+f/0xmZmZ4WdYBgOXLlzcVwWQAYQ7lXyDavi0hISHvXOfZtm3b5du2bXtFa/lOBBkC1A0S/ScCGZalml5xRbNfNWvWrMKU8qFDh2JJ9hCvxQFgUUWtZTCcLxgDwFBtIBHlbIs4XdOMr3SBSsAVHv4EgCsKlb8AwEGl8Hh55k1PT7fT0oY8COFYAG7f9jnwhAHUgnG169RZtWDBgsTSrrFu3bpo5XJNFeASv3fFs8pTXbp0+fpc5tiyZUv7LVlZH2otO0XwAIAYCXRbLAIk/Zfjxy9v3rz5ny6//PIyRvSfOxEREf1EEO47ACA5t6LXNBiqGmMAGKoNGiwxIx9FJ1SmLCUxadKkNtB4Mkj5g5D/S09PPxqKNYYOvXq8aAwn5Xig8ncaA+wognXzFiz4XWZmpnUu84oICwrcb0PQEU7jCvi8S+fO/zrb81u2bEnZtGnLLAG+huDX8N5C8ir/kwBfV4ptWrRISElISJiclJRUqqOQ8qC1HuT7WUQ2xMTEVLjRYTBUNcYAMFQbFPhLcf0iAg2WercbajIzM8NBTgIQ4VT+EMy88cYb/xfKtYYOvXq21joJwEbfIsUECUYS/FfdS+qtWrBgQeezzbly5crnBfhVQNAfsCc/IvyOkhL+ZGZmWl9v2jRq06ZNa7SWBSCuRkCSZdkGkbEul9WoZcsW9yUkJFRK0aBgSA70G2Pk7KqQwWCobIwBYKg2aC3fF+317bBxVUZGRpXmvTidm/s0wI6BvTxOyj0VsV5aWtq3kRHh3Ql5KzgoEIHtJKXUmgWLlkyaN29eneLmWr58+X0CPuoZ7+/OE22P6tOu3bHg8du3b6/x1YYNdye0aLGVWjJF0MVv9Ag0wBkkBrZu1SqxdevW4xMSEqqsgNGRI0caiUgrR1eZy0YbDBcSJhGQodrgcslOW0PDYdgWJo9BRHhs7JUASiwEU5FMmjSpm4BPODL1wZv8Z+xNv76pwq6bpaSk5AK4a/aXX64C8CIEsYVVi+H/grRAkXKLyxU2eNGiJRki9n98JYyXL19+o4CvOsd7c+U91L1796+c661evbGZy6UfyD6dcyeJOO+lfS9yAKL+Y2v3xA4dOpxPKXYd7n/8EhdXY1VVCmMwVBYmEZChWvH3Z57bCEc9dwCOZEC4e9y4x/5T2TKNz8yMjcnJ/YpgC1+yH2/Rnsm/+c1N6ZUlx+zZs69UynofZPfiiwg5iukobqfIOACnqKyZJMODPn+hR7duj/jmXrt2bS9APUziWpIWHPORXEZivMvl+jQxMbHSqxSejWPHjn0CYKQn/S+m1KpV64aqlslgqAyMB8BQvRBZDLJd0W4BiGEAKtUAEBG+O2nS2xC2CNz5ywFlSaXWmb/66qt3LVy4sE9Bgf0UgD+A4gosJ+zwDGi0BPkZSBuA5XSlgJjcvWvXxzZu3BiTk5N/MxXuFUGHgFK8ItlU/FBra3znzm2LrWlwPnDgwIEYERniM1gAmPN/w0WD8QAYqhV/+9tzKVRYENzv3Ylm5+Zk183IyMitLHneevfdR5Twn4XlhuHNYs9ht95688zKkiOY+fPnd9WC90m2KKkksn+372yDy0h5kLTuIHEryJqO8r8AuYOQ1wG8m5SUVGxQ5vnEkSNHbgA52ecN0Vo3rlOnzg9VLZfBUBmYIEBDtSIhodkSQEo6X46JjI1NqSxZ3n777X4Eng2Imff8/VJVKn8A6N+//xptuzsJ+O+AhAkAnPf7g9viOdf/CpAHBKjpDeqzSXwGyKCkzp1aJSUlvXwhKH8A0MANviuSADYb5W+4mDAGgKFakZ6ebhOcWOIAW26tDDnee++9ywT8GNp3zOa/jbA2MjJiXGXIcDYGDx6cPbB/yr0k/lGcsi+uTZF28NYcBGBD5FnLUld06dLlui5duswt6Trg+ci+ffuiLGft9QAAIABJREFUKBjqeNvPqlIeg6GyMQaAodrhcqmJAE4F93s3utc///zz9Sty/UmTJsW43fZUCC4Nuu9/HJBfVVRp3tIwd+7cmnPnzh87b978LVq8GQgL0/p6fzizMQARC1CdAVRawp5QEhUVNRhArKNralXJYjBUBcYAMFQ7HnvssUMQvubsc3i5wwXq0YpaOzMz08rLd39UeO/dJwCgKaNvvfXWPRW19rkwe/bsTnPmzH1DhD8C8qoAiT75gtIG/+zvBorLHeD7YaDb1htWr179axG5oGKKRHCDIx/jd/Hx8eeUythgqC4YA8BQLcnPD3sOwIHiPhORe1944YXLKmLdY7+cfBkiwwPO/QUQ4Su/ve22TypizbMxY8aM+FmzZt03a9actaD6CsRoQGKKyQz4PcFnFdFORMYXN1eQD8DXrgfww7Vr1y1YvXp9+4p6j1Cyc+fOCECGAf7s/2b3b7joMNcADdWSjIyHjz/zzHOPCvBB4CcCgNEFBfoFAL8K5ZpvvPHmo4Dc779a571Up4GldkFOhXkdiiMzM9OKjq4xQCncDvBaASJ9t/iCrvQdhujJVOq/KSnJK3xn+IsWLX4jOFlQ0RxGCL5CmExlf7127dqpSqk/de7c+by9/lerVq2BAGp6riwCVGIMAMNFxwXlsjMYSsvfn3nuvwBuAnzX2ByJgRSue+LRR0MS+PX6G2/cqMAPASr/dT9Psp0ftXZ3Hj169MFQrHM2pk2blkhaN4O4hWSjosl+CBKnQPUZLP43XKm5vox/PpYuXRrvtvVhklbAdUCoMUqJAHwaZKMzXhckBcQCinpt9+6d09PT0+3KeP9z5eDBgx8qpX7tSf7Dg3Xq1L6MnpwHBsNFgzEADNWajIyM2PCI6LWAtAQKlb/XGDjistjxkUceKVcq3gkTJ16rwEyCYUH3/fNEmDx69B0Vmlp26tSpl5OuG0ncRKJdkLL3Ked8ArMBfuR2508bPnx4iZUTFyxYnE6Fj4OU+/fRUZEJSUlJBQsXLowMD4+6H5BxSrFusPIvNBj87f0ApwBqcseObZeR1BX5fZyNQ4cOxQI4ADCGJJTif+rUqXN3VcpkMFQFxgAwVHv+9rd/tKHSqwFEO5Q/SEKRG7V293niiSdOlmXuCRPeGEIlnxEMD1L+EKXuvvvOOyok8+CUKVMaKOUaqSE3KbIHQXoUL5zKPw/EPMKaYln4/Oqrrz6ncsMLFi6eTWBwoOdA7uvbt+/rznGrVq2KE5EHQeteQhoGKP/A5ECOttoPYIpS+OTIkSPLg70PlcHBgwdvBvmBz0CyLCutdu3apgCQ4aLDGACGi4Jnnnn+JoF8QFIBQZ4AwfzTp2OvycgYU+KuuDhee+3f/ZWFGQQjg5U/yVdGj77zoVC+Q2ZmZhNa1vUKHAmwJwhVmLnPr/xzQM5WUFMiI8NmDBw4sFQJeb5cvDjBpWWHZyrfTp4/ZmefbJ6WlpZX3DPr1q0LKyjQ1yslY0HVu2TlX6R9iuRyKC6G1ovz8vLWJiUlVfiVwoMHD84EOMR7TPNL3bp165Gs8quZBkNlYwwAw0XD/2fvzOPjqsr///mcO0laSumWZu69MwmhtGwBBAoIyL5TpOwFQdkUEFkU0J+7IuIXFAQUkF3cEKiAILRWQMsuCgURu9BSCO3MvXe6l7a0Teae5/fHJOkkTTJ3kpks5bxfr8CcO88955npzDzPOec5z3P99T+7CMRdaDFurQa7xRy9EIZNJ37rW9+KZDB/+atfHWRB/ZXEsJZ95Px9/+kjR24zuRT73lOnTt1RhCeBciqp9s7N8/Nm+rnx1oKcpiiPDRkyZPoxxxyzrqfj/f0f/7iZ4JXt9/V58SGHHHRPlPtff/31PQFcBPB0kGOKcAZAch2If0L4hmXxTcuy3hw/fvz7pUwuFARBDcA0yRgJQKnf1FRXn1+q/g2GwYRxAAyfKH5y/c+uVMTNHbcCWszqu6RMvvrqq+d318ftt991FKj/TDLP+Lc5E+80bRx64BVXfL5H9e0feOCBIVVVVYdCqUkEJxHcHu2di1bjv4qKT1Gsx1avHv63888/rNf1DWbOnLm11rKI5Ki8ff05IvpTxS7Vv/HGGxUi6khSn0mqk0Bu08HYt1QKLtherRTfAvgfIWYrYHYsFpu73XbbrerJa/R9/zJS3db6fopYx8TjY57pSV8Gw2DHOACGTxzX//TG7xK4DtgsKBAk10Lhyq9feeV9nd17222/OgnEwySqcsa43dJ/JhtTn77sS1/6sBh9HnzwwW1DkeMUrONBHE62xCogb5aca6eEnEaLTyCb/UepMwo+++zfr1GKP8wP6gOsEw477KCne9PvzJkzh2yzzeijSH0cyWNJbhfR+HfXThOcS3IOiTkA5mWzQ+ZMmOAs7U4X3w9eJbF/S2GjTE3NWBP9b/jEYhwAwyeS66//2UVUvCO3FNxhJYCEgM8hxq9+/Yor5rTec+ttt31eQT1AItaJ8f9YKRx+8cUX/6vQ2NfMnBkbt3jxZ7RWk6gwicSunRh7gAwJ/BsKT1vk9ClTpvynXO/HzJkz7TDUC0Bu3Tq+UvjHoYceekSpx3r77bd31MBxCjya5Gc6rg60D2Qs3G4LVsy1l5OYQ3IuyblKqTkA3nVd98NMJrO91noBW28S/tK2a0oap2EwDCaMA2D4xHLDDTcdA4WpCtgGecY/t5JPkGym4u8ltK63LH0kyDtIqrznW41/llQnX3LJRV3OlO+7777xtKzDCHUUiaMAjsyPG8iLI8gwF7k/AwhnnHXWWcv64r145pnn7qLixXlxBU1aqz2PPPLgOYXv7jlTp061GhoadtMaBymFAwF+BkQiorEvpr2W5EoSta3PA7KfbdsFHTaDYUvFOACGTzQ33HDzblR6GsnadkGB7ff1Q5KKLSftOj4vUBde9pWL220Z3HvvvUlAHQ7ycACHkazrMLtvNf4fE3wJCs+KUs+e87nPvVPKoLcoPPfcc7uI4G20rIa0rIf85IgjDvteX+rRyrvvvpvIZmVvEvtQYR+Ce5Mc3Qvj31l7YTxeM6Gv32uDYSBhHADDJ54bb7yxRqB+S/JYAB2Nf7dtgtdceuklP7rzzjtrSB4mVIcR6nASE1qXtTss7a8D+S8CL4nFF9euWvXKFVdc0enxur5g6tSp1ogRo16i4v6bZtpYOHTokN0OOOCA9f2lV0fmzp1br5TaA1B7KMU9Se4Boq6nzgAgP3Yc5wf9+6oMhv7FOAAGAwAR4c9+fstVCvg/kpWbxwUAnRj/+SBnkDycRANbLH3e8wC5TJGvCuVFaPWK1k2zLr744gFTPveZZ565SsCf5xl/AdTRRx552HP9rVshFi9ePLqpqWlP0toDCntQsBfJXToz/h22WSAiu7iuO7e/X4PB0J8YB8BgyOOmm26aCGU9BMGE/KDATvb9O2t/RPIdkLMomKWUzLrwwgvnDNRl5ueee25cNtT/JTmsxfiDVHcceeThl/W3bsWwYMGCbWKx2JkAv0Zy5+5n/wDJNx3HmdjfehsM/Y1xAAyGDvz0pz8dHotVXAeqS9lSEKeLIMG2tpC3XXrJxV8dqMa+IzNnzoxt2LhxJqkO3PSa8J5ovUdvEgn1JQsWLGhQSl0G8gtsyesfaSsAuMp13Vv6VXmDYQBgHACDoQtuvvnmfUF1N8A9osQFgOpZhfD8Sy65JN2/mhdm+owZNxD8Zt7SfyiWOviYI454tb916w4RsebPXzhZKVxG4vBuZvprlFIzBDi9w/NNikw6Tvf5AgyGTwKqvxUwGAYqV1111b8/Wr1qH5D/D8DHgEDaze/btwl9lED9984775nSx6oWxbRpM06E4P8BACT3HxFcN5CN/7x583ac++6718+fv+BDUh4HcHiL6i0IBAgh/Bsgn6+oqLC11n/q8DxE42lj/A2GHGYFwGCIwE23376tFeqfEPxc7khgl3EALW15KmZZl3+pyKyA5WbGjBnjQ43XSYxs3RMX8h9rVq86uhS1C0rJwoULRzQ1NZ0B8FwQBzBv5aVDZsD/CfG7yljswbq6Oq/1/sbGRQ8pxTPzgwAB9dlk0pnWf6/KYBg4GAfAYCiCX/ziFxOF1s8UWpafuw8KXEelfgSdvXUgRP4/+eSTw2OxipdB7t5q/EEGFTFrjyOPPDLT3/oBuWOJO++88xFQ6hwFnkJyaBeZAJco8iER+d2ECRPe7NjPBx98MEQptYRUw/O2BrxEwt2WZJ+XIDYYBiLGATAYesAvf/mr40H5KcmG9nEBmx85Izkbor510UUX9Cqnfm944403KvxgyVMkjtmUjAhZRRx97LHHzuwvvYBcQOKYMWMOBdTpJE4BUb3J2G9yqEhuVIpPkfzd6tWrZ3RXOnjRokWTRfBkflyAUvxpIpH4Vt+9MoNhYGMcAIOhh1xzzTVqzJixpwv5HUXuXjB5EPCCZfGbF1xwQZ+nn33qqafvB3lBnvGHorrquOOO6Zdo+JkzZ8ZGjhx5GJQ6nYKTSVZ3srQPECGELyqFR5qbm6fuvvvuK6P0/8EHH/5WKZyTFyQoSnHnRCLxbrlfm8EwWDAOgMHQS0SEd9xx92RSvgdy7w7JgjpuDYgQT8BSP7nwvPNm9YV+f/nLX34Aqh/lRfwDVL87ftKx5/bF+K28/PLLw6uqtjpaKR5P4oT8mX57469Cki9B4U8Sho/ttttuRW1PzJ49u3LYsGEByFFtKwmQV+rq6g4s00szGAYlxgEwGErIHXfcdSyV+iYph3YfJAgQ+BtgXX/BBee8UC59nnjiqUupcFuujEGr8ce/h2211SGHHXbYhnKN28qrr84aX1GhPytQxxNycFuWxZbcA5uMP0NFvCSi/hSL8fGGhoagp2M2NjYeL8DTHc7+f7Guru7XpXpdBsOWgHEADIYycNddd31KQ12uyLNJDOnWGQD+BfCONWtWTS1lXYAnnvjLxSDu3GT8CSgshtb7n3DCCWXJVfD2228PW7du3UG0rKMoOJ7kjh328fP39TWpXgL4p8pK67HeGP18GhsbfyfAF/Jm/2uGDh3q1tTUrC1F/wbDloJxAAyGMnL33XdXQ6mLIPgKqRJdBAm2tpcS+DUpd59zzjkf9Gbcxx9/8gIq3Js7sti2778KEjtw8uRjZ5fm1eWCCzds2LCfCI9QioeD3I9kRevsvhPjrxXxEoA/hWH42L777lsSo9/K4sWLhzZnswHBbdry/pN31tfVfaWU4xgMWwLGATAY+oC77767gox9FgpfJHgsSavV+G9aDWhrC8mXAP4+m9346Pnnn7+qmLEef/yJ80Hc18H4byTkmMmTJ/dqu2Hq7NmVNUuXTlRKHQjwcJAHERi2ydhvWtrPa68h+QyJ6WEYTttvv/3KduRw4cKFp5DqsfzMgJZSu9fW1r5TrjENhsGKcQAMhj7mzt/+NhEL5TxCzlfg9h2Mf0dnYAOpppH6sVgsNn3KlCmru+v78cefuFIgPyfbFv4BQivic5MnT55arK7PPvvsCKXUAYD6DC0eRME+ubP5XRr71vYCRTVNhNO22WarFxsaGpp6+n4Vw8KF708leXre8b+X6+u3PagvxjYYBhvGATAY+gkR4a9//btDqXAuyZMIjCjgDDRBcSYgf5aKihlnn3rqh/l9Pf74n68D+J2OiXNE4cqTJ0++tZA+11xzjdp33wN3isX0vqTaB+CBJHZF3kpCm2Hd3Pg3K+JFETVNKtS0gz796fnlfO86Y968ecMrKioDkltteg/w+fr6+gf7WheDYTBgHACDYQDwwAMPDFFKHQdYnwPls0TeLLtd0GA74/6ukM9S4RklPJ7kxZtlzQNuPvnkE6/ubMynnnqqTqmKfUjsS6X2JWQiyOHMM/CbdOiszQyJ6YCaXllpPbPffvt91Hfv2OYsXLjwEoC/ypv9L8lmm+smTJhQssBKg2FLwjgABsMA4/777x8ei1WdSMUpJI4iOaQzB6DN2HfRJvHI22//56wf/vCH8vTTT48XkT1B7klae0KwJxVqur4fmxl/kutBvkLw76T8/ZBDDplFUvfz29XGe+8tfKdlxaI1n8AN22237bf7Wy+DYaBiHACDYQAzderUrTduzB5D8iQqHM+W5DYFtgoA4mOCv6fiLgT3ADG8g3OQt5TfZTsk+AaZM/hKqVf7IndAT5g/f/7BSlkv5GUS1EpxfH19fa9OUxgMWzLGATAYBgkzZ86MBUFwiFCdSMjxpBoXxRmIaOxBsiln8OVFki9ls9mXJ02a1K/L+lFZsOC9R0BMad36IDFt3Lhxn+1vvQyGgYxxAAyGQcqDDz46oaJCHyO5Y4WHEhzWllI3Pw6g2zaWArxfLD7z8UfbvDZlygHr+/t1FcucOXOcWEXFh7n8A62xD3LC9ttv32/FlwyGwYBxAAyGLYDp06dXrVu37kDSOobE4SD3IGgVihNoaWep+D8K3iAxSyn1xqpVq/47ZcqUPjm611vmz59/Lcjv583+F44bN26HgRSfYDAMRIwDYDBsgUydOnVry6rcj8SRSvFAQO0LSkUEZ6C1nSUxH8QskLMoMqu5ufn1SZMmDaiI+g8++GBkU3PzBwRH5uX9/+r48eN/2c+qGQwDHuMAGAyfAJ5++ulRYRgeJOQBCmp/EHuT3KrIOIENBOcCeNeyOAfAPJLz1q1bN7+/HIN58+ZdR6rvtjouIFaH2WztTjvttKZVZvTo0dsMraw8puO9ITDbsqxKZLPJdCbTtl0wfvz4qvVr104OgeeDIFjaV6/FYOhrjANgMHwCmTlzZuzjjz/eQ4T7k9gPuRz+44oMGmw9HhiC+ABUcxVkLmC9S+o5zUOGvHfY3nsvK9drmDdvngvwXZJbt8U2QN0yYcL2V+XLxePxGou8Cjm1zwfkzyJcRUueFa0mE3JpKBgfBEEjALhufDKFTyjw0MW+/2K59DcY+hvjABgMBgDA9OnTtyG5O2lNhMJEBU4EsFOXmQC7zheQXwRoI8A0FXySHoQ+qTxYeN8CfBHx9t5778ae7NfPnTfvDwTPzgtsDCGyww477PB+V/cknPhblsapizKZ9wHAdZxfELK7CKZ5QXATACQd548C2V6B3zAOgGFLJtbfChgMhoFBy5G/l1v+AORqAQCyJ8hdIXo3gdqVQAOAERBB66Y7ALS2BS0zi9yDKhDjAIxDqzgFFEByyXow6823Nsx6880UwaUklwNcoRRWiHAFqZYrJWtIfqyUWk1yndZ6vVKqFoKz8geCyF+6M/5dIYJHSZ4F4CbXdbcS0SNBfAjp8VtpMAwKjANgMBi65KijjloN4PmWvzaeffbZuoqKigaAu4KYAJEdQO4ogJ2zyZ06A120ZQiE40GMFwCkQIRtzoK0yGstbSsQ+b6H5MQAomC9g05RsgzCdbU1NduHCPeB8CkQh/WoL4NhEGEcAEOvSCaTQ1U2O07IpAAUrVexomJ+KpVa0d+6GcrHUUcdtQjAIgB/zb/+2muvbdPc3DxBYO0AYAIV6gmpF+G2IGoJVHTlHOQQQNhlWyBgJ20B3txxxx16vFxP6qmhUqcQ2CcrclkMNA6AYYsnlnTsNzpeFIGXDoLJvek4YdsPkxjf/ipvSfn+ZpW5XCf+uALrciKYmfKCb/RmbEP5mQhUBI59g4TZL4fEVmhdL1WEhFk4jlPv+/6H+fc0NDRUzp49e1CcLTf0jJaCQLNa/toxdepUq76+3hWRegDbgoxDdBJkHGBCBHECSRDDgK6NfWdtUn7RK8VVxeNKss9AZHEmk1mScO1edWcwDAZiAkzc7CoxsTYe33VxJvO/nnRaF4+PC4kpsnmQYbwzeYINAuwAACKyqCdjGvoUBq79OARdpVpd4/t+279jMpkcCp395qqVy2sAfKVvVDQMNKZMmRICWNzy91JXcq+++urQYcOGjQkta4wVhmNIVmvIGEU1EsIRIhgO6K0U1TCAIwGRbDZ8OIoOhJqrK6xNRxZFllO4NuWlViQce44Q03NyWCIiA7LugcFQKrrcAtAWpwDokQMQKpwBc8JgiyVh26d2ZvwJfCTA1hD8Dy1LAol4/LMSZn+BXBDYA32tq2HwccABB6wHkGr5Kykp3z8rv+0FwbWtj9N+cE6bnBdcVuqxDYaBRtcxAILTAfygR70KzzTmf8tFyJPZLkRabq2oGvqjxsbGVQCscaNGbd32lMJdABLFjpG07X01eTKgd6TQErIRDJ/2vCXPASY+22AwGHpLRwdgDYDhLY93Ssbju6UymXeK6dC27V1A7N7SbBfe0xVCfT7ArQBAKVlSzHiGvoeQCXnNRWk/83UAYUs7fH/lytU97bu+vn5k88YN92sIQfmNiLqLlgqJ7I6irTNdx/6egOd0jC8wGAwGQ3G0dwAEz5M4RIBtAEAsng6gKAcgpnCGtM7PBK+B2L/QPZ635NVixjD0O61OIgSYi03Gv1eMHj16m+aNG/5G8GdQ2qO2dgMQl2zWr9D6jcalmQsT8fh+JP7iOM5k4wQYDAZDz1EdWhsEeLKtndsGKAoRnNn6mEoiBeYYBhlERdtDwcpSdTu0qvJ2grelfP8xaHWaUK7R0MdB8fvNMeuDhG2fm85kXhOlL7Egv4eJMzEYDIYes3kMgJapUPxCS2unZLJm91RqyX+jdOa67l4QvUOuxQUa+g2W9zfaSsbju0CpHUBdpYF1KsT7qUxmDno4K43H49tVKLWnpv6osln/r3Hp0qDQPbZtj7VEdhMLY6kZKnKJVmp2Op1e3hMdgNaTFNxZlGwDWOtFZLlSak5v+gQQS9r2XlqJDWCY0lwVko2+789DD/fVSZZkP762pmZ7AepTvv+HvMuzPD9zCgAkXftnAvwYwG89b8mrCdt+r9Zxjl7s+38rxfgGg8HwSWMzB2BkdfUzq1YsXwlgFABIyNMBRHIAFPSZbdaA0Wf/Cdt+DsR2Lc1n0n5wSXfyjuNsa1G+IYIzBKhuTRZCAKKAhGOvBOQ3Quv/PM/rtBhJwnFeAcTO6c3zF/v+y0nb/oUQlwjEohDNMUsnHPtxS8s3W3OHtzIRqAhs+2wQlwPYE2wxhQQ0BNBhmHDt1wXyC8/LPIIIBnbcqFEjNg6tuhqC80KgFkDunDN0zo3SoU469lta8OtRY8bcF/VMfTJZs7uE/AbAEwUYnuszl19FQZBwbR8ijzSHcsOSJUsynb9f9jygbeZf23pdICckHHtha5uC5zXwJonWgiybjn4SpyUc+5C2phUem0otXQAAYUwdpyB/6vpVyAqAza0tRT4SihwPwDgABoPB0ANUxwuzZ89uouDPm64w6jYARTCltaGFD0XWgqgFcvnCBdJproBWXNe+TEHmiuBSANVdiI0CeCVFz3Ec56DORaRu05jYyrXtW4W4DICVJ6QAnJa1rIr8O13X3TFw7NdAPABgL3S+FG1BsB+FDyUc5+Vtq6ud7l5XnW03bBxS9Q4E30eege2AEmAiiTtWrVj+juM423bXJ4BYwolfJ6F6E+Dnkbd33w6BA/BrFZZ6z3Xjn+uir+2Atpzu+e/H1m3XgXFC2CRH5V3LdzKH58uqrFXZ9sKAbSFqQYcxd3Zt+4aEE79LwCsguKL1iSat5xOoL/D6DQaDwdAFmzkAAEByal5zx2SyZvfO5PJx3Zr9AbQYJL7t+/7cUiiYT8KJf4eC2wAMbbtI+AJ5EJBbATwKIH8GO1ZB/pqMx3frrl8BDmbO+G8O8Zrnee+26ZBI7EDRLyNn+FvJAngekLsFci8grwDIq24mB2QrYv/qymCPGzVqRJhLQJJn+LkAwGMiuC3XL/4GYH3ebTso4NmGhoZKdA4TTvwBgN9Fe6emEZA/UHA7cu9XfsrerSl8MOE4X+ukvw8AvA/gfRDNedfXtl0H3qcgEJGVedeyebJr8mV1LGxbwdDCrGi92YqUAoYR/Bw0vpYOgmmt1ysqdEwo2Y7yBoPBYIhGp3kAFvv+3xOOvQwtM2wJOQWFtgG0ajv7T0r02X9EkrZ9aMsecCsbILgq7Qf3IG+/Px6PD4tZ/BEEV7dcGiaKvwGwN7pahqd8HQICWEHiNg15S4mKA/pUEdW2GjJ69OhtqMMZkr/yQDwtUJd6ntcug2EikdgBOrwHQOuSd62C/Gn8+PEHvffeexvzZTdUVX2VQF1LUxP8csr37+2oZjwer4kp9WdADshdkQmrV6w4D8A9HWVd2/4+gM/nXVoKwVfSQfBovlxDQ0Pl6pXLrxTgxy0zewJyUyIRfyedzvy9VS7tBzu1vTbXfg/A9rmXz6c6Jldp4Q4ASDjxFMBcHgDBo+kguKATWYAyHwq7AXg67+rcVBBcnnCc/5FybzKZfCWVSqUBAGFsdwDvdtaVwWAwGArT6QoAgCwgj21qFtwGsMC2EwOS1XikBLq1QxM3YpO+muDJ6SC4Ex2C/TKZzLq0F3wdkLvzLu9V6zhHd9m5oEKAQIV635QXXON5mSdTvn9Pys8ck/b9u1rFhlZWflXQFqsAgg+lveCkjsYfANLp9PyRo8ccjfbFUvbZsG7NlzvKkjxlkyp8uDPj3/LaloQiJwGbIu815OSOcttWVzskvpV3aaVQHdzR+AO5LZ+UF/xUoKZg06qFBa3uRPuVg7KSzerpAKagE6c07fv3CrEUOvvt1mtCOd8Sebyv9DMYDIYtja4cAEAjfxtgh0Si5lNdiSbi8UMItFTP4D+DIGgskX4AgFrb3oe5GXwLcm/K92d0e5OKXYe8ZXgNvZmhbIfgusVLlizs6un6+vohoFyVd2nxhubmi9HNaYPZs2c3hYJzkbfMLuDV2MzISdvSP6G7rWceBMFSEA8B8h8Aj0Hwz44yYWXsSuRvk4Bf9TxvXnf9ep73BIk783SakLDt7t+zEpILPlTTk679vU6e1hS5TQRf3La62mmJU/h4cRC83lf6GQwGw5ZGlw5AOpN5QYBNR+B016sAovLO/lOX/Oy/ppyY36bOLS/tnpjuAAAgAElEQVR3RzqdTgG4lYLbRXApdfd56CvD8LHunm9ev/6AXOGRVuTOZcuWrSmkRxAES0n8Ou9SbSIe37uD2NJND3lubW21212faS+4NO1n9kz7wWn5uczbNBMcl9dMpX3/j4X0BICsxk3Ic5qE7DMHAADSvv9D0dgz6do/Wr+x6UdNzWFbQGLKz9xOK5bIxmInUfPy9RuavtSXuhkMBsOWRtcrAECoiILbABOBCoKntt4Ta9bdHOXqIcL92h4CQdT0xGk/uDoVBJd7QfCrVCbzr25E3y943t/ioflNpfFUFB0AIBT+Jb8tFg9uJ0D8I69Vq7Oxd1zbvqHlBEPX9Ro6IR6P1wBoyBttOiLmRGhZuXl7k1r6kK6ly0I2HQSnAMDQqqoXKyzrKteNn+i68RNc275SdHYaiN2zIketWLHioz7WzWAwGLYounMAEArz9/J3SCQSe3SUCWz7aACjcy3OjJI4p2gId9NDFpWaOBKCDwqKiIzLa65fnMlEPuWQzWbfym9TZPv8tsrqnxPIN2ijSXxTQV5MOPaShGs/krDt8+rHji1YpLwiF6OQdyxRvdWlcCdQkCfPRH19/ZBi7i8BYcoLfgiljlDkQgXuSXAfKFlJFTst7QeXZDKZdX2sk8FgMGxxdDu79H3/lYQTT7dFcWt9OoD/tBMizmh9KNQlj/5voabtkUhvMuF1DqOks+WYTY9lBYrINLh06dK1CcdeB2DY5n0Bi5csWei6NadR1MNoc6baGAXBFBBTmmOWuI49i+BDKtb88OLFy7zN1WzfN4Giiitpckl+pb8wXDsawObjlJmWjIcP9vW4BoPB8Emh2xUA5PaD85f0220DJJPJoQRa9+c3xmJVf0bpUWhvFNd3JdgLCvZJwYi8Vk9moB/nPd6q45Oet+TZimzYAMgt6NpoMxcMKT/X2dj7Ccf5CTo4cVrJNu1uAIrSlSL5ekKEm+lqMBgMhsFPIQcAaHekTya02wYIw0mtlQMJzli0aFHJCsO00wDYkNce2pVgWSHX5rV6YhTzs/B93JlA49KlQdrPXGX7QVKojgFwswCzu+ivCpDvJBz7/nZqhsjXE9K26hAN5jL7bWpTOtXVYDAYDIObgg5AOhc819h2IbcNAAAQStvyvy5D9H8bxKq2h5SOS+R9AyXfuRmDIs7Ijxs1agSAvL106bQ+QSuzgGbP855J+8HVnh/sKlR1pFwI4DG0d4YA4Jxax2kLKhTLaueECTA2qp4AIER+nIG2rK1XdClsMBgMhkFL4RUAQMj8bQA5FQBc190KgkktF9eFYfSo+KIRtJ3PF+GuUW9LOs6xCce+07XtbyRs+7Tx48dX9UKL/KxzQ+tse6cuJTvQVFW1Z35byG7P+nfE87zFKS9zX9oPThOqWrBdtjxoStsxzDAMF6BdxkPdbuyCEPnyXmNjY0eHw2AwGAxbAFEcgI6nAXass+0Gaj0JLcvLBP9SzshsCl7d1ICbSCR2iHjraQC+TOJnULjvvffeay54Rxco4Sv5ba3w2aj3CnFCftsSvtb6uM62G1zb/nrSce5LOvaLyWSy2y0Oz/OWVa3f+Hnk59iXTUVxMpnMEgDzN93BSYi4WhGPx7eD5B8hRHdHJw0Gg8EwiInkAPi+PwuC91rbIXAK1KaAQF2+6H8AAMlp7S5IeFGhe5LJ5FDBpgRCFJmJdgV6iiMkX0J+Rj/BJfF4vOD+eiKRGAPg3LxLy7YZPbrNAcgq2Y3EjQL5ogAHSXPzEYX6fH/lytXISwdMcFX+8yTy8w7Uum58CiJgkVci/zMh7VcaegY31T1Q7eMLDAaDwdB/RHIAAAB5FQJJnAnB8S3NlaNGVZe1Jvti338RyD+fjiuStr1vd/dIGH4feUV7RHhfb3TwPO9jgHflXdo2ZvF2dF4KuJWY6Oy9yMUMtGpy9+zZs5s2ta3nkLevL4o/7KbCHwDAdeNHIm9vX1PaHc3UULflV+yj8Je1NTXtcg90pNZxjiFxad6ljCg1tcsbotMWRCiCbks9GwwGg6HviOwA0ArbtgEE2AUty/8CPtbeoJUHCq5E69l7QYUoPJOw7dM6yjU0NFS6tv0DQPKL4TyfDoLpvdWhoqrqRnBTPAIE5yUce2pnCXpc161zHfspol063febsvqGfDnP85YJ+IfWNoG9V61Y/sS21dVOZzok4/FPU5if2ncdabU7CeB53mLR+EnepWodUy8lbXsSNsdybftSDXkSeZ8HoXwt5/T0DrZbqcABCds+13XdujrbbnBd1xwxNBgMhn4icprZVGrJfxOOPQ9Au+A3qjJG/+ePHwQvJF37uyLIGVDBCBB/yukkL4hwFRXiq5YvP5p5mQMh8ELgfHRVCrgIGhsbV7muezoR/iOvLsBpzTHrswnXfg6C+YBQwJ0p+nAA+TP5ZUrLiUuXLl3bsV8q9S2E4aS8jIfHZStija5jzyTxPwJaBDaBXQSYmHerELwylUua0w4vCH6cdJw927ZBBI4Q05KOPUeAF0Wwmgo2RI4EkOig0f95XlCSf1cNvkXIQS3NGIjfUDRCAioXR/LX7u43GAwGQ3koKs88iUdE8MNNF+Cn05nnS61UV6S84KcJ2/4IxK3YZFx3ArgTiZyJb78gP1eTpwa+31gqHTzPe8t13f0p+gkAO7ZcHgJpDQpkZ3sCr9MKz1rsL31v86dyWe9c1z2comcAbQF9lQSOgeCYVs+lgweznpRvpryg09LBAHTK909NOM7PAbkCLe9My+rNLm3vV3tt1wH8en4J5N4iwF0ELkK7Y5Btz+0C4wAYDAZDv6CQW6Jt/es2kr/lNECbPIE/oJuUuEqrbL68iHR6pExyefBb++xWh3QQ3Glp2RnEb0Gs7lRI4AHyHaHa2/f9TnP2C9AaSLcSKC7Zjed580aOHrO7CC4D8L8uxATEvyA4N+0HB6RSnRv/vD7fzWrZtcXBauxGdBkED1hadk15mdsKqBqmff9rQrW3QP6MLhIQAVgCyK1CtXMk4y+b3jtd4N/L9/25FBwCyCvo6MOQtZ3fZTAYDIZy010A24BnIlARxOMTxbJshbAaopYrkfmLgmAOSrDkH5VEIpFUWjcIMFYAKmDJxjD8T67Gfc9wXbeOWu9GJSM0MIQhlohlpT3P+y+KqEOQT319/ZCmpo/3UmLFQT0GolZA6wWpTGZOT/sscvyRGzZscJVSYWVl5Ycmx4DBYDAYDAaDwWAwGAwGg8FgMBgMBoPBYDAYDAaDwWAwGAwGg8FgMBgMBoPBYDAYDAaDwWAwGAwGg8FgMBgMBoPBYDAYDAaDwWD4ZFDyVMATgYpMMlnDbNYFOVqLbJM3lijyo5A6ZIi1IflRGIaLOquQN4ixHMdJWlrb2sJwAEOpOQQASGY19RpS1mlteb7vLwag+1ddw0CmoaGhcuXKlXGGYYJKjRSR4Wj5LgGAKLUaCLXS/Egr9RGARaUo42wwGLZ8eusAqEQisTu0PhSUA0SwC4kdIKgorhtZBTBFcKEAr1PklWaR1zOZTLeFZvob13WrgXB/itoPwL6AjANRW8TrbwLwgUDmEOplJfLS4iB4C0C2fFoXTzKZHKqam51CcmMzmcWzgOa+0GkLJZa07b00cAiJ/QDsCmAciqzaCWA5wBQgC0XwGpT6Z2Vl5Rum9oLBYMinRw5AIh7fT8izCJyaV8O+1GQBzoTIPXYQPDlQDEsyOXa8hGoKoKYA8qmSD0CshsbjAH6fDoIXMABWCJK2fagQMwvJCdVOnue92xc6bUEwaduHaMpZBE8GUF2mcZogmAHgnnQQzEAfFH8yGAwDm2IcAOW68SkUXgVgn3Ip1CmEn/aCcjkaUYi5bvx0Cr8GYN8+HHcRITdrWvf257KucQDKQsx14+e2fKZ27duh+Xba9/fo2zENBsNAI9LSouvGj6TgRgj750dDEO+PYScCFb5rX0zB1RDU94MKdQLeStHfTtj2jXYQ/HKgrIQYeo7ruidR9A0Q7NgvClBq+mVcg8EwoOjWARg9evQ2Q6qqfk6RL6IMAYMDmaRtH5IhfkXBLv2tC4A4iJsCxz4voeXCdCbzWn8rZCge27bHWgp3QPTp/a2LwWAwqK6esG17l6FVVW8Q8iV8goz/2LFjt0649gNCzBQMCOOfz65QfCXh2jeh+MAwQz+SjMc/bVHegsAYf4PBMCDo1AFI2PZhFvEaIBP6WqH+xHXdnSpj1r8hOA8D1+lREFydcO1nbNse29/KGAqTdJxTRPEFgIn+1sVgMBha2cwBqHWcg0E8BWB4icYQAAP+nL/rxk+k6H8D2Lm/dYmE4DCLeN113Z36WxVD17hu/EShPAygqkRdagAD+niswWAYHLRbRnYcZ1sNeRzAsKJ7EnhCTofIW1Dqv5XNze+tA9bmJflRdXV1I7Bx46isZY2wRGo0sLMADQpygOQMb7/Mul03fgaFf0DvltU3AHhNBP+CkgWWqAVihatUM9dKZbiBTdaQMCbDGapRWsn2FLU9RPYFsT+ArXo45rYQPdNxnMN935/bC90NZSAZj+8mwj8CxebFAAA0gvgrhf+B1m83iTTGYrE1eadBYolEYoSVzY7IWtZIau0IsDMVdoXGZ0CML+FLMRgMWyD5Bk8pyiMQjCnifi3gw0rk3lQQvIjuz6zrRYsWrQSwMu/a31ofxOPxGsvCCRSeCuBoAFYRevSYpOOcLSK/7eF4GyF4guRvYlVVzxeRaOX51gcTgYogET8Yws9DcCqKXHkhYBMy07btw4MgmFPMvYbyUV9fP6R544ZHUZxzlxXIA9T4dTqT+Rdasv11JZtOp5cDWJ53bVrrg0QikZQwnEyF0yA4FAN3S8tgMPQTbT8KSce5SCB3F3Hv80J1led5b5VaKdd166D1V0hcCmBrADrtByV3CJK2fZzktjuK7ftjCm7XSt3oed6yUukzevTobYZWVV0OyFUARhd5+4ehYJ8gCJaWSp9WTB6A4knY9vdBXBv5BsFTotQ3yvH+JRKJHSQMLyNxIYAhAyCvhsFgGAAQAMaPH1/18bq1jQTsiHf9PO0F30SZs4m5rlsNrX9AhS+nvaCylH07jrOzovwTghFF3vpYrDl7+YfLlvml1Cef+vr6kU0bN95IFHf8ksBLI0aPOXL27NlNpdTHOADFUVdXNypsblqEnPNaCA3I99J+5gZ0P+PvNYlEIgkJr4PGUekgMAGJBsMnHAUA69etmxLZ+EO+m/aCr6MPUol6nrfMC4IrtHD/UvZbV1c3Son8pUjjv4aUs9N+cFo5jT8ANDY2rvJ8/0KhOhbtl3i7RYCDVq9cfnMZVTNEINvU9EVEM/4QykVpP3M9ymz8ASCdTqfSXnCeJieXeyyDwTDwaT0F8IUowoQ80zJT6VN8359Vyv7CbNMtRQZJLaalD0x5mT+WUo9CeJ73DK1wPwCRZ9Ui+Irrxo8so1qGAjDi9wmQP3he5v7yarM5pf4+GQyGwYmKx+PDADk4gqxoWldgABSn6Q1J2z4OgnOLuGV+rDn76VRqyX/LplQ3pFJL38tqORjAvIi3kMJ7q6urS3WM01AEiUQiCWK3CKJNYa6uhsFgMPQLqlKpiYh0RlleHez7u2PHjt1aiHuKuGWRUB1V7iX/QmQymSVQ1lEAPox4S31VhfWjcupk6IIw3B/R4jaeLkfApsFgMERF6ciJb9Rfy6tK+amMxb4GIBlRfG0oOM7zvEXl1Ckq6XQ6pcDTAGyMdge/4rpuXVmVMmyGRPw+kTLov08Gg2FwowBEMxIii8urSnmpq6sbBeiro8oL5UsD7Vz9Yt9/Q4ivRxSvUlr/sKwKGTZDkZG+TxQ1qL9PBoNh8KNEJNJesSIz5VamnITNzV8HODKKrEDu9bzMI+XWqSd4XnAHBP+MIivEOfF4fLty62TYhDDa90krNai/TwaDYfCjyGhpSrVIseflBwz19fVDAPlyRPFMrKLqm2VVqHeIKHUZoh3DjMWUurDcChk2ISKRvk8Mw0H7fTIYDFsGMQFXMcIRZFKcPtCnLGSb1p8CMFpmPcH/a0lZPGDxPO/NhG0/CuKMwtJyQUNDwzWlTg5k6BwKV0UJAdRq8H6fektDQ0PlmuXLJ2hyRwHqAD1UhCNIaSa5FsKVmuEHYcj3MpnMB/2tb28ZO3bs1kqpsUqp0SKyvqIiu8qytl5RROpwQyfU1NTEK5XaWSsZp8CxAgwTjUpSPgLUBogsVuQHTVrPzWQyg72AVqx+7NhqbVljmskhFVqvRFXVyt7aqhhElkfMNXcogF/0ZrD+QsAvRhR9Nx0ED5ZVmRKhyRsVJIIDgPiq5csnA3i03DoZACoslwgpfZjLz/9wufUZKNTWVrthc+wskkevWrH8MyC22pT7iCBz/8+9dwKKQkwBCcfOAHiF4OMbs9kn84qLlQXXdeuo9ae7kyGwNhUE3QZxuq67l4K+AILDBNgld1UAAjobg85uyCZs+3WI/F86k3l68/vjJ1KzYPbTrMj0vjZu8Xi8JkYeUkhOaf3m4iVLFpZwaCtp20cL5SSQR0CwvQCgbJrCtn6O2t5rCGKK2YRjvwXwOWr9UCqTeaeEOnVK0rYnSYGieqLUa57ndRkLNHbs2K0rLOtcEpMAHNTcUidGQRAqAs1NSNi2B8o/0n6my9wjyeTY8dBqkghqhHifjD3ZUkcEMQKRotwFPLK6unr4smXL1kSRHygkEokkdHhYNGn+BH2Q4bAU+L4/y3XsFwkUzuFAORHGAegjZFG0U4A8fiJQMQtoLrtK/UgiUbM/QvVtncUkElYPEh7GAZwikFMqY9Y613HuB3lTdz+cvUGJHCTEH7qTEXABgE4dANd1d6TWd0D0EQVeaQzE/iA+DWAzB4DCL4A4tZC+FVSfB9CnkxaLvATENQXERFdUlKRUeXV19fCqioorAPmyAEmAxX6MYgD2AWQfUfy269hvKPD6lO8/gXLltSFuB9Bt/BW1PgNAZ59jK+naXxfBNwGMKjCOC/BsdJF8LOE435MQYmn9UKypafmGoUPHQcJrXTf+jOdlnlSMxV6J9oqw9ZDKWNQI9AEDtZ6EaL/IS23fH1QzMgVG/OLzOPRRdcVPOhpW1O9TMrDtL5VVmX6kLh4fl3Dtp6DVqyBOQGk+f8MIuYKi5yds+/sNDQ0lrQ/SW1w3fgFFvwniiF53puU3UcSEcmavxyoSkmdHEHshnU7P7+VQynXty6oqYu8Dch2iH+HuFgJ7C+SxhGP/M5ms2b0UfZaKbaurnYRjPy+CG1DI+Bcg6cavoMgsoQ5CxYc2Dq2aAZGvDN1q66sUuFfStvdVqVQqDeD9KB2K4OqB9oYVRh8XTU4eHHSzMct6FECUvf0xruuWtJ6CoXM8z3ubwEeRhIkf2bZdX16N+hy6tn1pqPhfCD5bpjGGgLh21Ypl/xoo71/SiX+VwvtQXPnnLklnMjMECAoKCo7OHXHuG5K2vS8gEwrJkXJvb8api8fHJR37eQpuA1Ddm766YV/R6o2E43ytTP0XRW1ttZutiD0P4MDe9tXQ0FApwp1TQfBXao4U4vdpL9ifIsPXr117wohRY34ilC8qACDxWMR+h0monnJdt7a3CvYFDQ0NlQJGyosvtH5fbn1KTSqVWgEi0oyTIgX37AwlIRTgiYiyYxXxdCKRGFNWjfqI+vr6Ia7j/IG55c9u9z9LA/ewiNcT8fh+5R+raxKO8wUBb0ERlTsjkFUFtiJaqMxmN55cwnG7RUeb/S+PVQ59vKdjJBLxI0LF1wU4qKd9REZQAcgtSdu+H/24ShqPx4dJNvYsgB1K0d/KlSsbhPJ6a1tp1CZt+1CQtbCs/86ePbuJwiYFAM2h3InoeyF1EP1vx3HK/4/TSz5asWJ3RKnKRvie571Vfo1Kj2g8H0kOemKZVTG0QMEdkWWBBurw9USi5lPl1KncjBs1akTzhg3/IOSsPh66GhZn1DrO3n08LgAgmRw7AZBfobTGHwDAUH4bRU5JlNNAJSHGSIHH8vuennBI2PY50JwBINqprRIhxAUJ174Pmwrk9SkV5C83BYv2HkvrGEW1rWgLuadQbhHqX7ZuzWhAFABkMpkPBPJk1M4J2Iry94TjfG8iouUR6A8E2DOi6N/QB+VYy4FFPh9FjmC//EB+EkkFwb8BvhpVXoDtoNWrSTd+OfrpB6g3VFdXD99YVfVXED3dZtoAIAWgZxH+ghEaMi2RSJRkj7iooUPr14hY+rlYFmcy/wPweiE5AQ+3bXtsOXTIJ+k4RyIXlNktobBHy/9JxzkbxK+RC9rrCUtbtk16FsgtOC/h2tf0cOwek7Tt44S4oJR9NonMAdA26RPKX4TWZII/yeXFAUEZ0vZjE2pcDeDjyCPklk5+HNj2G7W2vU8plS8VQonmAEScRQ9E1jc3v4VozkttX/xIGHIIeTmAbBG3bCXCXyYc5yXbtks2E+gDYlWx2J+LNP4fAnILBYdWVA0ZlfaDoWk/qE37wXBasa2EameAV0Lwd0R3zGsg4Z/6ckLiuvETUYL92u4QQZRVgJhFFjwx0GtdoCMs/8srPUmhnrTt4wTyG0RdhieaAUwneFEo2M72g8q0H9R4fuCk/aAiFNRAywkA7ooUS9GmPr6btO1JxerfC5QAN5S609zRUL0mkaj5lAAbFGSD53mLIXi2ecOGMxOOc5ESPqHybvhAiOIryBG7a+KfruPcWz92rF3SV9FbNPaIIsaYHpTL/wDQciwz0lHOWIFjKYbS4XnemwB+WfydcoBFvJVw4jf3ZXBXT0na9i1FRL0vgeAraT8Yn/YzV6WC4IXGxsZV+QKpVGq953nz0r5/azoIjlSCTxN4KVLvgv182+6rgC5C+JOuVcFsED+GlhM0uDe17A6lD4BgCiA/Afh2lEFULPYQIhUAi5QTpMfkysbzpMJqFD/7d113R6H8ERFn/gL5M1XYkPaD41O+f28QBI0dArglCIKl6Uzm6bQfXAKq7UXwQwBR8iUoodzTV+XUk278TBBdBdZ/DMHDQvkSlD5AadlNg3sL5SghLif4ELpZNbP9zLXQvEQpWTliVPXvAKCiasi3AdSSuioVBNM77lvFXMd+msAxPXw9awHeQMu6OZVKre9hHyUj4dgBCi9ZbbT9YPigOwGQR8KxpwEo6LUSPC3l+1EDPttI2vahQswsJCdUOw32ktGlJJlMDpUw+wKAnq6QrSDk2rif+dVA/Hy6bvwMCqMdnSWmVa3fePb7K1eu7slYCde+FoLvRxBdB2XtlE6nUz0ZJ+k4ZwukQPAdF0DkYhD/2PwpLBTIlZ6XeRoFVi9aciQk00Hwp27lXHsqBKcXUF2rWLZ28eJlXgG5HpF042eJFDp2LKuEVsLzvMgryePHj6/6eN3aWQQaIoivEcrZnpd5Kmr/+SQSiR2gw2cAbBtB/Oa0H0QuHteRpGO/L4UmXIIzQH4VkAM6PKMp+FUWuLZQyfCxY8duXVVhfSPlBV0Wfks6zrECOQqgBcpHlsYji4JgNrD5fmN2yIaNZwD4d7eKd83WgFwnYfMC17a/0p/ndFvGjrLk/f5A/HEtCuLDKGIStfKjoSSkUqn1FdlwMoB5PexitIC3Bq49N2Hb52AA5XKwbXsshbdFkaXg9rQXnNhT4w8AaS/4ASRSJcxhovU3ejpOEVzU8QIhT2RD+VSLgSq4dZFOL/lnIeMPANT4TQR9lGStQk5CjxEpHP1P8sFijD8ArF+35vsRjX8KSh/UU+MPAOl0ej6UdSByiZwKcUlNTU3BeIfeQIWGzYw/sVqojksFweWFjD8ALF26dG13xh8AUr4/I+0HV6d9/2tpL/hBq/EHOgk4en/lytVVGzYe3bL/1kOYIHHHqhXL5yfd+Jf6I1Bw+fLlLiIFVDFddmXKjOhoe1yDuZ7DYKVx6dKgIhsehgjBXF0i2B7EbxOOPdt145/DAAgUtIibEMnBlntSQXA5SpBhMx0EPwcxtZAcIV9yXbdcZ8cBSALEKe2uAH9L+ZnTy5GWNxUEf4Og4MxehGXZBojH4zUAji44PnVRy/+5WBdGKby2UqiOTKeXRNo26Y50Op0S8syWGILuGFphWV/t7XjdIYLLO1xqUsLJnuc9U85x8+n0h+T9lStXp4PgGOa+5L2Jjt9WhPcGrj034ThfQB/OYJRS0SKCKYPeAVBkJAegUG5qQ3loXLo0qKgacjAFv+5lVztS+MeEY7+ddJyTUYajZ1FIxuO7Afh8BNHnbT9zWSnHFqhLARQqpbyVQljO44hbAWhb3SQwp2XltJigz2IIiQg5AYj9HMeJsrxdFJbFKSi8P//vYg20olwXod+sUJ9Ryq1Fz/PeJHB9QUHKeSivzWoX4yPElxf7/otlHG8zuptJhCkv+AYEZ6Knx3NaEWwPyO8Sjv1OwrZPRx/8cFHrqOVWl5VVkT5ARFZEEtQYWmZVDF3Q2Ni4IRUEXwT4ZUQK6uqWXQXyeNKxX+/jiOUcCtei0CoEsbo51GeWenvN87xlgBQMrtTCLoujlJhsVnB6b7Y3ohCSv4kgRopMKfXYBCIs/xeX+a/WcfZmlKBCyA2et+TZYvqOwsbm8MaCGTsFTm3u6GNf8DvPCx7oo7HaKLiUmA6CqRrcFcD0Eoy3M4ipCSf+ZiIeL1eaUAAAySGRBEX6PVixt4iSqAalJGlKDT0n7ft3a3BPAC/3ti8BJgoxLeHEX07a9qG9164wtm3XCzi5oKDw2iVLlhSaqfeI5lDuR4EU2AQm1tZWu+UYv904grt6cuytWHzfnwviXwX1IUpaGyCZHDsegm6rIwJYs7FZF1VHRUMuR+GJYCqrS39EDsjtnYMomP1VUwp/1nvPOlqx7/TBOJsRaS/R9/0P035wvFA+h8LLbxHgHlB8KuHY0+LxeLmOpkWc7aotoCa3RHoNQhlQxVM+qfi+PzftBwcTvBiQVYXvKAQ/I8TMhG0/tG11dVnjPCzyQhT63RC8N3L06FicoLsAABseSURBVNvLpcOSJUsyEMwoIEbJVhxeLh1yyCqxrGvKO0b+cJFWAfbKZScsDTprnYWChloeKqZMczKZHA0UPNUAgN8pZ6lj6gg5FqQEhZ0KDSH4WUtNnj6nqGAiz8s8bFVU7gziVxGCKKIwKab4v4QT/3bJTwxQR1oBEMrgPgEAQGkVpSAQKIwkZ+gTJOX798Saw10A/A6lKEtKnJmtjM11bftSlC1QsHCqXwHunj17dlk/a6IK18DQ0IVLZfcCkg+21lXvCyqqqh5GLmtit0gYK1kwIFl4+V9BFXf2XzefgsITtKUjR49+pKh+i2RxELyFwsnvdmwJgiwXWQ3cWcb+u6XoH4lFixatTHvBpVThLhA8jN6n0N0K4P+tXrH8rUQiESlxTyRERXpt1Kgq2Zj9hFY6mvOkCv94GPqWD5ct89N+cC617AFiWq87FIwgcXvCsV8r5UwQaAv+q+9WiGjOal32wlpKR1kO527l1EFDPVTO/jvS2Ni4ChKl0FRpkgK1ZHgtVJzmrcW+/0Yx/YrmCRGk/lBuJxK5oM03CwlZVpeJekrBs1GO+5WLHs8SUqml76WD4HNCtTchvT62IMAu0OGrrhsvSU5kAaLt7UeNFRjQRI536G3wmaFMpDKZd9Je8FkNHlxMHYFu2Ee09XrScU4pLBoRi4UDDgXPlmvvPx9VWfnfCLrsivIFHDd6nleKf6eiUNGCAXets+0oZ+u7JVLlP0FRs/+GhoZKEAUD64RWlEqIvYco+DmiqF3LqECfOpEd6fUyoed5b6b8zDEUHIbeBzYNpfD+hG3/OplM9ipinZHrGuhBHxlPHc0BoLAE+82GcuL7/ktp3/9MSx7z3qWoFowQyKMJ174JPS+w0oYWKRQMBhJ9coxp0aJFq1A4t8DWruuWpdQyBf9APxQQW+z7zyFXOKlbQtXrCoExQAoFFK6r2rjxj8V0umLFit1QIBiZwEee5/2nmH57CiOdAtMlP1rZioo19yLfTgnGL1VHqSB4Pu0HBwnVQQBe6FVnxPkSZp8ZO3Zsz6tsRYzuF6iyZnvqIyIlPZGI+QIM/U9LHvO9hHIUIixTdgMhuNp14lN7m5CLYMGUxqGUZPUiCgJgZSEhFYblCYpU0icGqhNCgFG2WHqVByFS5T/B1GKPP6pIabHlNZQiJiYCIiz4GQJZrtMkS8qVujkqvZ4VdMTzvJcBHJqw7eNBXAtgrx52dWBlhfWk67onFJtesoVI5/sJSfSg74GFghNlLkJgSfmVMZQSz8s8B2Af142fTuEPAezck34Inhw49kPwgzPRg4Q19fX1I5s3biiYXEsBE5OO0yMdi0UifOi1hTiAd0o9NkX1OitdTxHytxT5dvdC2N513b1ailIVP0aEYE9YxWX+AwCKNEihMwVQTDrOZqmWy4EgQsVYQVmCAIl+cyLbKLkD0Eo6CKYBmO667okUfQOAHYvuRHC4Qvhn5ArdFJVKNBaGi5pjEZI4EX1eQ7zUiNBhhB9DEelXb9PQY7TnZR4B8GjCcc4C5Dr0rK7Dqa7j/Nbz/QhlXduTzX5cF23BUG7p83Xx7ilL7ouQLPvZ/67wPO/dhOO82kkRmXYorc9AD1aPXNfdCqJPLiD2v3R6yT+L7TtaPRI5SoCjiu27jJQlg6oA/fYZaqXcOcXF87wnbD/YLXfmufisewIenbDtopMkNC5dmkGEIzMQ1LuuO6gT5BASKdo7ls32tCiNYWAQpn3/97RiO5H4FoA1xXZAyFk9mV1JMwdlIamo8TFFIp7nFV46LiNE4TPskksKVHQQpEJ4EoBut1+LzfyXd2PZ9tPLhpTnpFik7Ycy0ydFRWYBzSnfvyerpUEg96LY/R3iB8l4vGAAUgcEwKIIcpalda8jZvuZwvoTqz9ctszvA10MZSaVSq1PecFPhaqh5ShuUQjkZtd1i1uRI0cXO86AgCzHj/fHKEFxo95QuWHDIyh80qkuUfzvJgQstPy/Aaqih1H6Mvg+R0RZToqR7D4VcR/Qp1XFMpnMEs/P/P/27jxKrqrOA/j396q7k5BOIJjueksldKDJAA2ICmhAJIIcFkEckcXxREVxnaOODs44LkfHQXEcFT3jYUYRhNFxBHFw2BdlCTjIEc54kChLiJ10vaXSTRZ7SdKp937zRzUxge5693UtXZ3+fs6Bw+n+vXdvNfWq7nv33t/vA6I4FwYLePbSpjm5BllHswKjeToVSZ8HalETmd9MFgH+odF9oeYKgmCgshVX/wpAloxpCwXJ1ZkaE5mdT8k0bcZ5GiQlh3wTbNi6dbtC/zs1MONuANu2u5Ba+U9vLhaLZvVHXm7W77qqFxVtaP0IEzNSVrQYRXdZcXICNH0P5h6KY1w3nykvsyZmJVhVtcEpQxsnbm9fZRSokpo4hWanICj9l+SSkyB43vggxWlePv+6DM3wg/tFSabBVuMIrjeIuhAZPuct4CJo9d0imTP/7YvvownSAu+jGasrPrB58/M7xsdPEeAJ02NEJdNaAMu0BnslMcWM11ifDhU1y1Wtmpo6lWavYnHzk+VYTwJgXjZVpPpKcpqcSEuscwyC0v1IneYUr2Dbp5ieU6zUMs/PDIThw6bno9Y2o196W7Zs+VNud/k8mBcYOtF13SNMz78rjh+HWenVV7hud5a7odah6Vm1AAC5XOYVuzS7lEqlzZKLz4Pp4kDBuZ7nmSbKmfVVM/dDCaCpOQHUcBpgWXf3YamV/yqZ/2oZADEdeQtp2DZAUxuHhkLXzb9fVG41ibcQnwHAaDX74ODgiOvYDwhwVlqsqLUGQNNTe9bC87zjkMRpuboBxZO+76dmD6PZr1gcfK7g5j+pKiaPaS3E8ekAbkqNVN1psgKnnGhnIyu40b4kl1yvce4zqLY+SnEBgI8hJf9DYllplf/G40rhqhrozvSlXPIVPww/W1s7ZKIlHnsHQek2CB4wiVVIygKVfYnCaGAB4OKenp7ZVRcgidcYxVn4nwb3hFpIMShdBzFLfiNidj2ppUaLduelZY+juioWB9cDqZURu123+42pJ0ur/Ke4pfbCNelb30TVrq0NMtUSAwAAQGJYElFxVKbz5nK3wWzb4ZLdu3a9J9O5Z9BErYS0+ToAgMK6pcHdodaSKPA9k0BVNbqecokYJZEq5/jh3Wwqen1ajKW5qtMAyxzneKQka1NLv5+tZy8nSE9GpgK+h5qkZQYA7fPn3wezL+pMaRknHn3fbRIr0L+rNV96syTl8nth8rdQPBkEQW1FZWjWsaz4HrNAs+tJ29qMBgCW5vjh3WTj4/FNSNkGqtC39fX1TVk2PEFS/e5f8HwQlGouXKNiNJDke6hJWmYA0N/fvw1miXs6s2buU9F/N4oDVkS2fVmWc8+E3t7eeSL4lEmsWtnKddL+YeLRcPrCPcM858ViMQQwkn666dUqoOkbGhoaBpCWE2DJtqGhqaZ7cgqpXvlP9VrUo/qh6nMGUSsBGORxp1q1zABgglFyiY6OjilHspMJgtKdADYaBQu+nM/nG1L8oV52jI5+CoBJSs2Rjo75zamrTa1GATW5nkyvpQSCp1KjRGfnbprZLkmfBpgqKZDruqdLtbtuwe72cvKDafdtb4lR7pfOQqF7tmdnnRVabQBgVP63v78/9U7kJWKBfMUwdkm7ZX0r4/mbZll392GAGuVDEMXVE09WaC4SMbmezK8l1fTMmorVvb29DcmdTlPzS6UHAfRXixHIWybWDu37c63++F9Vb+8fHKxLKXHN5YyysyZl68x6tEfVtdQAoOoo9M+GMY1ypsUwvA7AsyaxCn1Hs8pRZtHb2zsvyVk/hlk2rdEy8PVG94laU6FQWADFgamBap6SWwUPGoR1jo0NZ9qpQ3WRiFTfoqfAYsTx2Xv/bGI6tWrlP8tsS6mRIAgGTDJWioW31atNmlrLDAB6urpsBRYbhJrMIU2mDMXnTYMV+u1pFCBqqB1jI98EcKJZtF5V+5Ydmq1Ux9PzQwBQwXrTcyaJ/BIGC3UF0nKD57nAivUGpMzTq+hLpgHitwBYVOWQjcUoMltQakpxn0HM6wqF7mPr2i69TMsMAHa3tb3VJE4h0y5p60fRTwV6r2H4fLXkjuW23RJzUZ7jfBaKjxiGb1TJXdnQDlFL09gyup4EalwkqjKglF+nN45zPK/7labnpfrYVCptALC2apDi7L2naARS9U5bFdcha/XWFKK4zSROy1bmMvCUjVVw7S/atp1tb31DJEZ72i3goRoa0URy7xcYV/N6RQzcO9ODAM/JfwbQK0zjVfTjQRCMNbJPNDnPtb/uOM5M1zxvE8E7TAJVMl9PJpngLMTWNzCNWvRUI00tELRo1+jo6on/boPqGVViY8nlrqtLv/ZSjKJ7FUhfUyC4yHXdk+vdPv2ZpQmOyAke82z7w5ihJwKebb8bEJP/0VpW4zv4SQVBsAmQy40PELixhV+5bt4s534d9fb2zivY9rWAfNn4IMUPgqDEzH8zRXG8BX2i4ObT0qo2jOvan0RKUpcJu3bu3G2UgfNFufb2mwCkDy4Fp7uVz5SmqrbXfS4Yj+ObkbKwU1XPBQDHcVYBctCUgYK7GpRCvGwJUmsYABDR5Lquri6jxeF1JLMlH0ytXvzC74TgatexH3Mcx7hyVD0st+0+CL5hGP5QFEX9tbZZDMNrILjB+ADFgaJyl+faX2rWG6OQzx+zY3TkYRW8N8NhT5dVP9qwTpGpV6jKf3qOfb/ruq9uZsOe171KFF80Clb8fMuWLZlq22/atGkroN81iRXBVQXbXp3l/LUoOM47t20Z+tdmtdeKBgcHRyC4uVqMCs4FgJxo1ZsahTYsh4jkyt+CWWGglR253I/RpLwAhyxd6riOfWep0NXTjPZm2j53/AIcb0HXFhx7bcG2z3np7+vN87pXxYK1AMwqkqlhumAD7R3zPwTBYxkOaYPi85FjP1aw7VPr1Y+XKhQKB7uOc6Xm5AkAJ2Q4dGusuICFWFrKatHkCc+x75z4ImzoE4GC45yFxLoPhjXXBdO7nqy2+Osw+/DuUMFtXj5/2nTaMeU4ziEFJ3+LQn8ElfSdD/s5SVKnAXoKhYIHlSrrNNSfyJ/SEAMDQwEEZtMLgvM8x/5Jg5/uWAXHeX+5ve13JsXj9heTfsErcIoK7vAcu99z8v+UpQSvie7u7rzn2lcjsdYCONjkGAUe96Pop/XqQ39//04rV34bUvbOTuJVKnjQdey7Xbf7DNRpkLSsu/sw13Gu1LjcL9BPQzM9adhlQd4aRdHv69EXqruzVfCA5zjPeI7z2Xw+v6KeJ3ddd7nn2P+h0DsALDQ87K5iFE1rPc3AwFCQYVqqEzm527Xty1HnGwrXdZe6jnOlBf29QowWPc4FxShaC2BD1aA4PkZVq61t+gGmsd06C4X1BQBDhuFv37blhUcqeVDqq2Db57iO/ZhCvwfTm9H9RFo54GWAfE40+Zxn2+shehsS3B+LPJZ1i5nrugdYqmcDuECh50HNkv5MKEuiH0U9UlHuZWBgKLBt+425yv7mTAu3BDgTap3pOfZGUdyYWMkvgLZfmS6+6+3tnTc2NnaCaHwKRM5PFK+V6b28XSp68UAQVV/92wyafMtzbbNa9HUiVtsnisWi38w2p08PB3BFmyVXuI69DorbLZEHrfb2xyqP1s0dumTJgeMLOt6sKhdAk3MAZKlkOapifSJT11/ioIMP/trWLS9cIkD6AllFuwj+xXPsd6gknw6Czb9ADdey53nHQeMPQJM1MEweNseoKm4QwT9OFZConiiCQ6f6daxybYP6tkcQBEOebf9thunYE5Kc9TvPyX8TVttVvu+/MN22u7q6Oue1W5eoyocVePVcXa0qnm3/BDJ5isgUGwA8LYoNsNSHWlsAjKlqmwILLQudAJZCtVdh9QF6KKY9j6Of8cNSw7a15fP5FW2WPAhgeU0nEuyG4o9QPAOBr4rtIjIsoh1IMD8ROVigLoBDJ/6p9ZHWCCx9q+/XXqSjmoJtr1bDcs3NlkCOCsPQeCtbo3mO/SCArFNECsh6qD4NkQ0qGlgq2yDJSAKZB2ChBSxU1TxEDp+oiNmDad5Rq+j7gqBU8+ru5bbdFwt+jexfwk8B8hMVuTMIgt8h5U6zUCgcjDg+EapvVMF5qFZvQHGjH0XV89pXa8tx3qnQlPTZ8pwfhkZ5FmaKbds9uUrCnaneI0MAlk72CwXuCcKoaY/BPSf/Q0CMdoHtZQzAzwTy80RkbRAEaU8ScoV8/ii1rJOgeg4EbwIwZU0ZycUri8XB6eacQcGxNyhQ/Umf4mI/im6abhv1kPYEoJpDARyqAqDyr8pPpTLRqXvG93v9bhoEcm0xjL5aQz9TlUqlPy5btnRVUm67BcaJdiZReWy/EoKVACBS+aEqJv4udX2AsUHFenvgs9LffkAAPRyCwwGFKKBQQGXPogHdE1ZzU1cGQVSXrV2bomidZ9uXQnAjsg1Gjgb0ClG9wnPsMSjWA9gI0e0AxiDSUXlCqA6AHo3LXqXr9ej13BBFUb/n2g9CMdX6i0m//AHAQv0y/5mQXPsHNC4fBSDLgtkDAKxR6BpRhefYmxToF0FJVbcJoFBZDAuLVNEjwAoFDqiMtRv0QmahWgYADVf58g8/iDo/+p/MwMBQ0NPTc+ruXTu/B2BNo9urieLW9vnz3808/5SFQr4ahGFdk6v4UXRzwc1/UFW+i+k9kTgAgmMBHLvnk3mfmweatgQ3QKYcAEyllA/DWxux928qxWJxh23bZ+Us/BKKY6Z5muUCLK98v0+8bybuPfkumlrLZALcR+VR+uXFMLwMQNysZvv7+3f6YfQuKN4Dw8qEzaRAJKLv9KPofH75UwY7VPDeIAz/oREnLwal70PxPgDjjTg/TU9Z9Weo1E4xporrnwB2N6hLU4qiaLAc65sy7syiGlliGa/CbBL9rcJ6rR9FprkB6s6Pohvay3EfUH0/bRONiOJr83fuOqIYlH48052hqlrqehLgYVi544Igqk851yn4UXQ9rGQ1FEEj20nxSAx8aQbbbymlUmlUFFl2TqnVFn+/YR1KUSqVNi84oPNUQeMXIFYxCsgni8XB6rso9hNWMYg+KpA1Cqyb4b5shOJSPywdHwQzP6/dPzgY+WF0IRJdpcDdM9SNEqBfVrFWFKPo7zds3bp9hvpBhvwwugSKj5hUPGuwp6G4sBhGp/q+b1QFs1a+v/nR9vnz+yYSBdU1f3xVivUCWeOH0Ru4FXZfscj1xsGCB4rFQePiUI2wfv36XcUwvAyKc5F9i3YtygK5VsU60g/Dq9DEJ88zyQKgxTD8URBGRyeQN4jiOwA2Nan9BIpfQnGhHUaH+1F0PVrsD++XSr8OwuhsUbxWFNdlqCMwXcMAfqai59thtMwPS58zWOFKraPsR9G/+UG0UsU6U6HXGOU9r1PbUNwGxbl+GPX5UXQzmrB+Zm/9/f3b/LD0IVi510BwExo3EFAIHlDRS/woOrIYhj9Ck1/rbBCG4SMTiyxTNTLzX1Z+FN2hYvUJ9G8ADDSwqc2q+OdyoiuLYXhZEASNbKvlTLk+wnGcI3OSnKyQ10NxLCpbb7LsNZ6cIoDgUYHcMx7Ht27evLlU8zmbqFAoLEiS3eeLytkAVqPWrYN/tgmJXnrQ0qWPrFu3rqXmUpfbdl9s4Qsz3Y/JzJI8AFYhn+9LRE6ByMkiegwUf4Hat4ECwCaB/EqBuySXu6NYLLbU2hXbtnvaLL1EVS4CcBxqW5O1FcCjqrgTlnVrIz6sXdd9vSD5WLUYVQmDMPx4vdtuFM9x1kD0vGoxolKev3DhpevXr9/VrH6Z6uvr69i6degsqHWxiL4ZilqyPSYQrFOVB8RKbvX90kNoQMKjgmt/R4HuqkGSXOX7mx+td9tZZLkYc4VC14okaT9aND5SgRUCWQLFEhEcpMCSibiyAMMKDEMRKTBoiT4PWM/EwB/CMNzYiBcyU/L5/Io2kdeIhcMS1cMAWS7AEkDmAboIlQRDhvkP5Eq/zqu0qWW1ua7bK0lyNIAjReQQhS6B4CAolgB7PuTGBRhVwXZViQQYVNXnYCXP5nLJukpWvtlh+fLlS+Lx8ZMg8ipRXaEWVohisUIWA1q5RgSjAEaRYFCAQRV9HirPqmU9FQTBM+Bd/lyXKxS6+zTOrQJ0pUJXCMSDYAH0xSyYEgv0Tyr4k6hECg0BeVZUnx4bH/+/rPUv9mfcIdFgnuOsAfQGGP+t5fN+GBqX/iUiIpqOplRYmsuGR0aeXLxo4Tggpxsectqizs6x4ZGR/21ox4iIaE7jAKAJhkdGH1m8qHMxgFUm8SI4Y1Fn54LhkZFfNLhrREQ0R3EA0CTDIyP3LV7ceQgqC6FSieD1ixd35oeHR+4C5z2JiKjOOABoopXDI3cOL+o8QYBew0NOOHDRwld2zF9w59jYWEvtDCAiotmNiwCbLJ/PL2yzcA8gJ5seI8Dv1cr9ZbMSuhAR0f6vNWsB7MdKpdLoeDk5S4CHTY9R4ChJ4t94jvMhcNBGRER1wC+TGdLV1dXZ0Za7Hdlrxz9kQS4fCMPHG9EvIiKaGzgAmEGV6QC5HZWMgpkocI8k+p0FixbdlzF7l3iedzinE4iI5jYOAGaY67oHSJLcCoFpnoB9CbYDuFeAJ0Tlt0gSP87ltre1tY1YO3bM293RsRhx7Kmlh1pqrQL0NAWG/DA6sb6vhIiIZhMOAFpAX19fx7YtL1wD4F1NavI3HAAQEc1tXATYAtatWzfuh9G7JypfNa+MKhERzVkcALSQYlj6NhQXA9gx030hIqL9GwcALcaPopstyBsAeW6m+0JERPsvDgBa0EAYPj5eLr8agqvBKQEiImoADgBa1ODg4IgfRH+dQE6E4HawHgAREdURBwAtLgzDJ/wgOs9K9FgAPwTXBxARUR1wADBLDJRKT/lh9K5yol1QXATFjQA2Zz6RIFTF/fXvIRERzSbMAzDLFQoFT8vl4wAcAdGDVOVAC1ioFnZBZZuIbofKVqgWY5F1YRhunOk+ExERERERERERERERERERERERERERERERERERERERERERERERERERERERERERERERERERERERERERERERERERERERERERERERERERERERERERERERERERERERERERERERERERERERERERERERERERERERERERERERERERERERERERERERERERERERERERERERERERERERERERERERERERERERERERERERERERERERERERERERERERERHtn/4fuDOZNXVuSWYAAAAASUVORK5CYII=;" parent="1" vertex="1">
          <mxGeometry x="200" y="-10" width="60" height="60" as="geometry" />
        </mxCell>
        <mxCell id="tEL66eHu9HameOeRS7J7-147" value="" style="shape=image;aspect=fixed;image=data:image/png,iVBORw0KGgoAAAANSUhEUgAAAgAAAAIACAYAAAD0eNT6AAAACXBIWXMAAA7DAAAOwwHHb6hkAAAAGXRFWHRTb2Z0d2FyZQB3d3cuaW5rc2NhcGUub3Jnm+48GgAAIABJREFUeJzs3XlY1VW7N/Dv3pvNIFsQAXEEHFAEp3IAJ0DUisISTdOsJEUt7TEfS4PKzOrNTNOsNKdQK7WcywEtwVBztjQUNExBMSccEJAZ3j/Ink4Wwl7rt397+H6uq+uc6xzWvW5UWPdeI0BERERERERERERERERERERERERERERERERERERERERERERERERERERERERERERERERERERERERERERERERERERERERERERERERERERERERERERERERERERERERERERERERERERERERERERERERERERERERERERERERERERERERERERERERERERERERERERERERERERERERERERERERERERERERERERERERERERERERERERERERERERERERERERERERERERERERERERERERERERERERERERERERERERERGTZNGonYCa8AIQBCAbQGkBTAJ4AnAHYq5cWERFZsGIA+QCuAjgD4CSA/QB2AriiYl4AbLsAqAtgKIBnAHSGbf9ZEBGR6VQAOADgCwCrANxQIwlbHPQaAngZwGhUfsInIiJSSx6AhQA+AHDRlB3rTNmZyuwA/AfAegCh4NQ+ERGpzx5ANwDP//G/7wVQZoqObWUGwA/A1wDuUzsRIiKiKhwB8ASA35TuSKt0B2bgMQCHwcGfiIjMX0cAPwHop3RH1r4EMBzAlwCc1E6EiIiomhwADAZwCZUzAoqw5gIgBsBnsO7vkYiIrJMWQCSALAA/K9GBte4BeAzAOnDwJyIiy1YKYACATbIDW2MB0AKVUyYuaidCREQkQS4q76s5JTOotW0C1ANYDQ7+RERkPWoDWIHK4+zSWNsU+csAnlY7CSIiIskaAsgBsE9WQGtaAmiIyukRg9qJEBERKSAXQEtUng4QZk1LAC+Dgz8REVmv2gAmygpmLTMAdQGcA+/2JyIi65YHwBsSHhCylhmAJ8HBn4iIrJ8BwBAZgaxlBuAAgC4yAgUGBmL48OEIDw+Ht7c3nJ1ZVxARUc3l5+fj3LlzSEpKwrJly5Camior9D5UPiAkxBoKAC9UPqEo9L04ODhgxowZGDlyJLRaa5kYISIic1BWVoYlS5YgNjYWxcXFouEqUDn2XRUJYg0FwBMAvhIJ4ODggI0bNyIkJERSSkRERHdLTk5G//79ZRQBgwGsEQlgDfcAxAAIFgkwe/ZsREVFSUqHiIjon/n6+qJOnTr47rvvREOdByAUxBpmABIAPGRs48DAQOzfv5/T/kREZBJlZWXo0qULTp48KRJmCyofCzKaNYx6fiKNhw8fzsGfiIhMRqfTYfjw4aJhhMY+wDoKgDoijXv37i0rDyIiomrp06ePaAg30QDWUADUFmncuHFjWXkQERFVi7e3t2gI4UfvrGEPQIVI4/z8fFl5EBERVZuEe2aExnBrmAEgIiKiGmIBQEREZINYABAREdkgFgBEREQ2iAUAERGRDWIBQEREZINYABAREdkgFgBEREQ2iAUAERGRDWIBQEREZINYABAREdkgFgBEREQ2iAUAERGRDWIBQEREZINYABAREdkgFgBEREQ2iAUAERGRDWIBQEREZINYABAREdkgFgBEREQ2iAUAERGRDWIBQEREZINYABAREdkgO7UTICLbUVZWhtTUVBw6dAjHjh3DuXPncO7cOeTl5SEvLw8A4OrqCoPBgKZNm6J58+Zo27YtunbtCl9fX3WTl+D48eOIj49HUlISzp49C61WC19fX4SFhWHkyJFo06aNUPy0tDQsW7YMiYmJOHfuHPLz8yVlbp2cnZ3h7e2N8PBwREdHIyAgQO2UTEqjdgISVIg05g8IkbJKS0uxfft2fPPNN0hISMD169eNitOkSRM8+uij6N+/P7p27QqNxnJ+fRUUFGDy5MlYunQpKir++VeWVqvFyJEjMWPGDDg4ONQofnFxMWJjY7FkyRKUlZXJSNnm6HQ6xMTE4L333oO9vb1J+nR2dhYNIfRDYDk/Qf+OBQCRGbp+/ToWLlyI+Ph4/P7771Jjt27dGs8//zyGDRsGR0dHqbFlKygoQFRUFHbv3l2trw8JCcHGjRurXQQUFxcjKioKP/zwg0CWdEdoaCg2btxokiJA7QKAewCISKr8/HzMmDEDgYGBeOedd6QP/kDlVPf48ePRvn17fP7552b9qTc2Nrbagz8A7Nq1C7GxsTWKz8FfnuTkZMTFxamdhklwBoAzAETSfP/993jxxReRmZlp0n47duyITz/9FIGBgSbt915SUlLQrVs3lJeX16idVqvF/v377/n9pKWlISgoyKwLIEuk0+lw4MABtG7dWtF+OANARBavsLAQ48aNQ//+/U0++APAkSNH0KNHD8ydO/df19jVEB8fX+PBHwDKy8sRHx9/z69bunQpB38FlJWVYfny5WqnoTgWAEQk5Pz58+jbty+WLVumah7FxcV49dVX8cwzz/x5okBtIlPz1WmbmJhodHyqmi382bIAICKjnTp1Cr1798ZPP/2kdip/Wr9+Pfr164ebN2+qnQrOnz+vaNusrCyj41PVzp07p3YKiuM9ADamqKgIBw8eRHJyMn799VecPXsWGRkZdx3Nql27Npo2bYqmTZuiWbNm6NGjB3r27CljzYqsxIkTJ/Dwww8jOztb7VTucvDgQURERGDr1q1wc3NTLQ+dTqda30T3wk2ANrAJsKioCBs2bMCqVauwd+9e3L5926g49vb2CA4OxmOPPYZhw4ahdu3akjMlS3HhwgX06tULFy5cUDuVKnXv3h3ffvutakcFO3bsiJMnTxrVtnXr1jh8+LBi8alqAQEBOHTokKJ9cBMgKebChQt4/fXX4efnh5EjR2LHjh1GD/5A5Rrrrl278NJLL6FFixaYMGECTp06JTFjsgS3b9/GgAEDzH7wB4Aff/wRzz33nGr99+7d2+i2YWFh9/yaPn36GB2fqibyd2cpOANghTMA+fn5mDNnDubOnSs04FeHTqfDs88+izfeeAPu7u6K9kXmYezYsRa3Q/qjjz7CyJEjTd5vamoqgoODa7xTX6vV4sCBA/e8mvbkyZPo0qULTwJIptPpcPDgQfj7+yvaD2cASKoNGzagQ4cOmD59uuKDP1B5XGbJkiVo164dFi5caFZHsEi+DRs2WNzgD1RelvPrr7+avN+AgADExMTUuN2oUaOqdS+9v78/Ro0aZUxqVIUxY8YoPvibA84AWMkMQFFREWJjY7Fo0SJV84iMjMSiRYvg6uqqah4kX15eHjp06ICLFy+qnYpRwsLCsGXLFpP3W9OresPCwrBu3bpq71vgVcBy9erVCxs2bIBer1e8L84AkLBz586hd+/eqg/+ALB582b06NEDKSkpaqdCkk2fPt1iB3+g8lz9+vXrTd6vvb09NmzYgOeee67KUwFarRZjxozB+vXra7RpsbrxqWo6nQ5jx4412eBvDjgDYOEzAGfOnMHDDz8sdN5YCS4uLvjmm2/QpUsXtVMhCa5cuYLAwECTLCspqWXLljhy5Ai0WnU++6SlpWH58uV/PtdbXl4Ob29v9OrVCyNGjBB+jvbOc8BJSUnIzMy0+N9vSjMYDPD29kafPn0wfPhwk0/7qz0DwALAgn9ATp8+jYcffthsd2OzCLAer732Gj788EOpMXUuDeDo/yAcfIJh594UutpeqCgtRnnBDZReO4OijH0oPPU9ym7JnXX48ssvERUVJTUmkTFYAIizyQLg8uXL6Nmzp9kO/nfUrl0b33//Pdq2bat2KmSkoqIitGjR4q7Looylq+2F2mET4dTqAUB7jynrinIUnNiC3D2fSCsEunXrhu+//15KLCIRahcA3ANggUpLS/HMM8+Y/eAPALm5uRg2bBhu3bqldipkpM2bN0sb/J1aPwTPkRvh1Dri3oM/AGi0cGrTD57ProOT/0NScti3bx/OnDkjJRaRJWMBYIHeeOMN7NmzR+00qu23337D6NGjeUTQQsnaOOfccRjq9JsBjX3NP/VoHAyo8+gMOHccJpxHRUUFVq9eLRyHyNKxALAwO3fuxEcffaR2GjW2adMmLF68WO00qIaKi4uxY8cO4TiOLULhEj4JYjOWGrj0ngzHVn2F85HxPRFZOu4BsKA9ACUlJQgODrbYu7/d3Nzwyy+/oG7dumqnQtW0Z88ePPjgg0IxdLXrw3PkemjsDVJyqijOx9XP+qMs97LRMezs7JCVlcX3LEhV3ANA1bZgwQKLHfwB4MaNG3jnnXfUToNqQMYzv4buz0kb/AFAY++M2iEvCsUoLS3F0aNHJWVEZJlYAFiInJwcvPvuu2qnIeyzzz5T5UpWMo7oIKlzaYBabR6TlM3/OLWOgM5QTygGL6siW2endgJUPV9++aX0nfTeXnoMDHNF744GtPZxhIerDg72GmRdLcWpc4VIPJyHNTtzcP5KibQ+S0tLsWDBAsyePVtaTFJOZmamUHvHFmHV2+1fU1odHAMeRv7BZUaHOH36tLx8iCwQZwAsQEVFhdQNdD5eesTHNcavq1rh/ecb4MEuteHtpUctRy10Wg18vPR4oHNtzHi+AX5d1Qqfv94EjTzkXY25cuVK5OXlSYtHyhE9aurQrKekTP4hdpOOQu0vXzZ+DwGRNWABYAF++OEHpKenS4k1pHcdHIn3w9MPukGnvff+ETudBkP71MEvy1tiUC85D/zk5ubi66+/lhKLlCV6/l/n5i0pk7vZebYUan/16lVJmRBZJhYAFuCbb76REufFQR74/PUmcHWu+ZSsi7MWK97wxgsD3aXkosajLFRzxcXFQu11znL+vfwTrZObUPuSEnlLW0SWiAWABUhKShKOMTjcFbPGNYBG4NCIRgN8MK4hHg4WPzq1f/9+FBQUCMchZZWVlamdgmLKy8vVToFIVSwAzNzZs2fx22+/CcXw9tJj4aTGUvLRaoHPp4jvCSgsLMT+/ful5ETKMRjEju+V5V+TlMndygtuCLV3cnKSlAmRZWIBYOb27t0rHOOdUfVhcJL3V+3qrMNrz4gdwQKAXbt2SciGlFSnTh2h9mU3xE4RVKX0qthx0nr1xP8NE1kyFgBmTvSoUmNPPQaHy9m891fRD7uhsafYLIDozAYpr1GjRkLtC8/slpTJ3YrOHxFqX79+fUmZEFkm3gNg5s6ePSvUfmjfOtXa7V9TejsNIru7YMFG46d4Rb83Ul7Lli2xb98+o9sXpf8AhL8i/y6A8jIUpG4RCtGqVStJyVTf8ePHER8fj6SkJJw9exZarRa+vr4ICwvDyJEj0aZNG6H4aWlpWLZsGRITE3Hu3DmLuupcDc7OzvD29kZ4eDiio6MREBCgdkomxRkAMyf6bGnPdsJ3Tf+rh4LENgNmZGTISYQU07p1a6H2ZbmXcDtlo6Rs/qcgdQvK88SO8Yl+bzVRUFCA//znPwgODsbChQuRnp6O0tJSFBcX49dff8WiRYvQtWtXTJgwAUVFRTWOX1xcjIkTJyIoKAiffPIJ0tLSOPhXQ35+PtLS0jBv3jwEBwdj4sSJwidfLAkLADMnevtf2+aOkjK5m19je6H2169f5xPBZq579+7CMfL2LkBFsbyLnyqK85C7S+xFTAcHB9x3332SMqpaQUEBoqKiEB8fX+W/9/LycixevBj9+/evURFQXFyMqKgoLFy40KpPbSitrKwMCxcuRP/+/W2mCGABYOZEjyq5uyhwDesf6teVdzsgmaf27dvDxcVFKEZZ7mXc2BQHVMg4dleBm1umoCzvilCUoKAgk50CiI2Nxe7d1d8LsWvXLsTGxtYo/g8//GBEZvRPkpOTERcXp3YaJsECwMyxoic16XQ6RERECMcp+i0Zt5JmQuz17grkfP8uCtMThfMRfeK4ulJSUhAfH1/jdkuWLMGJEyfu+XVpaWlYsmSJMalRFRYvXoy0tDS101AcCwAzp9WK/RVdu6VcAXHputhNahqRW4nIZAYPHiwlTv6RFbjx7WSjlgPKi3Jx45uXcftn8SuktVotBg0aJBynOuLj442axSsvL69W4bB06VJ+SFBAWVkZli9frnYaimMBYOZEj2Gl/FYoKZO7/Xq+5puV/srLy4tFgAVwdZV3jLTw5HZcXfIYCk5sBspL792gvAwFx79BdvxAFJ76XkoOoaGhwj9X1SUyNV+dtomJ4rMh9M9s4c+WxwDNXJMmTYTa7zqWjwgJV/f+k20HxDZ2+fr6ykmEFLN69Wo8//zzUmOW5V3FzS2vIjf5Qzj6PwgH366wc28KrcETFSWFqCjOQ2n2byjK2I/CU9+jLPeS1P7Hjx8vNV5Vzp8/r2jbrKwso+NT1c6dO6d2CopjAWDmfHx8hNqv+v4m3hnlJf0ugJLSCmzZK3ZCgQWA+SovL8e0adPwwQcfKHZSoyzvCvIPf4H8w18oEv+ftGnTBn379jVZfzqdcptwiURxCcDMBQYGCrW/kF2CrxJzJGXzP0u33kDWVbE9AP7+/pKyIZny8vIwdOhQzJo1y+qOab7zzjsmXXZq3Nj4Nzi8ve/9lLJIfKpadf78LR0LADMXEhIivBFwyuJLyL0t7+WznPwy/L/PxY5hAZVrsWReMjIyEB4ejs2bN6udinQPPfSQST/9A0Dv3r2NbhsWFnbPr+nTp4/R8alqIn93loIFgJlzd3cXngU4f6UEo2ZkQcaHufJy4Jm3z+P3bLFP/y4uLrj//vvFEyJp9uzZg9DQ0GodP7M0Li4umDNnjsn7jY6ONmoZQKvVYsSIEff8umeffZbLDArQ6XSIjo5WOw3FsQCwAOHh4cIx1iXn4L8f/y5UBFRUABM/+R1b9+cK5xMaGgo7O25BMRfLli1Dv379kJ2drXYqipg7d64qU7oBAQGIiYmpcbtRo0ZV6156f39/jBo1ypjUqApjxoyxiSVKaziDJfS51hLuy05NTUXnzp2lxBrUyxXzX2qEOoaafWrIyS/DmPcvYF2ynP0EK1asQP/+/aXEIuOVlpYiLi4O8+fPVzsVxYwePVqVT/933Lmqt7pHAsPCwrBu3To4OlbvGu+axqeq9erVCxs2bIBer/xNp87Owm+1CI3hnAGwAAEBAejatauUWGt25uD+Een4fNsNlJbdu3YqKa3AF9tvoN3wdGmDf8OGDREZGSklFhnv5s2bGDBggFUP/n369MHMmTNVzcHe3h4bNmzAc889V+V0vVarxZgxY7B+/fpqD/41iU9V0+l0GDt2rMkGf3PAGQALmAEAgFWrVhk1lVgVby89okJc0bujAQFNHeFSS4tajlr8frUEp84XYcfhPKzZmSO83v93r776Kl577TWpMalm0tPTMWjQIKSnp6udimJ69uyJtWvXwmAwqJ3Kn9LS0rB8+fI/n+stLy+Ht7c3evXqhREjRgg/R3vnOeCkpCRkZmZazO83tRgMBnh7e6NPnz4YPny4yaf91Z4BYAFgAT8gZWVlmDhxolXc+W0wGJCSkoJ69eqpnYrN2rFjB5555hnk5Mg/HmouwsPD8fXXX6NWrVpqp0L0r9QuALgEYOaKiooQHR1tFYM/ALzyyisc/FUUHx+Pxx9/3KoH/xEjRmDdunUc/InugTMAZjwDcP36dQwaNAj79+9XOxUpfH19ceTIkRqtb5IcxcXFmDBhgqIPnNy5r0L0CWtjGQwGzJw5E88884wq/RPVFGcA6B/duZDFWgZ/AOjatSscHBzUTsPmZGdnIzIyUtHB32AwYOXKldixY4fwvRXG6NWrFw4dOsTBn6gGWACYoaNHjyI8PNzqNmitWrUKQ4YMQW6u+D0CVD3Hjx9HSEgIfvzxR8X68PHxQWJiIvr164egoCD8+OOPmDVrFurXr69Yn3e0atUKq1evxubNm23i6lYimbgEYGZLAImJiXjyySeRlyf20p458/Pzw1dffWUTF22oadOmTYiJiVH031L37t2xcuVKeHh43PX/KygowLJly7BkyRKcPHlSar89evTA2LFjERkZyaNvZLHUXgJgAWBGBcDKlSsxduxYlJTIPXZnjgwGAxYsWICoqCi1U7E6FRUVmDlzJt5++21F1+OHDx+ODz/8EPb29vf82n379uHbb7/F1q1bcfr06Rr3pdPp0LZtWzz66KMYMGAA/Pz8jEmZyKywABBnFQXAzJkzMW3aNKt7fa0qGo0GEyZMwLRp0/gpTpKCggKMHTsWq1evVqwPnU6Hd999Fy+88IJR7bOysvDTTz/h2LFjyMzMRFZWFvLy8pCbm4vy8nK4urrCzc0NjRs3hp+fHwIDA9G1a1e4uLhI/k6I1MUCQJxFFwBlZWV4+eWXsWjRIlXzUFPPnj3x+eef83igoIsXL2LIkCE4fPiwYn0YDAYsW7YMERERivVBZCtYAIiz2AKgqKgIMTExWL9+vWo5mItGjRph5cqV6NSpk9qpWKRjx47hiSeewPnz5xXro3nz5lizZg1atWqlWB9EtkTtAoCnAFRy48YNREZGcvD/w4ULF/DAAw9g2bJlaqdicdauXYs+ffooOviHh4dj165dHPyJrAgLABVkZGSgV69e2Lt3ryLx71zIYmmKioowbtw4TJgwAcXFxWqnY/bKy8sxdepUREdH4/bt24r1c+eBlDp16ijWBxGZnmWOFBbsxIkT6Nu3r2Jn/Js1a4affvoJX3zxBZo2bapIH0pbvHgxwsPDFf1Ea+ny8vIwbNgwzJo1S7GNo3Z2dvjggw8wc+ZM2NnZKdIHEamHewBMuAdA6TP+QUFBWLNmDdzd3QFUfqJevnw5PvvsMxw/flxqXy4uLrh165bUmH/n5eWFL774At27d1e0H0uTkZGBwYMH48SJE4r14eHhgRUrVqBHjx6K9UFk67gHwEasXLkSAwcOVGzwj4yMxObNm/8c/AHAwcEBo0ePxoEDB7Bnzx48//zzQuenPT09MWLECCQkJCArKwuzZs1S9N3sy5cv45FHHrHq9+pras+ePQgNDVV08A8MDERycjIHfyIrxxkAE8wAKH3GPyYmBrNnz672WfqLFy9i9+7dSE1NRUZGBs6ePYtr164BqHw0RqPRoFGjRvD09ISvry/uu+8+dOrUCS1atLgr1t69e/HUU0/h8uXLUr+nvxsyZAg+/vhjm37hbenSpZg4caKi+yMiIyPx2WefwWAwKNYHEVVSewaABYCCBUBZWRleeuklLF68WJH4Go0Gb7zxBiZPnqxI/Oq6ePEinnrqKcUfLmrXrh1WrlxpsXsbjFVaWoq4uDhFZ0I0Gg1eeuklTJ061WI3kVqC48ePIz4+HklJSTh79iy0Wi18fX0RFhaGkSNHok2bNkLx09LSsGzZMiQmJuLcuXOq33Ni7pydneHt7Y3w8HBER0cjICDA5P0LYgEg0lipH5CCggJER0dj8+bNisTX6/WYN28ehg0bpkj8miouLsYrr7yi+IVGbm5uWLp0Kfr27atoP+bi5s2bePrpp5GUlKRYH46Ojvj0008xePBgxfqwdQUFBZg8eTKWLl36rzOBWq0WI0eOxIwZM2r8amZxcTFiY2OxZMkSlJWVyUjZ5uh0OsTExOC9996r1vXWMrAAEGd2BcD169fx+OOP48CBA9JjA5W3sa1YsQJ9+vRRJL6IFStWYPz48SgsLFSsD61WiylTpmDSpEnQaKzhn/A/S09Px6BBgxR9FbJBgwb46quveAGTggoKChAVFYXdu3dX6+tDQkKwcePGahcBxcXFiIqKwg8//CCQJd0RGhqKjRs3mqQIULsA4FyfZBkZGQgPD1ds8Pfy8sL27dvNcvAHgGHDhiExMVHRp1nLy8sxbdo0q35aeMeOHQgNDVV08O/YsSN27drFwV9hsbGx1R78AWDXrl2IjY2tUXwO/vIkJycjLi5O7TRMwho+PpnNDMDRo0cxYMAAxTbE+fn5YePGjfD19VUkvkzXrl1DdHS0olPXgHU+LfzJJ5/g1VdfVXQqd/DgwZg/fz6cnJwU64OAlJQUdOvWrcavMmq1Wuzfvx+BgYFVfl1aWhqCgoI47S+ZTqfDgQMH0Lp1a0X74QyAlUhMTMSDDz6o2OAfFBSEpKQkixj8AcDd3R0bN27ExIkTFZ2mT09PR2hoKDZs2KBYH6ZSXFyMsWPH4pVXXlHsF7pWq8Wbb76J+Ph4Dv4mEB8fb9STzOXl5YiPj7/n1y1dupSDvwLKysqwfPlytdNQHAsACUx1xr9u3bqKxFeKTqfD22+/jS+//FLRY2V5eXl4+umn8frrr1vsL8Ps7GxERkYq+kvHYDBg5cqVVr93wpyITM1Xp21iYqLR8alqtvBnywJA0MyZMzF69GiUlJQoEj8mJgYrV6606PPv/fv3x65du4QuIbqXiooKzJkzB4899tifdxpYiuPHjyMkJAQ//vijYn34+PggMTER/fr1U6wPupvIddbVaZuVlWV0fKrauXPn1E5BcdbwMUCVPQC2csZfptzcXIwaNQqbNm1StB9vb2+sXLkS9913n1HtU1NTceTIERw7dgxnz55FZmYm8vLy/txwqNfr4enpiYYNG6JFixYIDAxEUFAQAgICavzJetOmTYiJiVFs9ggAunfvjpUrV8LDw0OxPuifeXl5Gf136+zsjCtXrigWn6pmMBgUv+BM7T0ALACMKABs7Yy/TBUVFZg1axbefvttRafrHR0dMXfuXDz11FP3/Nry8nLs2bMHX3/9NbZv346LFy8a1ae7uzseeughDBgwAH369KnyAZ2KigrMnDkTb7/9tlFrxNUVHR2NOXPmmOxcM/1fHTt2xMmTJ41q27p1axw+fFix+FS1gIAAHDp0SNE+1C4AuARQQ9evX8cjjzyi2OBvMBiwdu1aqxz8gcqZjUmTJmH9+vVwc3NTrJ/CwkKMGTOmyqeFc3Nz8dFHHyEwMBARERFYtmyZ0YM/UHnyYcWKFRg4cCACAgLw/vvv4+bNm3d9XUFBAZ599llMmzZNscFfp9Ph/fffx7x58zj4q6imdnC2AAAgAElEQVR3795Gtw0LC7vn15jrcWBrIPJ3Zyk4A1CDGYCMjAz0799fsbPZXl5eWL9+PTp06KBIfHOTkZGBoUOH4pdfflG0n6CgIKxYsQINGjQAUPlK4qJFi/D+++/j+vXrivbt6uqK8ePH48UXX4STkxN+//13PPHEE/jpp58U7fOLL76wiV9g5i41NRXBwcE1nu3SarU4cODAPa+mPXnyJLp06WKxm1/NlU6nw8GDBxU/XswZAAtx9OhRhIeHKzb4+/n5ISkpyWYGfwDw9fVFUlIShgwZomg/Bw4cQPfu3fHjjz9i//79CA4ORmxsrOKDPwDk5OTg7bffRufOnbFw4UKEhIQoOvj7+fkhOTmZg7+ZCAgIQExMTI3bjRo1qlr30vv7+2PUqFHGpEZVGDNmjFXdLfJvOANQjRmAxMREPPnkk4pttgkKCsLatWst7pifTJ9++ini4uIUO00BVO6tKCsrU3TNXU29e/fGF198AVdXV7VTob+o6VW9YWFhWLduHRwdHRWJT1Xr1asXNmzYoOhT53dwBsDM3VnT5Rl/ZT3//PPYunUrvLy8FOujpKTEagf/cePGYf369Rz8zZC9vT02bNiA5557rsonu7VaLcaMGYP169dXe/CvSXyqmk6nw9ixY002+JsDzgBUMQMwc+ZMTJs27V9f7xIVExOD2bNn84f2L0z1tLC1sLe3x5w5cxAdHa12KlQNaWlpWL58+Z/P9ZaXl8Pb2xu9evXCiBEjhJ+jvfMccFJSEjIzM/kc8D0YDAZ4e3ujT58+GD58uMmn/dWeAbDUAsAHwP0A2gOYKhLon35AeMZfXaZ6WtjSeXh4YOXKlejevbvaqRCREVgAVF8PAIMARACQdqXc3wsAnvE3H6Z4WthSBQYGYs2aNfDx8VE7FSIyEguAqtUCMOaP/1op0UF2dvafj6Jcv34djz/+uGJP+RoMBqxYsYJnd2vg6NGjGDp0qE1cy1ldkZGR+OyzzxR9X4GIlKd2AWCumwD1ACYCOAtgNhQa/AGgQ4cO+PLLL3HmzBmEh4crNvh7eXlh+/btHPxrqEOHDtizZw/Cw8PVTkV1dy5RWrVqFQd/IhJmjjMAYQDmA1D2Iea/0el0il2m4efnh40bN1rMU77mqKysDG+++SbmzJmj2KZMc+bk5IT58+dj8ODBaqdCRJKoPQNgTgWAHYDXAUyB+c5M1Fjnzp2xdu1aPsQiydatWzFy5EjcunVL7VRMpn79+vj666/RqVMntVMhIolYAFTyALARgFVtZ46MjMSyZcv+3GNAcpw6dQpPPPGEYrcympOOHTvi66+//vMaYyKyHmoXAObwSbs5gL2wssE/JiYGK1eu5OCvgFatWmH37t1W/7b94MGDsX37dg7+RKQItWcAmgLYBaCxynlIo9FoMHXqVEyaNEntVKye0k8Lu3o6onWPemja3g0e3s6o5aKHnV6LW9lFyM66jbNHryN19xXcypZ7TFGr1eKNN97Ayy+/DI1G7R9RIlKK2jMAav52qQ9gDypnAKwCz/irIyEhAY8//ri0eK71HBE6rBnahnlBo636R6S8rAKpe64gcelp5F4rktJ/o0aNcPLkSWi15jBBR0RKUbsAUOs3jD2AdbCiwd9gMGDt2rUc/FUg8737wBAvjP6oC9qF17/n4A8AWp0GbUK98Nz8IAT0qCclhwsXLmDv3r1SYhER/Ru1CoA5ALqp1Ld0POOvrvXr10uJE/RYE0S9HAgHZ7sat3WoZYcBk9ugcz85q1lr1qyREoeI6N+osQTwAIBtKvUtHc/4q6u0tBTNmjXDtWvXhOIE9PTCgMmBwvlUVFTg67d/welDYvl4enri7Nmz3ANAZMVsbQnAAGAxrGTwDwoKQlJSEgd/FR0/flx48Hf1dETkeDmvgGk0GkS9FIja7g5Cca5evYrffvtNSk5ERP/E1AXASwC8TdynIiIjI7FlyxbUrVtX7VRs2tGjR4Vj9BreHPaO8p5kdnC2Q88hvsJxDh48KJ4MEdG/MGUBUA/AyybsTzEjR47kGX8zIVoAuHg4ILCnnM17f9WhT0O4eIjNAhw6dEhSNkREd6v5bifjjUPlEoA0TRztEVWvLnrVdYW/sxPc9XZw0GpwoagYv+YXYuf1W1h35RqyCotldov7778fOp28T4xkvLS0NKH2bcKqt9u/prR2GrTs4oHDWy8YHSMzM1NiRkRE/5epZgAcUPmkrxTejg5YFNAMx7u1x7t+3ujr7oomjvaopdNCp9HA29EBfdxd8f/8muB4t/aID2yOhg7yjootWLBAWiwSk52dLdTeO7COpEzu1ryTu1D7y5cvS8qEiOhupioAIgF4yQg0yMsd+4Pa4MkGHtBVY4e0nUaDwfXdcSS4LQZ4yVmvT0lJwY8//iglFom5ceOGUPt6vso9q1u3YS2h9leuXJGUCRHR3UxVAAySEeQF7/qIb9McLnY1n36vbafD8jYtMLZJfRmpSDt7TmJEC4BaLnpJmdzN4CY265SXlycpEyKiu5miALAH8IhokIFedfGen7fQ+UENgBktvaXMBCQkJAjHIHF6vXIDuNpk3nBIRPR3pigA7oPg5r8mjvaY37qplGQ0AOb5N0UDwT0BmZmZwhvQSJzBIDaFf/tWiaRM7pZ3Q2zzqYOD2CkCIqKqmKIAEH7md1rzJnCWuOu+tp0Ob7UQv7KVx7TU5+LiItT+SoZy0+zXL9wWal+rltgeAiKiqpiiAGgr0riRgz0GStq891ePe7mjkeAsQGpqqqRsyFj164vt6cg8flNSJnc7fUTshsKmTeXMehER/RNTFABCL/49Ud+9Wrv9a0qv0SBKsLA4fvy4pGzIWAEBAULtj/9wCRXlFZKy+Z/y0gqkHxQ7otiyZUtJ2VTfiRMnMGnSJHTq1An16tVDvXr10KlTJ0yePJkFL5GVMUUB4CPSuLtbbVl53CW8rqtQ+99//11SJmQs0QIg91oRjifLP2//8/e/41Z2kVAMPz8/SdncW1FRESZMmIDg4GDMnz8faWlpyM/PR35+PtLS0jBv3jwEBwdj4sSJKC6We7EWEanDFAWA0AjexqDcOmjLWo5C7W/eVG76mKqnffv2wjF2fn4GxQVlErKpVJRfij1fZQjH6dq1q3gy1VBUVIT+/ftj8eLFKC8v/9evKysrw8KFC9G/f38WAURWwBQFgNB7h3X1yt1W7OUgdoQsJydHUiZkrPvvvx8eHh5CMW5lF2LT3DRAwkpARUUFNnxwArnXxT79N2jQQHh2o7omT56MXbt2Vfvrk5OTERcXp2BGRGQKpn4NsMbKKuSvz95RLhhbqzX7Pz6rp9Pp8MADDwjHSfvxCrYv/lWsCKgAvlucjtOHxDb/AUDv3r2hUWDvy9+dOHEC8fHxNW63ePFiHoMlsnCmGMHyRRpfKlLunPa1klKh9nwK2DxERkZKiXNoUxbWv38chfk1/3dRlF+KdTOO49CmLCm59O/fX0qce1m+fHmV0/7/pqysDMuXL1cgIyIyFVO8BpgLwM3YxmcKitBCcK3+36TlFwi1ZwFgHiIiItCgQQNcvHhROFbqnivIOnkLYU81RZuw+tDqqv4UXl5ageO7LmPn8t+Ep/3v8PX1xYMPPigl1r0kJiaq0paI1GeKAiATgLexjbdl38QD7mK79f/Nzuu3hNqzADAP9vb2GDNmDN58800p8W5lF+LbD9OQvOIs/Lt5ommHuvD0doZDLTvoHbS4da0I1y7cxtmfryN19xVpA/8dMTExJlteysoyfsbi3LlzEjMhIlNTfpERiAfwrLGNGznY40T39rCTvB5aWlGBNnuPIavQ+N3Mo0ePxpw5cyRmRca6du0a/P39cfu22O17anNxccGJEydMVlw6Owvt0UV+vtAKH5FNE/35g+AYboqPGSkijS8UFeOL38UuVPknX126JjT4A0CXLl0kZUOi3N3dMWHCBLXTEBYbG8uZJSIyCVPMAHQBcEAkQAMHe/zctS0Mkt4DyCktQ9CBFOEC4NixY2jRooWUnEhcQUEBOnfujLNnz6qdilGaNWuGw4cPm/QRIM4AEKnHFmYAfkblRkCjXSwqxojjv0HGja0VAF5IOys8+Ht4eKB5c6FbjkkyJycnzJw5U+00jKLRaDBr1iy+AEhEJmOKAqAEwBbRIFuzb2LSr5lCRUAFgJdOZWLDleui6eDRRx81yTltqpmIiAiMHj1a7TRqbPz48Sbb+U9EBJhmCQAABgBYJyNQhEcdxAc2R227mi0H5JWVYXTqGXx75YaMNJCYmIjg4GApsUiu4uJiPPjggzh48KDaqVRLUFAQtm/fDr1e7GZKY3AJgEg9ai8BmKoAsEflcUCxt1v/UN9Bj1ebNsIzDT3veTqgtKICqy9dw7TfsnChSM795X5+fvj55585A2DGLly4gLCwMLN/sKlZs2b47rvv0KBBA1X6ZwFApB5bKQAAYCqAN2UGbOhgj4c96yDCow58HR3Q2NEeGmhwraQUx/NuY8+NXHx9OVv6bYLvvvsuXnzxRakxSb7Tp08jIiLCbIuAxo0b47vvvoOPj9CDmUJYABCpx5YKAE8ApwG4mLBP6Ro0aIBffvkFtWop90ohyWOuRUDjxo2xefNmkz75+09YAJhGbm4uEhISkJycjJSUFGRmZiInJwclJWIfTvR6PVxdXeHj44N27dohNDQUERERMBgMkjInJdlSAQAAUwC8ZeI+pfr4448xYsQItdOgGsjKysJTTz2FQ4cOqZ0KAKBbt25YsWIF6tWrp3YqLAAUlp6ejtmzZ2Pt2rUmu6SqVq1aGDRoECZOnMhjymbO1goAZwDHAfiauF8pWrZsiUOHDsHOzhQ3KJNMRUVFeOWVV7B48WJV84iJicHMmTNhb2+vah53sABQRkFBAd566y3Mnz8fpaVij44ZS6/XY9y4cZgyZQocHZV5T4XE2FoBAAB9AHynUt9G0+v1+O6773j7n4XbsmULJk2ahMzMTJP226xZM8ydOxfh4eEm7fdeWADId/r0aQwdOhSpqalqpwKg8sbSVatWoX59KXuwSSK1CwA1HrTfAeATFfoVMnXqVA7+VuCRRx7BkSNHEBsbCycnJ8X7q127Nl555RUcPHjQ7AZ/ku/YsWPo3bu32Qz+AHDw4EGEhITg+PHjaqdCZkatT+F6AEkAeqjUf4088MADWL9+PY/9WZlr165h8eLFWLRoES5fviw1tqenJ8aNG4fRo0fD1VWZ1yxl4AyAPKdPn0bv3r2RnS3/7RIZGjVqhN27d8PLy0vtVOgPas8AqDmieQHYA8Csd6l06NABW7ZsQZ06ddROhRRSVFSErVu3YvPmzdi+fTtu3DDusihXV1dERkYiKioK4eHhFnGtLwsAOQoKChASEmJWn/z/SZcuXbBt2zaL+LdpC2y5AAAAHwC7ATRROY9/1KZNGyQkJPB1NhtSWlqKgwcPIiUlBSdOnEBqaiouXbqEW7duIT8/H8XFxXBzc0PdunXh7u4Of39/3HfffejQoQPatWtnNpv7qosFgBxxcXH46KOP1E6jWuLi4vD666+rnQaBBQAANAWQAKCV2on8VUBAABISEuDh4aF2KkSKYQEgLj09HZ06dVJtt39NGQwG/PLLL1wKMANqFwBqbAL8u7MAuqNyJsAsDBgwADt37uTgT0T3NHv2bIsZ/AEgLy8P06dPVzsNMgPmMANwhx2A1//4r2Yv/chKwM4OU6dOxX//+19u+CObwBkAMbm5uWjWrJnJLvmRxdnZGWfOnOGNgSrjDMD/lKLyrYAwACmm7jw4OBg7d+7ExIkTOfgTUbUkJCRY3OAPVBZu27ZtUzsNUpk5FQB37AHQEcAEAJeU7szb2xvLly/Hjh07cP/99yvdHRFZkeTkZLVTMJol505ymOudtiUA5gJYBCAGwHMAApTo6Oeff+Y1mURklJQUk09WSmPJuZMc5jgD8FcFAD4GEAigG4A5AE7K7ICDPxEZKyMjQ+0UjGbJuZMc5l4A/NU+ABMBtEblvQH9UblngIhIFbm5uWqnYLRbt26pnQKpzBp2u1WINLb1Xcxk23gKQIzIn59Oq0FhUhuh/vVhYtP4tv73pzaeAiAiIiKTYwFARERkg1gAEBER2SAWAERERDaIBQAREZENYgFARERkg1gAEBER2SBzvQqY/iYvLw+//fYb0tPT8fvvv+PixYu4evUqsrOzce3aNeTl5eH27dvIy8tDaWkp8vLy/k97Z2dn6PV62NnZwdXV9c//3Nzc4OXlBS8vLzRs2BANGzaEr68vmjRpAjs7/vMg08jNzUVCQgKSk5ORkpKCzMxM5OTkoKSkRCiuXq+Hq6srfHx80K5dO4SGhiIiIoKv4BGBFwGZ3UUYmZmZSElJwenTp//PfxcvXjRpHnq9Ht7e3mjevDkCAwPRpk0bBAYGwt/fH3q93qS5kHLUvggoPT0ds2fPxtq1a032ql6tWrUwaNAgTJw4ES1atBCKxYuASITaFwGxAFDxByA/Px8HDhzA3r17ceTIERw5cgTXrl1TLZ/qcHJyQseOHdG9e3d069YNwcHB/DRlwdQqAAoKCvDWW29h/vz5KC0tFcrBWHq9HuPGjcOUKVOMfhOEBQCJYAEgzmIKgNLSUuzbtw87duzAnj17cOTIEeEpTrXpdDq0adPmz4IgLCwMbm5uaqdF1aRGAXD69GkMHToUqampQn3L0qVLF6xatQr169evcVsWACSCBYA4sy4Arl+/ji1btmDbtm1ISkqy+gc4dDodgoODERERgYiICPj7+6udElXB1AXAsWPH8OijjyI7O1uoX9kaNWqE9evXo02bmg3ILABIBAsAcWZXAFy/fh3ffPMNNmzYgOTkZNWmOM2Bv78/Hn/8cQwcOBAtW7ZUOx36G1MWAKdPn0bv3r3NbvC/o1GjRti9eze8vLyq3YYFAIlgASDOLAqAkpISfPfdd/jyyy+xbds2FBcXS4lrTdq3b4+nnnoKQ4YMQd26ddVOh2C6AqCgoAAhISFmM+3/b7p06YJt27bBwcGhWl/PAoBEqF0A8B4AQRkZGXj99dfh5+eHwYMH49tvv+Xg/y+OHTuGSZMmoUWLFnj66aexc+dOVFQI1W9kId566y2zH/wB4ODBg5g5c6baaRCZBGcAjKiAKyoqkJiYiAULFmD79u0oLy8XScGmtWrVCs8//zyGDh3K0wQqMMUMQHp6Ojp16mQxS2EGgwG//PJLtZYCOANAIjgDYEFKSkqwatUqBAUF4bHHHkNCQgIHf0GnTp3ChAkT0LJlS0ydOhVXr15VOyWSbPbs2RYz+AOVl25Nnz5d7TSIFMcZgGpUwEVFRYiPj8fcuXNx/vx5ke7oHpycnPDMM89gwoQJ8Pb2Vjsdq6f0DEBubi6aNWtmskt+ZHF2dsaZM2fuOSvFGQASwRkAM1ZSUoLPPvsMbdu2xcsvv8zB3wQKCgqwcOFCtG/fHi+99BIuXbqkdkokICEhweIGf6ByYNy2bZuifVSIfXYhEsYC4B9UVFRg9erV6NChA8aPH48LFy6onZLNKS4uxoIFC9C2bVtMmTIFOTk5aqdERkhOTlY7BaNZcu5E1cEC4G8OHz6Mvn374tlnn0VGRoba6di827dvY/bs2QgMDMS8efMsai2ZgJQUsSlqNR0/flzR+BqrWIElS8YC4A8XL15EdHQ0wsLCsG/fPrXTob+5ceMGJk+ejK5du+KHH35QOx2qJksuos+ePatofC4BkNpsvgAoLy9HfHw87rvvPqxZs4bn0s1camoqHnnkETz99NM8MWABcnNz1U7BaEpf280ZAFKbNfwLFBqx77//fvz000+yclGUi7MWTerZw7e+Hk287OFdT49XF4ltkusd3Ry3rhUh50ohbl0two1LBSi6bRnT7G5ubnjnnXcwfPhwaDTW8E/Z9JQ+BSC0S16jQU54Z6PbA4Ah8aBQeyW/P60WKEpqa3R7gKcALJ3apwDsRHu3dOY4+NvrNQjwdUS75o5o28wR7VpU/u8ernf/dYkWAF0H+tz1f7uVXYRrWfnIPn8bl87k4vf0W8g+fxsV5eY1O3Ljxg2MGzcO69atw6efforGjRurnRIRkcWw+QLAHBictAgOrIWe7Z0R0t4ZnfxrwdFevU+0Lh4OcPFwQNMO/7uvv6SwDBd/y8W54zeRmXIDWSdvoaSoTLUc/yopKQldunTBrFmz8OSTT6qdDhGRRWABoJLWvg7o180Fkd1c0Lm1E+x05j2FrXfUwTuwDrwD66DHE74oKy1HVloO0g9dQ/qhbFzLUvesd05ODkaNGoWtW7di3rx5cHV1VTUfIiJzxwLARDQaIDiwFqJ6uuLRHi5o3she7ZSE6Oy08GnrBp+2bugzogWuXyzAqb1XcHzXZVw+k6daXhs2bMDPP/+M5cuXo1OnTqrlQURk7lgAKMzHS4+nHnTD0w+6WfygX5W6DZzQdaAPug70Qfb5fJzYdRnHdlzCrexCk+eSkZGBPn364K233sL48eNN3j8RkSVgAaAAvZ0GA0NdEdOvLnq2c4bWxg5bejRxRuiwZggZ2hSnj1zDT9t+x+nD10y6ibCkpARxcXH4+eefMW/ePNSqVctkfRMRWQIWABK5OGvxzENu+O9gT3h76dVOR3UarQZ+nT3g19kDN68U4qeEC/gp4QIK8013zHD16tVIS0vDV199BV9fX5P1S3QvvAeA1MYCQAIfLz1eHuqJpx9yg7OjjX3cr6Y69RwRPrw5uj/ug5+2/479G84h/2axSfpOSUlBaGgovv76awQHB5ukT6J7saabAHNzc5GQkIDk5GSkpKQgMzMTOTk5KCkpEYqr1+vh6uoKHx8ftGvXDqGhoYiIiLjnK41UPdZQgqr2U9TIQ4/Ypzwx4pG6sNer80cpehHI65vCJWVSMyVFZTiy9QL2rTuH/BzTFAKOjo5YvHgxBgwYYJL+LAEvAqoaLwKqWnp6OmbPno21a9ea7NXHWrVqYdCgQZg4cSJatGhhkj6VovZFQPy4agQvNzt88EIDnFzZCs/1d1dt8LdkegcdgqO88cKSruj1dDPYO+kU77OwsBDDhw/H3LlzFe+LyJoVFBQgLi4OnTp1wueff27SJ59v37795ymf1157DYWFpt9obC1YANSA3k6DiU94IG1FK4x/3EPVy3qshd5Rh+6DfTFuUVd0jGgErcL3IZSXl+PVV1/Fa6+9xncfiIxw+vRphISE4KOPPlL1dc6SkhJ8+OGHiIiIwKVLYjei2ioWANXUt7MBP8f7YcbzDVC7Fv/YZHOuY4+Isa0Q82FnNGmt/CU+H374IcaPH4/y8nLF+yKyFseOHUPv3r2Rmpqqdip/OnjwIEJCQhR/vtkaWfpIFq10B4099Vj7jg+2zmyKVt4OSndn8+r5GjB8RkdEjveHU21lT1LEx8dj5MiRqn6KIbIUp0+fxqOPPors7Gy1U7nLhQsXMGDAAFy+fFntVCyKJRcATwP4TMkOhke44eelfnish4uS3dDfaYAOfRvi+U+D4d/NU9GuVq9ejZiYGJSVmce7BkTmqKCgAEOHDjXLwf+OCxcuYMiQISgqKlI7FYthqQXAMABLoVD+jTz0+PY9Xyx5pTHqGJTfnEb/rJarHo/HtUXUpEBFZwPWrFmD0aNHswgwM9Z0TM7SvfXWW2Y17f9vDh48iJkzZ6qdhsWwxAJgKIDlABQZmQeHu+LoMj9EBNdWIjwZITDEC6M/6QLfdm6K9fHVV19h3Lhx3BhI9Dfp6emYP3++2mlU28cff8ylgGqytAKgH4DPocDg76DX4KMXG2LFG9781G+Gatd1wLC3OyB0WFNotMqcFPjiiy/w2muvKRKbyFLNnj3bovbJ5OXlYfr06WqnYREsqQAIAvAVFLi90LeBPZI/aY7no9xlhyaJNFoNeg5piqf+331wrqPMw0pz587lPQFEf8jNzcXatWvVTqPGVq5cibw89V4ltRSWUgC0ALAJgPQXXR4Kqo2Di1qgYysn2aFJIT5t6mDknE5o0EKZZZrXXnsNX331lSKxiSxJQkKCSS/5kSU/Px/btm1TOw2zZwkFgCeAhD/+p1Rjo9yxcboP3Gpzyt/SuHg4YviMjmgTVl967IqKCowdOxb79u2THpvIkiQnJ6udgtEsOXdTMfcCwAHAt6icAZBGp9Vgzn8aYu6LDaFTaD2ZlGdnr0X/iQHoOcRXeuyioiIMGTIEGRkZ0mMTWYqUFLG3BtRkybmbirkXAPMASH2+zeCkxfp3ffDCQK73WwUNEDqsGSLH+0u/Rjg7OxuDBg3iWiLZLEsugC05d1Mx5wJgNICRMgPWMeiQMKspHuYRP6vToW9DDHqtLezs5f6TTk1NxdixY6XGJLIUubm5aqdgtFu3bqmdgtmTvqNekmAAH8kM6FZbhy3v+6Jza+n7CMlM+HX2wNBpHfD1W8dQXCDvUp9169ahc+fO+M9//iMtJt2bxipeK7dsxcXGP9Wt0Wrw2je9hPp/p1+S0W15I+C9meMMgBeAtahc/5cT0M0OSXObcfC3AT5t6mDom+3hUEtubTtlyhTs3btXakyqGm8CJFKWuRUAGgDLADSSFdDLzQ6Jc5uhTTNHWSHJzDUJqIMhU9tB7yjvdEdJSQlGjBiBmzdvSotJRKQmcysAXgDwkKxgLs5abJrhy1f8bFCTgDoY/Ho7qXsCzp8/z/0AJsQlACJlmVMBEAhghqxgTg5afDPdF/e15AU/tqppezcMjG0j9XTAN998g88//1xaPPp3XAIgUpa5FAAOAL4EIGW01ttp8NU0b/Ro5ywjHFkwv84eeHhcK6kxX375ZZw9e1ZqTCIiUzOXAmAagA6ygs2f2IhH/ehPHfo2lHpZUH5+PsaPH8+XA4nIoplDAdAewEuygo1/3APRDyv3bCxZptAnm0m9NjgpKQnLly+XFo+IyNTULgB0ABZB0n0EfToZMON5+XfDkxXQAP8mBH8AAB30SURBVJH/8Zf6gFBcXBzfHSejcQKJ1KZ2ATAOQBcZgXwb2OOLKU1gJ/k6WLIedvZaDJ7SDrXryjkVcuvWLcTFxUmJRbZHw19VpDI1C4DGAN6REahyx78PPFzN9WJDMhe16zqg/8sB0Eh6BGr16tXYtWuXlFhkWzgDQGpTswD4AICU+dgPxjVAgC8v+qHq8WnrJm1TYEVFBf773/+ipKRESjwiq8ECx+ypVQAEARgkI1BUiAtGPVpXRiiyIT2H+KJpezmbRU+ePInPPvtMSiyyHVa/BGDt358VUKMA0ACYDQn/PLy99Fg4qbF4RmRzNBoNHp0YAKfaeinxpk+fztfHqEasfgnA2r8/K6BGATAQQDfRIFotsPTVJnCrLe++d7Ittes64MHRflJiZWdnY+bMmVJiERGZgqkLAHsA02UEGhlZFyHtedMfiWkTVh+tunpKiTV//nxcvHhRSiwiIqWZugAYCaCFaJCGHnpMH8Pz/iTHw+NaSVkKKCwsxKxZsyRkRESkPFMWAHoAk2UE+nB8Q7g6c+qf5HB2tUevZ5pLibV06VJkZWVJiUXWjZsASW2mLACeBuArGuSxHi6ICnERz4boL+57sAEa+7sKxykqKsIHH3wgISOydtwESGozVQFgB0D4yjRHew1mvdBAQjpE/5dGo0HE2FZSLgj68ssvcf36dQlZEREpx1QFwBBIWPv/z+Me8K1vLyEdort5NTWgQ1/xAvP27duIj4+XkBFZMy4BkNpMVQBMEg3gWccOrwyTs1ub6N+EDmsGeyfx/SWLFi3i7YCCrH2K3Nq/Py4BmD9TFAAhANqJBnkjuh43/pHiDG726DbQRzjOhQsXsGHDBgkZEREpwxQFwDjRAH5NHBDTj9f9kmkEPdYEtVzFjwXOmzdPQjZERMpQugBoACBKNEjsME8+80smo3fUoWuUt3Ccw4cPY//+/RIysk3WvkZu7d8fmT+lC4DnUHn+32g+XnoM7VNHUjpE1dPpkcZwdhXfcDp//nwJ2dgma18jt/bvj8yfkgWADkCMaJCXh3pCb8dSmUxL76hDUP8mwnE2b96MmzdvSsiIiEguJQuA3gAaigSoX9cOwyPkPNlKVFP3RzSCvaPYxtOioiJs3LhRUka2hVPkRMpSsgB4SjTAuAHucHJQ48FCIsDR2Q7tJdwLsHr1agnZ2B5OkRMpS6nR1RmCm//s9RqMeIQ7/0ldXR5tInw74J49e/hKIBGZHaUKgCgABpEAA0NdUc/NTlI6RMZxq++E5veLFaJlZWVYu3atpIxsB5cAiJSlVAHwpGiAUTz3T2bi/ocaCcdYs2aNhExsC5cAiJSlRAFgABAuEqC1rwN6tHOWlA6RmBad3FHb3UEoxpEjR5Ceni4pI9vAGQAiZSlRADwAQOi3ZXREXf7wk9nQ6jRoF15fOM6mTZskZGM7OANg2Sr4GIDZU6IA6CfSWKMBBoaJv8tOJFNgiJdwjKSkJAmZEFkGDZ8DNHuyCwAtgAiRAN3aOMPHS/wediKZ6vka4Okjtiy1b98+FBQUSMqIiEiM7AKgCwChj0qDw/npn8yT6CxAYWEh9u3bJykbIvPGJQDzJ7sA6CPSWKfVYEAoCwAyT/5dPYVjcBmAiMyF7AIgRKRx59ZOqF+XZ//JPHk0cUbdhrWEYuzcuVNSNkTmjXsAzJ/MAsAOQLBIgAc615aUCpEy/Dq7C7X/5ZdfkJ2dLSkbIiLjySwAOgIQGsEf6CJ0eSCR4vy6eAi1Ly8vR3JysqRsiMwX9wCYP5kFgND0v1ttHTr5O8nKhUgRTVq7ws5e7MfmwIEDkrIhMl9cAjB/MguAbiKN+3Y2QCf46AqR0nR6LRr7i21UPXLkiKRsiMwXZwDMn8wC4D6Rxj159S9ZCO82dYTaHz16FCUlJZKyISIyjqwCoA4Ab5EAnVuL7a4mMhUfwQKgsLAQJ0+elJQNEZFxZBUA7QHjF3wc7TVo28xRUipEymrg5wKN4HLViRMnJGVDRGQcmQWA0e5v6QR7Pdf/yTLYO+rg3khsxio1NVVSNkRExpFVALQTaczpf7I0Df3E7qxgAUB87ZDUJqsAaCXSmNP/ZGnqNxMrAE6dOiUpEyIi48gqAJqJNG7l7SApDSLTcG8idmolKysL5eXlkrIhS6ThqiepTEYB4AigvkgAFgBkaTyaiC1bFRcX4+rVq5KyISKqORkFgK9IHC83O7jV1klIg8h0XD0cYe8o9u/2woULkrIhIqo5GQVAU5HG/PRPFkkDuDUQu7qaBUDVrH2PHDcBktpkzQAYzae+vYQUiEzPxVNs8yoLALJqLHDMnowCwFOkcX13OwkpEJmeKwsARVn7Hjmr3wRo7d+fFZBRAAg9kN6gLgsAskwuHmLLV1lZWZIyISKqORmjb12RxvVYAKjqnX5Jaqdgsy5duqR2CrC3t0dxcbHR7fPy8mAwGCRm9D/WPoNs9XsArP37swLqzwC46yWkQGR5bt26pXYKwoM3ZzGILJfqBUBdHgEkG5WXl6d2CnBzcxNqn5iYKCkTIjI1GQWA0J2otRxlXUZoW27ll2PqZ5fVToME5Obmqp0CmjUTusQTy5YtQ1lZmaRsiMiUZIy+Quf4nBxYANREcUkFPl6bDf9hp/DuF1fUTocE5Ofnq50CWrUSesYDqampWLJkiaRsiMiUZOzAE1rEr+XIsyLVUV4OfJV4E1PjLyPjovGbtsh8lJaWqp0COnfuLBwjNjYWrVq1QlhYmHhCRGQyMj5+ixUAnAG4p+0Hc9FldDqG/7/zHPytiDkUAKGhodAIHkgvLi5GVFQUFixYwOUAIguiagGg0QB2Os4A/JvDJwvwwMSziJycgWOnC9VOhyQrLS1FhcpnwTw9PdGpUyfhOMXFxXjppZcQFBSEjz76CKmpqWaxyZGI/p2M0fcmAFdjG9/e0QZ6OxYBf3U6qwhTllzGuuQc6z8rbONyc3Oh1ao7C7Zo0SL897//VTUHInPk7OwMb29vhIeHIzo6GgEBAdLjCxIaPGWMvFcBeBjbOGdbIE8C/OHS9VK8s/wK4rdcR0kpR35rZ2dnh5ycHLXTwI0bN+Dv789P7ERV0Ol0iImJwXvvvQd7ezlv2KhdAMgYeYXmpos50P15pM//yVNY+M01Dv42QtYvEVFubm4YMWKE2mkQmbWysjIsXLgQ/fv3F7o905zIKAAKRBrb8mD39yN9+YXlaqdEJqTXm88tmC+++KJiV/oSWZPk5GTExcWpnYYUqhcABUW2VwCUlwMrv7+JwGd+xcRPLuLqTfV3g5PpOTk5/f/27jzIqupO4Pi36W6WppvdBhRQwIWAivsWE7XUZELGijLjaGIUM1qSaDR7THSScZKJplIZo0YnYqIjTuKWMrjOJBpciEQUERBlEWRptm56gd739+aPCxmlFLXvee++1/39VN0qiqr7uz+6n57fO/ec80s6hb8ZM2YM119/fdJpSHnh17/+NatWrUo6jdgSLwDqGvrW4OeWPu0xdGiP185mxJVXXsnRRx+ddBpSzuvu7mbu3LlJpxFbiAKgJc7NNfV9Y9+wW/q0t1wrAIqKirjvvvsoK4t1urfUJ/SGPhghCoDqODfX9vIZgHVb2vn8DRWc8pV1PPeaq6z1/3KtAICoN8A999xDUZFtuqV9qaioSDqF2EL8Vx6rI01tL50ByJUtfUeWlfBvk8dz9sjcG2zy3c2btvPDdZt7fP+IESMCZhPOjBkzuO2227jqqqsSP6hIUuaEKABidaSpqutdMwANzSn+48Fqbv19TaKr+g8aNIAfTBrH+aNH0s9zljJiS1u8NRxjxowJlEl4s2bNAuCaa67JiSOLpVwzYcKEpFOILfEZgA29ZCFcR2eaOY/VctNvqxNd1T+yuIhrJ+7P5QeMpr8jf0ZtbmuPdf/YsWMDZZIZs2bNYr/99uOyyy6joaEh6XSknHLmmWcmnUJsic8AvL01vwuAXOnSN7iwH1+dMIavTxhLWVFhYnn0JZtjzgDkegEA0euAhQsXcskll7B06dKk05FyQmFhIZdeemnSacQWYhHgljg3v7013reoJOXClr7iggIuH1fO66dM5weTxjn4Z0ka2Nga77M7bty4MMlk2KRJk3j++ee56aabPCxIAmbPns2UKVOSTiO2EHPEQ4BYB5pXPzmVYaX5M3C9urqV6+6qTHRVfwFwbvkIbpg8jsklAxPLo6/a0tbBlIXLYsXYsGED5eXlgTLKjqqqKm699VbuvvtueweoTzrjjDOYN29ekJM8k+4FEOolcSUwuqc3v3TnwRw3JXdORXs/udKl75PDh/Djg8dz7JDYHx710J9r6zl32Zoe319aWkpVVazlM4natWsXDz/8MA8++CCvvPKKuwXU6xUWFjJ79mxuvPHGYMd4J10AhNrsu5YYBcDyda05XQC4pU97W90c6wBMJk6cGCiTZAwbNowrrriCK664gpqaGhYsWMDixYtZs2YN69evp66ujqamJtrb8/cVn1RaWsqECRM466yzmDVrVq+Y9n+nkAXAqT29eclbrVwWKJGQGppT3PxQNbc87JY+vdvKmAXAoYceGiiT5I0aNYqZM2cyc+bMpFOR9BGELAB6bOlb8f5nGppb+vRBXm2I9/778MMPD5SJJPVMqAJgeZybV7zdRmdXmuKiZAe5dBoeeaGe6++qZP225Lb0lRT248vjRvPtg/ZniKv6c05Td3fsVwBHHHFEoGwkqWdCFQBL4tzc3pnmzQ1tHHVIcusA/vRKI9ffVZloo57iggJmHbAf3594AKP7506veL3bkoZmUjGXgkybNi1MMpLUQ6EKgCqi8wB6vLH5hWXNiRQAbunTR/VyfbzPyogRIxg/fnygbCSpZ0K2/FpCjALgudea+Nr5owKms2+bqjq54e5KfvfMrkS39J04tJR/P3g8Jw+zBWu+eKEu3rG4J5xwAgUFrumQlKzQBcDnenrzguXNWVkHUFPfxc0P1XDb72to70xu5P/Y4EFcN+kAzivPzY5wem9tqRSvxJwBOOGEEwJlI0k9F7IAeDnOzY0tKZasaeWkaSWh8nkXt/QphEW7mmhNxfv8HH/88YGykaSeC1kALAQ6gP49DTB/SVPwAiBXtvSN6l/Edw9yS1++e7Yu1qnXFBcXOwMgicbGxrghYp+yFbIAaCaaBfhETwM8/mID118S5mx0u/QpE56o3hnr/mOPPdaGOpKoqKiIGyJ2j+6QBQDAs8QoAF57q5WN2zs4aGyPJxEAeHpxI9fNcUufwlrT3MralnifqdNPPz1MMpLy2vz58+OGiPdthDDtgN/pubgB5i3oeVHz6upWPvXNDXz2OxsTG/wLgPPKR/DqSUdwy2EHOfj3Io/H/PYPFgCSoLu7m7lz58YNE+sEXgg/A7AIaAF6/CL/Dwvq+cYFH207YK506Ttt+BB+ZJe+XuuxHfEKgLKyMk488cRA2UjKV3PmzGH16tVxw/S8HeluoQuAduBp4NyeBnh5ZQubd3QyvvyDvznbpU/Zsqq5lWWNzbFinH322fTvH+/1lqT89txzz3HdddeFCPVS3AChXwEAzItzczoN9/1x39+0GppT3HBPFVO+sIY5j9UmNvgfNGgAd0+bzIvHH+7g38s9sL0mdowZM2YEyERSPuru7uaOO+7gvPPOo7OzM264FPB83CCZ2I82guho4B7PLhw4pj9v3X8Y/fYqT9zSpySk0jBl4TK2tfd8N0lhYSEbN25kxAgPfpL6iqamJjZt2sT8+fOZO3duiGn/Pf4KfDxukNCvAADqgBeAM3saYFNlB/OXNHH28dF2Kbf0KUl/rquPNfhDVP17/r+kQP47RJBMFAAAjxKjAAC456k6zj6+1C19StxdW6qSTkGS9mgEHgoRKFPz12OBCmIUGP2LCzh5WgkvLIu38CoOu/RpQ2s7019aHrv9ryQF8jPg2hCBMvkC+0ngsxmMn1Fu6RPAdWsruK2iMuk0JAmi0/8OJVpnF1umXgEA3EseFgB26dMejV3dzN1WnXQakrTHDwk0+ENmC4AngFpgZAafEYxd+rS3OVuqqO/qTjoNSQJYDNwRMmAmC4B24AHgqxl8Rmwjiov4+oFjuXL8aAbuve9QfVZbKsWdLv6TlBt2ARcCQfe/Z7IAAPgNOVoAuKVP+3Lv1moq22Mf1iFJcXUBXwTWhw6cjcnuZ4EzsvCcD8Utffogzd3dHPnX16nqsACQlKg0cBnwX5kInukZAIBbyJEC4DOjhvHTQya4pU/7dFtFpYO/pKR1A18hQ4M/ZGcGoB9R16KDs/Cs9+SWPn1YtZ1dHP7X5TS6+E9ScuqBi4CnMvmQbMwApIDbdl9ZZZc+fVQ/Wb/VwV9SkhYTLfgL/s5/b9na8FYKbCJqFJRxbulTT7ze2MInFr9Jd9pj/yRlXQPwr8DtBF7t/36ytfy9g2i2IVZ/gA8yqn8RN0wex5ypk5leVkKBg78+pDRw8RvrqGhrTzoVSX1LE3Ar8HlgPtGseVZkc4gsI5rSGBU68ODCflw9YQxfc0ufeuj+7TVcsTLjM26SBNEgv4ioq99DwM4kksj2d+RrgZ+GCuaWPoWwo6OT4xatoK4zK7NukvqOdqLufTVEX4BXEQ38z+/+u0RluwAYTPRDKI8baMyAYv50zMfc0qfYLlqxjsd21IUI9TYwleiVlyTltGyffdtMoBmAyvZOljYm1ypYvcMfqupCDf4A38fBX1KeSGKZXH/gdeCwuIGGFhXy0omHM2HggPhZqc/Z1t7ByS+/QW2Yqf9FwClE6wklKecl0f2mA/h2iED1Xd1c/uZ6t23pI0ul4YqV60MN/mmiz7QfREl5I6kl828BJxHgdMDNbR0MLizk5GFl8bNSn/HzTduYu606VLiHgV+ECiZJ2ZDkTvlpwDICnEZYXFDA/xwzxSJAH8rCXY38/Wur6Qwzc9RE9FmuCBFMkrIliVcAe7wJ/DJEoM50motWrGNru+uvtG9b2zu4eMW6UIM/wA9w8JeUh5I+K6+EaEHg5BDBppeV8MyxUykpTLKuUa5qS6X4uyWreLUh2O6RJcCJRF27JCmvJH1sXifRTMDFBChGqjo62drewTn7DY+dmHqXNHDlyg08XVsfKmQX8DlgW6iAkpRNSRcAABuA8cAxIYKtaGphUGE/1wPoXX6yfgt3bqkKGfIWYG7IgJKUTUm/AthjGNFMwP4hghUAd06dxEVjg7cdUB66b1s1V67aEDLkSuA4oDVkUEnKplyYAQBoIyoALiJQUfLHml1MLxvMIR4V3Kf9sWYXl7+5PmR7rXbgM8CWcCElKftypQCA6Bz1UqLT1GJLAU9W7+TU4WWM96TAPumFnQ1c+PpaOsIeFHUt8GjIgJKUhFx5BbBHf+BF4PhQAYcVFfHEMYdxdNngUCGVBxbVN/G5pWto7g66QP/PwKfJYr9uScqUXCsAIDod8DUg2Cq+oUWFzDvqME4YWhoqpHLYovomZi5bQ0NX0MF/B9FC1a0hg0pSUnLpFcAedcBG4B9CBWxPpXmkqo6Th5XZOKiXW7CzgZnL3qIp7Df/LuAcYEXIoJKUpFwsAADeIOB6AICOdJo/7KjjuCGlTBxkEdAbPV1bzwXL19KSCj5D/y3godBBJSlJuVoAADxLdMpa7IZBe3Sm08zbUcekkgFMLS0JFVY54Hfba7jszbdpTwVvyHc/8N3QQSUpablcAKSBp4CZwMhQQbvSaR7bsZPCggI+PrwsJxdB6MNLAzet38r31lbQHb4Z73LgXKITKyWpV8mH8e9jwEvA0NCBvzB2FLdPmUj/fvnwY9De2lIprl61kQcqazIRfgtwMu73l9RL5cvIdwbwv0Dwl/enDi/jt4cfwqj+sbsSK4u2tnfwhdfXsiRcY5932gV8gmgtiiT1Srn8CuCdNhKtwD6fwC2MK9o6uL+yhiPLBrs4ME+8tKuRc5auYW1LWybCdxBN+y/KRHBJyhX5UgAArAGqgc+GDtzcneL3VbUUF0RNhPJlWqSvSaXh55u2MXvlBhrDbvP72yOIOlM+nongkpRL8qkAAHiV6LXF6aEDp4DndzbwWkMzZ40cSklh0IkGxbStvYMLX1/LfduqM3UMXxq4Crg3M+ElKbfkWwEA8DwwGPh4JoK/3drG/dtrmDhoIIcNHpSJR+gjmrejjn9c/harmzPWfC8NXA38KlMPkKRck48FAMAzRLmflongzd0pHtlRx6rmVj45fIizAQmp7uhk9soN3LRhK63hD/d5p+8Bt2TyAZKUa/K1AAB4DigGPpmpB6xubuW3ldWMHziAqaXOBmRLGniwsobzl69laWNGVvm/07eBn2f6IZKUa/K5AIDotMA24KxMPaClO8WjO+p4cVcj08tKKO9fnKlHCVjR1MLFK9bxn5urMv2tP010xO/NmXyIJOWqfC8AABYC9cCnyOC5Bpva2rl3WzVVHZ2cMLSUQb4WCKq2s4t/WbeZq1dvpKKtPdOPawcuAu7O9IMkKVf1ph1v5wP3AQMz/aDhxUV8b+L+/PMB5QzqZyEQR3N3itsrKrmlYjuNYdv3vp9G4DxgfjYeJkm5qjcVABCd3vYYMDwbDxszoJhvHjiWL1kIfGRtqRRzt1Xzsw3bqOrI2lH7VUTnSCzJ1gMlKVf1tgIAYCpRE6GDsvXAMQOK+caBY/nS/uXuGPgATd3d/GbLDn5ZUZnNgR9gKdEJfxXZfKgk5areWAAAjAIeIIOLA9/L8OIiLt1/Py4fV86BAz1W+J02t3Xwm61V3L2lml1dXdl+/MPAl4CWbD9YknJVby0AIFrgeCPwHbL87ywsKGDGqGHMHjea00YM6dU/5H1JAwt2NjBncxVP1eyiOx2+X+8HSAH/CvxkdzqSpN36wth0PnAPUJrEwycOGsAFY0byT6NHcejgjK9PzAlvt7TxQGUND2yvZVPmV/S/n1rgUuDJpBKQpFzWFwoAiNYFPAAcmWQSR5UN5oIxIzm3fATjB/ZPMpXgNrS283h1HY/t2Mkr9U1Jp/M88EVga8J5SFLO6isFAMAAolcC3yAH/t1TSwfx6ZHD+NTIoZw0rIzigsRT+kg602kW1zfxbF09T1XvYkVTTrxe7wJ+RPR7zsqeQknKV/k16oRxFlHHtwMSzuNvyooKOW34EE4cWsqJQ0s5qmxwzu0maEulWNbYwuL6Jl7Y2cBfdjbSnJmWvD21HpgFvJh0IpKUD/piAQAwErgduDDpRN5LUUEBR5SWcNzQwUwrLeHQkqgz4egsHUNc19nFquZWVjW38mZTC0sbmlne2EJn9hfxfRgp4JfA9UDGGwdIUm/RVwuAPWYAd5DFMwPiGFpUyKElg5hYMoD9iosZO6CY8v7FjB5QzKjiYoYUFVIADCuOTngeVlQEQHN3N53pNKk01Hd1s7Ozi51dXdR1dlHb0cXmtg4q2trZ3NbOxrZ2ajqyvk2vp1YBlwEvJZ2IJCn/lAA/AzqJtop55f7VBvyYaF2HJEmxTAf+QvKDm9e+r3nA5Pf5HUqS1GNnAW+Q/EDn9e5rFfCZffzeJEmKrRi4Bqgm+YGvr19bgC8DRfv8jUmSFNAwon3lO0l+IOxr13bga2ShvbMkSe+njGgw2k7yA2Nvv6qBa4kWZ0qSlBNKgW8RHTGb9EDZ265VwGwc+CVJOawQOAd4huggmqQHz3y+Xtz9s+zrZ1JIkvLMEcCvgEaSH0zz5aoCfgFM68HPW5KknDKIqPXwE0AHyQ+yuXZ1Ec2YnA/0rlaIkiTtNppoG+Ei+vYrgg6iQf/K3T8TSZL6jLHA5cCjQBPJD8qZvpqBR4CLgeEBfn6SpAxw4VV2DQTOAM4GPgEcRf4fcNMJvAI8C8wnmvVoTzQjSdIHsgBIVhlwCnDq7ms6uf+tuRJYArxG1IXvL0QzG5KkPGIBkHsOBI4kKgamA4cCE4mKhWzaCawF1gGrgWVEA/+2LOchScoAC4D8MYqoEJgIjAfKgZF7XQOJCoU9rxVKiFrmthBNyzcTLcxr2v3namAH0bf6PX/eSDTw12b+nyRJkiRJkiRJkiRJkiRJkiRJkiRJkiRJkiRJkiRJkiRJkiRJkiRJkiRJkiRJkiRJkiRJkiRJkiRJkiRJkiRJkiRJkiRJkiRJkiRJkiRJkiRJkiRJkiRJkiRJkiRJkiRJkiRJkiRJkiRJkiRJkiRJkiRJkiRJkiRJkiRJkiRJkiRJkiRJkiRJkiRJkiRJkiRJkiRJkiRJkiRJkiRJkiRJkiRJkiRJkiRJkiT1zP8BzhlagYW+EskAAAAASUVORK5CYII=;" parent="1" vertex="1">
          <mxGeometry x="800" y="135" width="60" height="60" as="geometry" />
        </mxCell>
      </root>
    </mxGraphModel>
  </diagram>
</mxfile>
